<svg width="440" height="414" viewBox="0 0 440 414" fill="none" xmlns="http://www.w3.org/2000/svg">
<path d="M358.471 303.14C358.685 303.567 360.632 306.651 360.018 307.344C359.902 307.474 359.673 307.213 359.574 307.069C359.226 306.56 358.972 305.989 358.71 305.429C357.838 303.571 357.11 301.646 356.258 299.778C355.134 297.312 353.992 294.8 351.98 292.944C351.049 292.085 350.037 291.308 349.01 290.572C347.959 289.82 346.747 288.944 346.031 287.825C345.845 287.534 346.249 287.722 346.344 287.759C347.366 288.154 348.354 288.634 349.372 289.041C352.564 290.317 355.859 291.349 358.981 292.803C363.653 294.977 368.136 297.99 371.998 301.401C374.6 303.699 377.168 306.156 379.041 309.117C381.194 312.522 382.482 316.381 383.508 320.262C384.25 323.064 384.892 325.946 384.981 328.86C385.119 333.391 384.015 337.731 382.908 342.077C381.695 346.839 380.596 351.544 380.209 356.46C379.945 359.808 379.764 363.17 379.501 366.515" stroke="#C6E36F" stroke-width="8" stroke-linecap="round"/>
<path d="M358.027 304.639C358.98 307.133 358.553 305.895 359.656 309.916C360.216 311.955 360.741 314.003 361.302 316.042C361.799 317.849 362.242 319.674 362.832 321.452C363.004 321.971 363.252 323.343 363.581 322.908C364.073 322.259 363.639 321.27 363.589 320.453C363.49 318.815 363.306 317.183 363.137 315.551C362.67 311.052 362.182 306.479 361.039 302.092C360.84 301.33 360.385 299.827 359.772 299.112C359.207 298.454 357.911 298.119 357.18 297.788C355.494 297.026 353.902 296.059 352.219 295.3C350.718 294.623 350.234 294.749 350.639 296.49C351.082 298.397 351.773 300.236 352.284 302.125C353.518 306.684 354.419 311.301 355 315.992C356.38 327.145 356.394 338.366 357.27 349.552C357.869 357.184 359.271 364.893 358.348 372.566C358.186 373.918 357.905 372.182 357.846 371.958C357.476 370.552 351.78 370.191 351.511 368.762C349.961 360.543 353.47 353.651 352.745 345.357C352.198 339.095 350.487 333.009 349.931 326.729C349.515 322.026 352.44 314.836 351.544 310.182C350.921 306.947 349.898 303.843 349.15 300.643C348.921 299.667 348.682 298.877 349.865 299.595C352.158 300.985 354.034 302.231 356.752 302.733C359.203 303.185 361.172 302.997 363.647 303.199C365.774 303.372 368.916 303.581 370.533 305.338C372.115 307.055 372.459 311.936 372.631 313.586C373.81 324.843 373.491 336.176 373.314 347.471C372.655 389.561 373.427 334.571 373.1 362.919C373.076 365.03 373.443 368.17 371.981 369.994C369.891 372.603 365.132 372.494 362.158 372.508C360.31 372.516 358.722 372.217 357.089 371.342C356.131 370.829 357.135 370.7 357.896 370.643C361.757 370.356 365.719 370.827 369.497 371.6C371.804 372.072 373.86 372.559 375.89 373.731C377.009 374.378 377.702 375.49 378.662 376.32C379.004 376.615 379.864 377.536 380.151 376.603C380.765 374.614 380.177 372.067 380.061 370.06C379.82 365.896 380.325 361.897 380.917 357.783C382.041 349.958 382.045 342.432 380.686 334.619C380.045 330.932 379.341 327.415 378.185 323.849C376.903 319.892 375.036 315.351 371.8 312.546C370.805 311.682 369.46 311.082 369.085 312.962C368.797 314.41 368.923 315.913 368.921 317.39C368.913 323.104 369.17 328.815 369.225 334.528C369.311 343.389 369.21 346.118 369.34 354.804C369.42 360.132 369.015 366.492 370.862 371.659C371.23 372.688 372.899 375.202 373.018 374.114C373.09 373.455 372.995 372.787 373.035 372.125C373.438 365.395 373.415 369.266 374.318 361.154C374.896 355.964 375.5 350.571 374.565 345.357C374.167 343.137 373.431 340.961 372.442 338.939C372.173 338.388 369.235 332.595 366.584 334.32C365.544 334.997 365.151 336.44 364.906 337.666C364.181 341.294 364.678 349.12 364.889 352.548C365.027 354.79 365.274 357.025 365.44 359.265C365.548 360.715 365.685 362.165 365.712 363.618C365.718 363.962 365.724 364.922 365.539 364.634C365.142 364.013 365.106 363.216 364.988 362.486C364.658 360.454 364.407 358.409 364.198 356.36C363.896 353.397 363.681 350.425 363.458 347.454C363.27 344.962 362.677 334.335 362.125 331.09C361.288 326.177 359.95 330.259 359.36 332.014C359.002 333.081 358.746 334.121 358.472 335.202" stroke="#C6E36F" stroke-width="9" stroke-linecap="round"/>
<path d="M378.465 313.029C374.941 311.795 371.388 310.672 367.818 309.583C366.813 309.276 365.979 309.102 365.136 308.534" stroke="#C6E36F" stroke-width="7" stroke-linecap="round"/>
<path d="M355.954 374.755H354.325" stroke="#C6E36F" stroke-width="5" stroke-linecap="round"/>
<path d="M349.585 299.844C349.127 298.027 348.524 296.292 347.545 294.684C347.258 294.212 346.993 293.851 346.475 293.702" stroke="#C6E36F" stroke-width="5" stroke-linecap="round"/>
<path d="M372.689 376.703H367.654" stroke="#C6E36F" stroke-width="8" stroke-linecap="round"/>
<path d="M352 376.5C353.659 376.454 351.703 376.295 351.528 375.639C351.337 374.922 356.684 375.804 356.695 375.805C360.49 376.391 364.235 376.874 368.056 377.264C371.565 377.621 374.98 378 378.5 378" stroke="#C6E36F" stroke-width="3" stroke-linecap="round"/>
<path d="M376.25 379C374.418 379.279 376.72 378.882 377.25 378.75" stroke="#C6E36F" stroke-width="3" stroke-linecap="round"/>
<path d="M351.5 373.5C350.781 373.15 348.183 371.104 349.5 372.75" stroke="#C6E36F" stroke-width="3" stroke-linecap="round"/>
<path d="M384.093 380.748C384.653 362.933 388.227 344.962 387.449 327.145C386.931 315.268 383.083 304.258 373.429 297.048C366.612 291.956 358.633 288.288 350.524 285.861C348.534 285.265 345.134 284.525 343.218 283.664" stroke="black" stroke-width="3" stroke-linecap="round"/>
<path d="M364.544 375.055C362.647 377.148 366.008 376.506 367.374 376.603C369.461 376.75 371.494 377.157 373.512 377.701C376.27 378.445 372.039 377.487 371.751 377.452C365.381 376.666 358.386 376.758 352.285 374.472C351.684 374.247 350.823 373.544 350.129 373.789C349.379 374.055 350.413 374.628 350.623 374.755" stroke="#C6E36F" stroke-width="3" stroke-linecap="round"/>
<path d="M349.141 376.253L350.326 375.354" stroke="#C6E36F" stroke-width="3" stroke-linecap="round"/>
<path d="M348.267 376.072C348.2 376.898 347.477 377.514 346.651 377.449C345.825 377.383 345.21 376.661 345.277 375.835L348.267 376.072ZM163.619 186.048L165.078 186.392L163.619 186.048ZM163.252 187.026L161.926 186.326L163.252 187.026ZM180.545 143.581L181.309 142.289L180.545 143.581ZM174.626 146.122L173.171 145.762L174.626 146.122ZM215.733 174.004L215.77 172.505L215.733 174.004ZM212.529 172.298L213.748 171.423L212.529 172.298ZM266.805 176.136L267.95 177.103L266.805 176.136ZM297.104 145.927L298.029 147.106L297.104 145.927ZM345.277 375.835C350.033 316.856 338.676 237.308 301.821 148.109L304.594 146.96C341.595 236.514 353.068 316.539 348.267 376.072L345.277 375.835ZM298.029 147.106C288.496 154.592 283.565 159.042 279.743 163.114C275.876 167.234 273.18 170.915 267.95 177.103L265.66 175.168C270.736 169.162 273.631 165.245 277.557 161.062C281.529 156.831 286.594 152.273 296.179 144.747L298.029 147.106ZM262.963 178.992C246.525 176.641 235.285 175.966 215.696 175.504L215.77 172.505C235.426 172.968 246.794 173.649 263.392 176.022L262.963 178.992ZM211.31 173.173C200.588 158.217 191.133 151.579 179.781 144.873L181.309 142.289C192.885 149.128 202.707 156.022 213.748 171.423L211.31 173.173ZM176.082 146.481C173.862 155.426 172.326 160.258 170.74 165.423C169.161 170.565 167.523 176.063 165.078 186.392L162.159 185.704C164.622 175.298 166.279 169.734 167.872 164.546C169.458 159.382 170.973 154.619 173.171 145.762L176.082 146.481ZM164.577 187.726C149.979 215.322 142.111 235.425 137.612 249.975C133.111 264.533 131.982 273.511 130.833 279.11L127.895 278.51C129.008 273.085 130.188 263.837 134.747 249.092C139.308 234.338 147.253 214.061 161.926 186.326L164.577 187.726ZM165.078 186.392C164.971 186.848 164.798 187.31 164.577 187.726L161.926 186.326C162.026 186.137 162.11 185.915 162.159 185.704L165.078 186.392ZM179.781 144.873C178.368 144.038 176.495 144.819 176.082 146.481L173.171 145.762C174.05 142.218 178.107 140.397 181.309 142.289L179.781 144.873ZM215.696 175.504C213.937 175.463 212.321 174.583 211.31 173.173L213.748 171.423C214.225 172.087 214.975 172.486 215.77 172.505L215.696 175.504ZM267.95 177.103C266.723 178.555 264.828 179.259 262.963 178.992L263.392 176.022C264.248 176.144 265.111 175.817 265.66 175.168L267.95 177.103ZM301.821 148.109C301.197 146.598 299.305 146.104 298.029 147.106L296.179 144.747C299.03 142.509 303.216 143.627 304.594 146.96L301.821 148.109Z" fill="black"/>
<path d="M179.125 396.27C172.981 342.209 167.459 302.427 161.307 288.926C160.974 288.194 160.314 287.662 159.545 287.427C108.557 271.847 79.186 269.084 28.7389 267.516C27.0714 267.464 25.6672 268.789 25.646 270.457C25.0851 314.467 31.5291 352.316 38.3124 384.705C38.5631 385.902 39.5166 386.821 40.7207 387.035L183.171 412.328C183.627 412.409 184.095 412.383 184.539 412.253L290.488 381.211C291.581 380.891 292.41 379.978 292.564 378.85C293.611 371.198 291.442 369.509 285.606 369.314C285.314 369.304 285.02 369.342 284.739 369.42L188.011 396.27" stroke="black" stroke-width="3" stroke-linecap="round"/>
<path d="M160.924 393.177L45.9999 374" stroke="black" stroke-width="3" stroke-linecap="round"/>
<path d="M438 390.277L292.272 369.902" stroke="black" stroke-width="3" stroke-linecap="round"/>
<path d="M279.832 361.571C270.502 367.271 246.098 378.248 240.207 364.301C235.563 353.305 239.503 345.674 246.658 338.798" stroke="black" stroke-width="3" stroke-linecap="round"/>
<path d="M289.902 369.302C286.141 367.064 275.895 366.365 271.538 366.365" stroke="black" stroke-width="3" stroke-linecap="round"/>
<path d="M238.364 363.909C217.392 360.792 196.477 356.646 175.571 353.122" stroke="black" stroke-width="3" stroke-linecap="round"/>
<path d="M28.0652 336.342C19.3959 334.736 10.7626 334.184 1.99997 333.345" stroke="black" stroke-width="3" stroke-linecap="round"/>
<path d="M290.055 169.8C294.567 169.867 295.428 176.049 295.715 180.627C295.823 182.355 294.416 183.84 292.687 183.761C288.25 183.556 282.152 182.601 282.848 178.157C283.314 175.175 286.635 169.749 290.055 169.8Z" stroke="black" stroke-width="3" stroke-linecap="round"/>
<path d="M181.034 163.771C184.325 163.445 186.957 167.92 188.775 171.501C189.619 173.164 188.767 175.269 186.949 175.679C183.257 176.512 179.125 176.535 179.125 172.128C179.125 170.353 178.15 164.057 181.034 163.771Z" stroke="black" stroke-width="3" stroke-linecap="round"/>
<path d="M306.489 234.522C334.134 234.522 361.779 234.522 389.424 234.522" stroke="black" stroke-width="3" stroke-linecap="round"/>
<path d="M317.152 247.707C337.782 251.726 358.238 256.361 378.761 260.891" stroke="black" stroke-width="3" stroke-linecap="round"/>
<path d="M160.761 209.352C151.755 202.727 142.974 195.784 134.103 188.977" stroke="black" stroke-width="3" stroke-linecap="round"/>
<path d="M154.837 217.143C145.224 215.375 135.484 214.301 125.81 212.948" stroke="black" stroke-width="3" stroke-linecap="round"/>
<path d="M251.397 230.868C250.731 230.728 242.869 229.669 245.934 229.669C250.124 229.669 254.315 229.669 258.505 229.669" stroke="black" stroke-width="5" stroke-linecap="round"/>
<path d="M194.272 222.501C197.231 222.27 200.576 223.811 203.289 224.831C206.56 226.061 204.998 225.889 203.158 226.096" stroke="black" stroke-width="5" stroke-linecap="round"/>
<path d="M222.073 257.236C221.914 257.789 221.129 259.096 221.81 258.801C222.699 258.416 223.477 259.535 224.509 258.601C225.23 257.948 220.985 256.272 220.395 255.821C219.034 254.781 220.789 254.729 220.428 254.273C219.396 252.968 218.417 255.725 218.42 256.271C218.427 257.313 218.263 261.911 219.21 262.63C219.996 263.226 224.333 259.408 225.332 258.734" stroke="#FBA094" stroke-width="3" stroke-linecap="round"/>
<path d="M218.25 258C218.036 258.963 217.201 261.004 217.611 262.028C217.767 262.417 218.899 262.275 219.194 262.306C221.046 262.495 222.12 262.165 222.847 260.264C223.857 257.622 221.358 259.207 219.944 259.417C219.232 259.522 218.818 257.923 218.556 257.5C218.085 256.743 217.519 257.366 217.056 256.903C215.888 255.736 218.645 254 219.625 254C220.86 254 221.241 254.996 222.028 255.917C222.494 256.462 223.071 257.254 223.278 257.944C223.358 258.214 223.551 261.499 223.153 261.389C222.055 261.084 221.323 258.161 221.097 257.306C220.769 256.062 220.641 254.774 220.5 253.5" stroke="#FBA094" stroke-width="3" stroke-linecap="round"/>
<path d="M217.927 256.037C217.434 256.017 217.36 255.955 217.038 255.738" stroke="#FBA094" stroke-width="3" stroke-linecap="round"/>
<path d="M232.44 259.345C228.397 258.345 224.735 255.124 222.205 251.854C220.779 250.011 221.297 249.278 219.276 251.088C216.303 253.75 213.048 253.352 209.337 253.352" stroke="black" stroke-width="3" stroke-linecap="round"/>
<path d="M227.701 258.745C225.971 263.078 222.348 266.824 217.301 265.071C213.939 263.904 215.737 257.852 214.669 255.15" stroke="black" stroke-width="3" stroke-linecap="round"/>
<ellipse cx="25.3101" cy="18.6266" rx="25.3101" ry="18.6266" transform="matrix(-0.993497 0.113858 0.111287 0.993788 304.65 236.025)" fill="#FBA094"/>
<ellipse cx="22.5324" cy="17.9617" rx="22.5324" ry="17.9617" transform="matrix(-0.957287 -0.28914 -0.283062 0.959102 195.712 233.11)" fill="#FBA094"/>
<path d="M266.667 222.844C262.423 219.072 256.427 218.008 250.804 217.683C245.182 217.358 238.052 220.402 235.007 226.939C233.154 230.917 232.357 236.404 234.299 240.49C235.697 243.43 238.487 245.94 241.145 247.698C250.921 254.164 266.59 254.433 270.616 241.255C272.55 234.927 271.814 227.419 266.667 222.844Z" stroke="black" stroke-width="3" stroke-linecap="round"/>
<path d="M213.485 222.736C210.506 214.249 205.213 212.267 197.157 210.492C191.575 210.663 185.96 211.087 182.619 215.8C178.432 221.708 177.728 230.002 182.046 236.014C185.676 241.068 191.911 242.659 198.195 242.835C202.326 242.95 208.059 242.604 211.121 239.515C215.408 235.191 215.292 227.885 213.485 222.736Z" stroke="black" stroke-width="3" stroke-linecap="round"/>
<path d="M179 332C179.538 338.73 179.477 346.319 175.5 352" stroke="black" stroke-width="3" stroke-linecap="round"/>
<path d="M231.848 230.867C226.792 229.682 221.918 229.07 216.742 229.07" stroke="black" stroke-width="3" stroke-linecap="round"/>
<path d="M105.108 330.515C106.169 329.934 106.36 328.415 106.221 327.084C106.119 326.108 105.327 325.322 104.348 325.389C102.778 325.498 101.413 326.455 101.817 328.284C102.102 329.573 103.62 331.33 105.108 330.515Z" fill="#87B5FA" stroke="#87B5FA" stroke-linecap="round"/>
<path d="M94.0669 339.937C98.6395 336.097 93.6554 329.738 89.8392 327.174C89.405 326.883 88.8925 326.747 88.3703 326.775C82.7728 327.068 71.3451 330.325 75.4724 337.707C78.7438 343.557 89.2721 343.964 94.0669 339.937Z" fill="#87B5FA" stroke="#87B5FA" stroke-linecap="round"/>
<path d="M95.3971 321.041C96.4275 320.728 96.9609 318.682 96.7583 317.275C96.6676 316.646 96.1404 316.196 95.522 316.048C95.0367 315.933 94.5637 315.925 93.9408 316.114C92.7792 316.466 91.9888 317.448 92.3199 318.719C92.6201 319.871 94.0856 321.439 95.3971 321.041Z" fill="#87B5FA" stroke="#87B5FA" stroke-linecap="round"/>
<path d="M84.0903 318.729C84.2099 317.695 84.0498 316.642 83.5346 315.814C83.0351 315.012 81.9131 314.933 81.2273 315.583C80.0743 316.677 79.5568 318.382 80.8403 319.462C81.9688 320.411 83.8693 320.64 84.0903 318.729Z" fill="#87B5FA" stroke="#87B5FA" stroke-linecap="round"/>
<path d="M73.0696 322.758C73.7387 321.538 73.0075 320.738 71.9584 320.203C70.9467 319.686 69.6434 320.071 69.302 321.155C69.002 322.106 69.1178 323.117 70.2228 323.64C71.2438 324.123 72.5139 323.77 73.0696 322.758Z" fill="#87B5FA" stroke="#87B5FA" stroke-linecap="round"/>
<path d="M108.663 332.912C109.724 332.331 109.915 330.812 109.775 329.482C109.673 328.505 108.882 327.719 107.902 327.786C106.332 327.895 104.968 328.852 105.372 330.682C105.657 331.97 107.175 333.727 108.663 332.912Z" stroke="black" stroke-width="3" stroke-linecap="round"/>
<path d="M97.6211 342.334C102.194 338.494 97.2096 332.135 93.3934 329.571C92.9592 329.28 92.4467 329.145 91.9245 329.172C86.327 329.465 74.8993 332.722 79.0266 340.104C82.298 345.954 92.8263 346.361 97.6211 342.334Z" stroke="black" stroke-width="3" stroke-linecap="round"/>
<path d="M98.9513 323.438C99.9817 323.126 100.515 321.079 100.312 319.673C100.222 319.043 99.6946 318.593 99.0762 318.446C98.5909 318.33 98.1179 318.322 97.495 318.511C96.3334 318.863 95.543 319.845 95.8741 321.116C96.1743 322.269 97.6398 323.836 98.9513 323.438Z" stroke="black" stroke-width="3" stroke-linecap="round"/>
<path d="M87.6445 321.126C87.7641 320.092 87.604 319.039 87.0888 318.211C86.5893 317.409 85.4673 317.33 84.7815 317.981C83.6285 319.074 83.111 320.779 84.3945 321.859C85.523 322.808 87.4235 323.037 87.6445 321.126Z" stroke="black" stroke-width="3" stroke-linecap="round"/>
<path d="M76.6238 325.155C77.2952 323.931 76.5353 323.13 75.466 322.595C74.4503 322.086 73.1458 322.47 72.8214 323.559C72.5385 324.508 72.6747 325.516 73.777 326.037C74.7981 326.52 76.0682 326.168 76.6238 325.155Z" stroke="black" stroke-width="3" stroke-linecap="round"/>
<path d="M426.152 403.461C416.645 403.077 407.566 401.322 398.31 399.266" stroke="black" stroke-width="3" stroke-linecap="round"/>
<path d="M379.353 395.671L369.282 395.072" stroke="black" stroke-width="3" stroke-linecap="round"/>
<path d="M229.967 133.287C229.789 133.191 209.866 124.557 219.765 123.232C224.852 122.551 228.541 122.914 232.863 119.803C239.46 115.054 223.01 114.89 221.41 114.642C216.323 113.856 208.959 112.726 203.836 111.779C202.737 111.576 192.85 110.776 199.426 109.049C210.888 106.039 222.685 103.88 234.344 101.824C237.519 101.265 241.544 102.199 243.822 99.8933C244.153 99.5587 243.363 98.9824 242.934 98.7946C240.226 97.6101 231.749 95.8453 229.704 95.4652C216.925 93.0907 203.545 93.2992 190.935 90.1383C189.992 89.9019 188.845 89.9136 188.171 89.206C187.858 88.8775 188.757 88.4336 189.191 88.3071C197.574 85.859 207.108 85.7646 215.684 84.3452C225.077 82.7905 234.394 80.8696 243.79 79.3511C246.073 78.9821 245.213 78.8143 243.065 78.4855C233.463 77.0158 223.796 76.1116 214.203 74.5236C207.725 73.4513 203.769 72.6975 197.715 71.2275C193.309 70.1579 192.585 69.1554 195.213 64.5688C198.035 59.6453 202.922 53.5969 207.325 50.2525C212.903 46.0146 224.245 40.2518 231.448 44.5926C232.156 45.0194 232.489 46.4988 231.876 47.0564C230.467 48.3384 228.414 48.742 226.544 49.054C226.408 49.0767 207.509 49.3911 217 43.4607C220.994 40.9652 228.727 39.5667 233.324 40.1979C234.655 40.3807 236.672 40.9408 236.78 42.2954C237.092 46.2481 229.827 46.5475 225.919 46.8566C221.251 47.2258 216.11 46.8018 211.998 44.2264C205.445 40.1224 213.605 36.5772 217.132 35.8031C223.506 34.4042 233.751 34.1959 240.038 35.0041C241.551 35.1986 260.723 38.3772 251.161 44.8257C246.27 48.1247 237.794 49.1318 232.468 49.6533C225.113 50.3734 218.447 50.3846 211.175 49.1539C203.756 47.8983 185.14 38.7357 202.454 33.8721C209.744 31.8242 223.119 30.8133 230.23 30.8757C240.07 30.9621 257.193 31.1395 264.721 39.4987C269.371 44.6632 264.063 47.5413 259.751 49.5201C245.187 56.2032 226.58 56.7515 210.945 56.9113C209.752 56.9235 164.843 57.1471 172.505 45.8578C175.951 40.7807 190.554 34.514 194.424 33.0731C210.568 27.062 229.318 22.6277 246.62 25.1159C252.759 25.9988 260.209 27.562 262.318 34.6379C264.875 43.2181 254.671 51.2957 248.463 54.4475C231.298 63.1617 206.435 59.7721 191.988 47.1562C188.242 43.8847 183.562 38.8704 185.209 33.0398C187.122 26.264 195.198 23.9082 200.644 22.2527C211.017 19.0992 221.52 17.9237 232.337 18.2907C242.489 18.6352 258.722 20.5624 264.326 31.3418C267.144 36.7632 264.496 42.815 260.508 46.5903C250.392 56.1679 233.805 60.5995 220.555 62.2715C209.605 63.6532 200.107 63.5479 189.421 60.4737C178.382 57.2979 164.898 49.0474 167.963 34.8043C170.144 24.6726 180.146 16.4449 188.565 12.2979C208.309 2.57332 234.116 -0.637495 255.539 4.27412C263.468 6.09213 270.444 8.61504 272.85 16.959C275.51 26.1855 266.237 31.5993 258.731 32.4738C251.594 33.3052 237.763 31.2778 231.218 29.4108C227.584 28.3743 223.769 27.2889 220.785 24.9494C214.137 19.7383 222.496 15.8605 225.952 13.9625C234.702 9.15714 245.667 5.71768 255.44 7.43701" stroke="#C6E36F" stroke-width="3" stroke-linecap="round"/>
<path d="M237.075 135.684C236.898 135.588 216.974 126.955 226.873 125.629C231.96 124.948 235.649 125.311 239.972 122.2C246.569 117.451 230.119 117.287 228.519 117.039C223.431 116.253 216.068 115.123 210.944 114.176C209.845 113.973 199.959 113.173 206.534 111.446C217.996 108.437 229.794 106.277 241.453 104.221C244.628 103.662 248.652 104.596 250.931 102.29C251.262 101.956 250.472 101.38 250.042 101.192C247.335 100.007 238.858 98.2424 236.812 97.8623C224.033 95.4878 210.654 95.6963 198.043 92.5353C197.101 92.299 195.953 92.3107 195.279 91.6031C194.966 91.2746 195.866 90.8307 196.299 90.7042C204.682 88.2561 214.216 88.1617 222.792 86.7423C232.185 85.1876 241.503 83.2667 250.898 81.7482C253.181 81.3791 252.322 81.2113 250.174 80.8826C240.571 79.4129 230.904 78.5087 221.311 76.9207C214.834 75.8484 210.878 75.0946 204.823 73.6246C200.417 72.5549 199.693 71.5525 202.322 66.9659C205.143 62.0424 210.031 55.994 214.433 52.6496C220.011 48.4117 231.354 42.6489 238.556 46.9897C239.265 47.4165 239.597 48.8959 238.984 49.4535C237.575 50.7355 235.523 51.1391 233.653 51.4511C233.516 51.4738 214.617 51.7882 224.109 45.8578C228.103 43.3623 235.836 41.9638 240.432 42.595C241.763 42.7778 243.781 43.3379 243.888 44.6925C244.201 48.6452 236.935 48.9446 233.027 49.2537C228.36 49.6229 223.219 49.1989 219.106 46.6235C212.553 42.5195 220.714 38.9743 224.24 38.2002C230.614 36.8013 240.859 36.593 247.146 37.4012C248.659 37.5957 267.831 40.7743 258.27 47.2228C253.378 50.5218 244.903 51.5289 239.577 52.0504C232.221 52.7705 225.556 52.7817 218.283 51.551C210.864 50.2954 192.248 41.1328 209.562 36.2692C216.852 34.2213 230.227 33.2104 237.339 33.2728C247.178 33.3592 264.302 33.5366 271.829 41.8958C276.48 47.0603 271.172 49.9384 266.86 51.9172C252.296 58.6003 233.689 59.1486 218.053 59.3084C216.861 59.3205 171.952 59.5442 179.613 48.2549C183.059 43.1778 197.662 36.9111 201.532 35.4702C217.677 29.4591 236.426 25.0248 253.728 27.513C259.867 28.3959 267.318 29.9591 269.427 37.035C271.984 45.6152 261.78 53.6928 255.571 56.8446C238.406 65.5588 213.543 62.1692 199.097 49.5533C195.35 46.2818 190.67 41.2675 192.317 35.4369C194.231 28.6611 202.306 26.3053 207.752 24.6497C218.125 21.4963 228.628 20.3208 239.445 20.6878C249.597 21.0323 265.83 22.9595 271.434 33.7389C274.253 39.1603 271.604 45.212 267.617 48.9874C257.501 58.565 240.913 62.9966 227.663 64.6686C216.714 66.0503 207.216 65.945 196.53 62.8708C185.491 59.695 172.007 51.4445 175.072 37.2014C177.252 27.0697 187.254 18.842 195.674 14.695C215.417 4.97042 241.225 1.7596 262.647 6.67121C270.576 8.48922 277.552 11.0121 279.958 19.3561C282.618 28.5826 273.346 33.9964 265.839 34.8709C258.703 35.7023 244.872 33.6749 238.326 31.8079C234.692 30.7714 230.878 29.6859 227.893 27.3465C221.246 22.1354 229.604 18.2576 233.06 16.3596C241.811 11.5542 252.776 8.11478 262.548 9.8341" stroke="black" stroke-width="3" stroke-linecap="round"/>
</svg>
