<svg width="330" height="495" viewBox="0 0 330 495" fill="none" xmlns="http://www.w3.org/2000/svg">
<path d="M175.791 200.462C159.223 197.985 148.873 197.441 130.924 200.45C129.753 200.647 128.572 200.143 127.903 199.163C122.385 191.07 117.926 185.586 109.361 176.899C107.938 175.456 105.495 175.891 104.569 177.695C13.5243 355.135 11.0836 438.501 91.6401 481.991C93.0566 482.756 94.6745 483.155 96.2842 483.155H217.649C219.326 483.155 221.011 482.725 222.461 481.884C307.557 432.472 270.238 285.608 200.236 177.09C199.203 175.489 196.959 175.268 195.634 176.636C187.63 184.899 183.564 190.438 178.91 198.911C178.297 200.027 177.051 200.65 175.791 200.462Z" stroke="black" stroke-width="3"/>
<path d="M52.9004 291.316C53.4013 291.537 54.1915 291.762 54.4113 292.383C54.4297 292.435 53.7244 291.392 53.6788 290.782C53.5885 289.577 53.7771 287.986 55.1134 287.758C56.2708 287.56 54.8072 287.669 55.2355 287.386C56.7718 286.368 57.5445 283.974 57.5706 282.065C57.5812 281.289 56.9188 283.456 56.6244 284.167C55.8121 286.129 55.7483 285.073 56.5023 283.812C56.6558 283.555 58.669 280.857 58.2727 281.143C56.8509 282.17 56.3213 284.489 56.0291 286.141C55.9719 286.464 55.8563 291.713 56.1207 291.397C57.0001 290.343 57.2321 287.965 57.5706 286.69C57.9822 285.141 58.3222 283.521 58.9137 282.033C59.8749 279.614 57.1348 281.281 55.9223 281.709" stroke="white" stroke-width="3" stroke-linecap="round"/>
<path d="M52.9004 285.785C53.5343 286.111 54.1709 286.381 54.8234 286.658" stroke="white" stroke-width="3" stroke-linecap="round"/>
<path d="M248.226 277.343C251.489 279.29 252.801 282.686 253.705 286.399C254.066 287.88 254.376 289.421 254.621 290.928C254.716 291.516 254.453 293.315 254.209 291.655C253.986 290.137 255.115 288.364 254.178 286.982C253.26 285.626 251.949 284.576 250.943 283.294C249.973 282.06 249.598 280.832 249.05 279.381" stroke="white" stroke-width="3" stroke-linecap="round"/>
<path d="M253.171 280.836C251.867 278.613 250.642 277.684 248.226 277.343" stroke="white" stroke-width="3" stroke-linecap="round"/>
<path d="M92.7348 481.99C92.5717 482.216 92.0114 483.341 91.5444 482.912C90.9091 482.329 91.5066 482.49 91.8496 482.573C96.0412 483.582 101.155 482.59 105.372 482.217C106.592 482.109 110.105 480.989 111.385 481.764C113.062 482.779 106.883 484.815 106.364 484.853C104.233 485.01 102.036 484.895 99.908 484.837C97.4141 484.769 92.1905 485.49 90.0182 483.672C89.6409 483.357 89.7575 482.539 89.8961 482.152C90.4464 480.615 93.4551 481.38 94.3831 481.441C98.2365 481.693 102.06 481.812 105.921 481.699C107.687 481.648 110.271 481.018 112.057 481.602C113.188 481.972 112.819 481.253 113.064 479.953" stroke="white" stroke-width="3" stroke-linecap="round"/>
<path d="M110.592 485.484C111.035 484.787 111.491 484.116 111.965 483.446" stroke="white" stroke-width="3" stroke-linecap="round"/>
<path d="M202.897 481.699C204.339 482.381 205.305 483.517 206.621 484.384C207.281 484.818 210.14 484.83 208.91 483.526C208.135 482.705 211.112 482.972 211.459 482.928C213.43 482.677 213.63 482.571 215.565 482.2C216.072 482.103 216.578 481.988 217.091 481.925C217.203 481.912 217.53 481.926 217.427 481.974C217.08 482.136 216.701 482.212 216.328 482.281C213.427 482.82 210.439 482.999 207.506 482.702C207.445 482.695 207.263 482.69 207.323 482.702C208.92 483.013 210.541 483.259 212.161 483.381C213.43 483.476 219.098 484.128 219.96 482.508C220.311 481.848 218.568 482.096 217.854 482.087C214.547 482.045 211.223 482.456 207.918 482.168C204.06 481.832 207.605 481.252 209.063 481.408C213.453 481.879 218.197 483.597 222.616 482.605C223.412 482.426 223.361 482.184 222.951 482.443C222.569 482.685 222.295 483.31 221.853 483.252C221.409 483.193 222.323 482.445 222.524 482.022C223.005 481.011 222.944 480.507 222.738 479.467C222.53 478.422 225.791 477.946 225.393 480.793C224.927 484.137 225.337 479.033 224.875 478.788" stroke="white" stroke-width="3" stroke-linecap="round"/>
<path d="M218.556 483.155C220.748 481.243 223.663 480.364 225.699 478.206C226.773 477.068 225.764 481.271 225.699 481.7" stroke="white" stroke-width="3" stroke-linecap="round"/>
<path d="M66.3619 281.127C61.9137 277.365 58.9011 276.075 53.6638 279.866C49.0581 283.199 46.6477 288.058 50.764 292.642C53.0358 295.172 56.1798 297.016 58.1204 299.758" stroke="black" stroke-width="3" stroke-linecap="round"/>
<path d="M243.281 274.723C250.876 271.074 260.9 282.508 257.261 290.572C255.923 293.536 252.71 295.857 250.423 298.011" stroke="black" stroke-width="3" stroke-linecap="round"/>
<path d="M100.976 470.346C95.2124 472.425 89.9882 477.015 87.1184 482.831C83.2422 490.686 94.5408 492.437 99.4197 492.664C107.467 493.037 113.054 487.053 116.91 480.243" stroke="black" stroke-width="3" stroke-linecap="round"/>
<path d="M197.128 476.75C201 481.939 206.316 489.193 212.634 490.917C218.263 492.453 225.215 491.021 227.591 484.836C229.131 480.829 228.413 474.283 225.638 470.993C222.981 467.843 218.405 467.412 214.71 466.853" stroke="black" stroke-width="3" stroke-linecap="round"/>
<path d="M108.028 192.081C105.599 194.493 104.438 199.238 103.901 202.921C103.782 203.736 104.2 204.544 104.959 204.865C109.555 206.804 112.331 204.928 111.904 198.711C111.83 197.632 110.418 189.706 108.028 192.081Z" stroke="black" stroke-width="3" stroke-linecap="round"/>
<path d="M197.25 191.725C193.946 191.301 192.113 199.097 191.659 201.792C191.641 201.897 191.633 202.003 191.637 202.109C191.816 206.569 199.346 205.706 200.272 202.076C200.878 199.702 200.532 192.147 197.25 191.725Z" stroke="black" stroke-width="3" stroke-linecap="round"/>
<path d="M85.0427 239.208C66.6084 234.826 47.7327 233.856 29 231.639" stroke="black" stroke-width="3" stroke-linecap="round"/>
<path d="M80.0979 247.941C69.3272 246.639 59.0274 247.591 48.2305 247.941" stroke="black" stroke-width="3" stroke-linecap="round"/>
<path d="M218.007 234.55C235.964 228.366 254.821 227.323 273.5 225.817" stroke="black" stroke-width="3" stroke-linecap="round"/>
<path d="M219.105 245.03C228.272 243.797 237.365 243.319 246.577 242.701" stroke="black" stroke-width="3" stroke-linecap="round"/>
<path d="M142.734 259.294C146.245 258.34 148.724 257.63 150.869 254.345C151.449 253.457 151.656 251.606 152.67 251.725C153.918 251.872 154.585 253.449 155.554 254.297C157.657 256.136 160.022 257.547 162.788 257.547" stroke="black" stroke-width="3" stroke-linecap="round"/>
<ellipse cx="20.655" cy="13.147" rx="20.655" ry="13.147" transform="matrix(0.992992 -0.118179 0.1054 0.99443 80.8105 247.635)" fill="#FBA094"/>
<ellipse cx="20.689" cy="13.1276" rx="20.689" ry="13.1276" transform="matrix(0.977782 0.209624 -0.187542 0.982257 182.272 239.79)" fill="#FBA094"/>
<path d="M154.099 231.362L149.934 231.295C126.294 220.649 99.6202 219.248 91.5335 227.594C91.2744 227.862 91.2195 228.267 91.3623 228.612C104.566 260.484 133.854 256.488 151.876 241.166C178.466 259.997 193.343 258.947 213.935 231.111C214.333 230.574 214.096 229.79 213.466 229.567C191.751 221.897 181.477 219.574 154.099 231.362Z" fill="#1E1E1E" stroke="black" stroke-width="3"/>
<path d="M100.427 234.55C103.222 238.984 106.212 241.701 109.492 243.283" stroke="white" stroke-width="3" stroke-linecap="round"/>
<path d="M116.361 247.359L118.833 247.65" stroke="white" stroke-width="3" stroke-linecap="round"/>
<path d="M197.127 229.621C199.49 230.335 201.863 231.001 204.239 231.671" stroke="white" stroke-width="3" stroke-linecap="round"/>
<path d="M208.117 378.939C208.117 416.56 182.361 438.324 152.624 438.324C122.886 438.324 94.9326 416.56 94.9326 378.939C94.9326 341.318 122.886 312.566 152.624 312.566C182.361 312.566 208.117 341.318 208.117 378.939Z" fill="#ECECEC"/>
<path d="M272 390.511C277.042 369.803 283.31 350.064 291.222 330.311C292.742 326.516 305.73 285.705 315.944 287.485C324.359 288.952 326.982 307.826 327.611 313.75C329.603 332.502 325.55 350.482 317.444 367.152C303.83 395.152 280.404 419.898 259.5 441.763" stroke="black" stroke-width="3" stroke-linecap="round"/>
<path d="M69 157C50.6202 136.897 28.8823 123.914 7 108" stroke="#FFCE70" stroke-width="3" stroke-linecap="round"/>
<path d="M132 146C129.682 123.943 126.804 101.997 124 80" stroke="#FFCE70" stroke-width="3" stroke-linecap="round"/>
<path d="M198 147C207.218 120.396 221.685 97.6725 235 73" stroke="#FFCE70" stroke-width="3" stroke-linecap="round"/>
<path d="M250 153C265.739 139.032 284.594 128.662 302 117" stroke="#FFCE70" stroke-width="3" stroke-linecap="round"/>
<path d="M75 111C70.484 99.586 65.7979 88.2891 61 77" stroke="#FFCE70" stroke-width="3" stroke-linecap="round"/>
<path d="M261 94C272.793 81.2816 286.487 71.7714 300 61" stroke="#FFCE70" stroke-width="3" stroke-linecap="round"/>
<path d="M171.5 75.4999C176.199 68.2634 178.745 59.6077 183.722 52.611C184.407 51.6481 185.435 50.9357 186.167 49.9999C186.619 49.4211 186.888 47.6296 187.389 48.1665C188 48.8218 188.293 53.9013 188.333 54.1665C188.988 58.4354 189.677 62.7043 190.5 66.9443C190.995 69.4952 192.103 72.3579 192.222 74.9721C192.29 76.4726 189.265 74.2705 187.944 73.5554C181.602 70.122 173.972 67.9811 168 63.9999C167.081 63.387 170.121 63.3174 171.222 63.2221C176.914 62.7291 182.63 62.4488 188.333 62.111C190.491 61.9831 196.056 60.8846 198.444 61.6388C200.162 62.1813 195.18 63.1649 193.555 63.9443C186.212 67.4676 179.287 71.8562 172 75.4999" stroke="#FFCE70" stroke-width="3" stroke-linecap="round"/>
<path d="M96.5001 138.5C97.1643 131.775 96.6601 123.895 98.3334 117.333C99.0223 114.632 105.966 124.645 106.75 125.667C108.073 127.39 109.781 129.166 110.722 131.167C112.535 135.019 109.172 133.929 106.306 133.306C104.914 133.003 91.2638 130.685 91.6945 128.806C92.2065 126.572 95.4807 126.197 97.5279 125.167C101.219 123.309 104.95 121.508 108.778 119.944C112.819 118.294 107.11 124.061 106.528 124.917C103.47 129.412 100.56 134.013 97.5001 138.5" stroke="#FFCE70" stroke-width="3" stroke-linecap="round"/>
<path d="M85.5 51.9999C83.8183 56.7086 89.899 55.3559 89.5556 52.3333C89.2484 49.6306 86.2525 50.1494 84.5 50.4999" stroke="#FFCE70" stroke-width="3" stroke-linecap="round"/>
<path d="M261 39.5002C260.672 41.4675 267.826 41.6164 265.583 38.3057C264.872 37.2561 263.543 36.6646 262.333 36.4446C260.366 36.0869 260.836 36.8258 260.5 38.0002" stroke="#FFCE70" stroke-width="3" stroke-linecap="round"/>
<path d="M17.5002 63.5001C17.7866 58.1738 16.2747 51.7164 17.9446 46.6112C19.3583 42.2894 27.7364 52.9324 27.8613 55.2223C27.9949 57.671 18.3273 55.7011 17.1946 55.5556C15.9064 55.3901 14.3861 55.1739 13.0558 55.0556C12.4445 55.0013 11.4503 55.4587 11.2224 54.8889C10.9209 54.1352 17.8708 50.8175 17.9446 50.7778C18.8039 50.3168 28.6768 44.6925 27.8891 46.9167C25.7262 53.0236 21.0559 58.6665 17.5002 64.0001" stroke="#FFCE70" stroke-width="3" stroke-linecap="round"/>
<path d="M129.5 5.5C127.474 8.42677 129.594 15.1337 133.083 10.6111C135.728 7.18228 132.603 5 129.5 5" stroke="#FFCE70" stroke-width="3" stroke-linecap="round"/>
<path d="M181 133.5C178.213 137.481 186.474 140.074 185.889 134.889C185.599 132.32 182.922 133 181 133" stroke="#FFCE70" stroke-width="3" stroke-linecap="round"/>
<path d="M64 154C45.6202 133.897 23.8823 120.914 2 105" stroke="black" stroke-width="3" stroke-linecap="round"/>
<path d="M127 143C124.682 120.943 121.804 98.9973 119 77" stroke="black" stroke-width="3" stroke-linecap="round"/>
<path d="M193 144C202.218 117.396 216.685 94.6725 230 70" stroke="black" stroke-width="3" stroke-linecap="round"/>
<path d="M245 150C260.739 136.032 279.594 125.662 297 114" stroke="black" stroke-width="3" stroke-linecap="round"/>
<path d="M70 108C65.484 96.586 60.7979 85.2891 56 74" stroke="black" stroke-width="3" stroke-linecap="round"/>
<path d="M256 91C267.793 78.2816 281.487 68.7714 295 58" stroke="black" stroke-width="3" stroke-linecap="round"/>
<path d="M166.5 72.4999C171.199 65.2634 173.745 56.6077 178.722 49.611C179.407 48.6481 180.435 47.9357 181.167 46.9999C181.619 46.4211 181.888 44.6296 182.389 45.1665C183 45.8218 183.293 50.9013 183.333 51.1665C183.988 55.4354 184.677 59.7043 185.5 63.9443C185.995 66.4952 187.103 69.3579 187.222 71.9721C187.29 73.4726 184.265 71.2705 182.944 70.5554C176.602 67.122 168.972 64.9811 163 60.9999C162.081 60.387 165.121 60.3174 166.222 60.2221C171.914 59.7291 177.63 59.4488 183.333 59.111C185.491 58.9831 191.056 57.8846 193.444 58.6388C195.162 59.1813 190.18 60.1649 188.555 60.9443C181.212 64.4676 174.287 68.8562 167 72.4999" stroke="black" stroke-width="3" stroke-linecap="round"/>
<path d="M91.5001 135.5C92.1643 128.775 91.6601 120.895 93.3334 114.333C94.0223 111.632 100.966 121.645 101.75 122.667C103.073 124.39 104.781 126.166 105.722 128.167C107.535 132.019 104.172 130.929 101.306 130.306C99.9143 130.003 86.2638 127.685 86.6945 125.806C87.2065 123.572 90.4807 123.197 92.5279 122.167C96.2193 120.309 99.9504 118.508 103.778 116.944C107.819 115.294 102.11 121.061 101.528 121.917C98.4698 126.412 95.5596 131.013 92.5001 135.5" stroke="black" stroke-width="3" stroke-linecap="round"/>
<path d="M80.5 48.9999C78.8183 53.7086 84.899 52.3559 84.5556 49.3333C84.2484 46.6306 81.2525 47.1494 79.5 47.4999" stroke="black" stroke-width="3" stroke-linecap="round"/>
<path d="M256 36.5002C255.672 38.4675 262.826 38.6164 260.583 35.3057C259.872 34.2561 258.543 33.6646 257.333 33.4446C255.366 33.0869 255.836 33.8258 255.5 35.0002" stroke="black" stroke-width="3" stroke-linecap="round"/>
<path d="M12.5002 60.5001C12.7866 55.1738 11.2747 48.7164 12.9446 43.6112C14.3583 39.2894 22.7364 49.9324 22.8613 52.2223C22.9949 54.671 13.3273 52.7011 12.1946 52.5556C10.9064 52.3901 9.38612 52.1739 8.05576 52.0556C7.44454 52.0013 6.45032 52.4587 6.22242 51.8889C5.92093 51.1352 12.8708 47.8175 12.9446 47.7778C13.8039 47.3168 23.6768 41.6925 22.8891 43.9167C20.7262 50.0236 16.0559 55.6665 12.5002 61.0001" stroke="black" stroke-width="3" stroke-linecap="round"/>
<path d="M124.5 2.5C122.474 5.42677 124.594 12.1337 128.083 7.61111C130.728 4.18228 127.603 2 124.5 2" stroke="black" stroke-width="3" stroke-linecap="round"/>
<path d="M176 130.5C173.213 134.481 181.474 137.074 180.889 131.889C180.599 129.32 177.922 130 176 130" stroke="black" stroke-width="3" stroke-linecap="round"/>
</svg>
