<svg width="378" height="351" viewBox="0 0 378 351" fill="none" xmlns="http://www.w3.org/2000/svg">
<path d="M120.538 49.278C90.3005 103.714 80.3904 135.214 68.6081 189.772C68.2234 191.553 68.8672 193.444 70.246 194.636C145.65 259.81 181.747 280.568 291.19 338.001C293.358 339.139 296.1 338.581 297.374 336.491C319.689 299.876 316.96 194.424 280.803 69.627C280.712 69.3152 280.652 68.9921 280.622 68.6689C278.905 50.0767 272.776 32.1799 262.659 14.4242C261.288 12.0188 258.185 11.271 255.843 12.7464C240.346 22.5067 232.739 29.1902 228.693 38.9157C227.666 41.3853 225.071 42.9364 222.466 42.3284C202.811 37.7412 191.047 35.9738 176.508 37.7066C174.591 37.9351 172.689 37.0987 171.601 35.5039C161.569 20.8005 154.171 12.5297 136.948 6.2522C134.503 5.361 131.815 6.62783 130.852 9.04544C124.509 24.9641 122.04 34.192 121.172 47.1246C121.122 47.8751 120.903 48.6205 120.538 49.278Z" fill="white" stroke="black" stroke-width="3"/>
<path d="M146.889 34.3693C142.821 28.0014 138.012 34.4186 136.798 38.7285C136.872 43.2244 139.377 43.2085 143.694 41.9149C146.909 40.9513 148.946 37.5882 146.889 34.3693Z" stroke="black" stroke-width="3" stroke-linecap="round"/>
<path d="M258.782 42.4296C255.189 34.2082 247 38.5 244.5 44C246.409 48.9155 249.508 49.747 254.857 48.8873C258.367 48.3231 260.336 45.9868 258.782 42.4296Z" stroke="black" stroke-width="3" stroke-linecap="round"/>
<path d="M263.935 94.1779C290.465 84.7478 318.375 84.5903 346.04 81.0733" stroke="black" stroke-width="3" stroke-linecap="round"/>
<path d="M269.563 102.747C285.692 103.644 301.35 107.302 317.246 110.007" stroke="black" stroke-width="3" stroke-linecap="round"/>
<path d="M128.254 75.372C112.964 69.744 97.2208 65.4649 81.6685 60.6702" stroke="black" stroke-width="3" stroke-linecap="round"/>
<path d="M115.645 87.3345C99.1338 86.1186 82.7754 86.3915 66.2351 86.2904" stroke="black" stroke-width="3" stroke-linecap="round"/>
<path d="M150.809 75.0014C153.616 75.6101 155.387 76.8714 157.58 78.8085C158.405 79.5377 163.082 83.2142 163.031 84.8372C162.966 86.9021 158.989 84.3162 156.986 83.9397C154.124 83.4016 151.375 83.3469 148.503 83.0823" stroke="black" stroke-width="3" stroke-linecap="round"/>
<path d="M212.605 87.5971C217.567 81.8721 222.808 81.3774 229.532 78.6572" stroke="black" stroke-width="3" stroke-linecap="round"/>
<path d="M211.406 88.8542L221.749 87.4469" stroke="black" stroke-width="3" stroke-linecap="round"/>
<path d="M184.146 99.8201C180.477 105.499 172.36 105.165 166.579 106.914" stroke="black" stroke-width="3" stroke-linecap="round"/>
<path d="M182.977 102.933C186.367 106.483 190.259 107.666 194.662 108.928" stroke="black" stroke-width="3" stroke-linecap="round"/>
<path d="M360.981 231.657L62.6508 99.8908L20.2275 95.2247L46.9479 125.547L348.709 265.158C359.604 254.778 362.39 247.491 360.981 231.657Z" fill="white" stroke="black" stroke-width="3"/>
<path d="M55.0347 113.367L347.843 245.148" stroke="black" stroke-width="3"/>
<path d="M348.102 265.092C344.102 257.252 348.288 244.111 353.764 237.778C355.286 236.019 357.408 234.98 358.959 233.301" stroke="black" stroke-width="3" stroke-linecap="round"/>
<path d="M30.0542 106.263C31.4539 103.708 32.9217 101.36 34.5359 98.9766" stroke="black" stroke-width="3" stroke-linecap="round"/>
<path d="M30.7302 100.114C29.2546 100.046 29.1137 100.095 28.9656 101.441C28.7867 103.068 25.4139 100.727 25.4329 99.635C25.4517 98.5553 29.7631 99.3732 30.4425 99.3216C31.0897 99.2725 31.4799 98.7982 32.1114 98.71" stroke="black" stroke-width="3" stroke-linecap="round"/>
<path d="M31.1988 107.011C33.0885 104.406 33.771 101.374 34.9067 98.3951" stroke="black" stroke-width="3" stroke-linecap="round"/>
<path d="M48.534 126.966L47.6248 117.251C47.527 116.206 48.254 115.263 49.2898 115.092L53.3571 114.419C54.4142 114.244 55.1457 113.267 55.016 112.204L54.1962 105.48C54.0863 104.578 54.5975 103.716 55.4412 103.38L63.863 100.024" stroke="black" stroke-width="3"/>
<path d="M203.501 160.503C204.837 161.089 205.683 161.343 206.815 162.285C207.76 163.071 207.736 163.952 208.455 164.73C208.923 165.237 210.877 166.023 210.252 165.74C208.453 164.926 206.666 164.139 204.763 163.598C204.17 163.429 202.498 163.065 203.074 162.841C204.811 162.168 206.833 162.609 208.56 162.995C210.835 163.504 212.174 163.707 212.734 166.099C212.871 166.685 212.627 167.332 212.808 167.905C213.075 168.75 214.504 167.213 214.643 167.018C215.001 166.518 214.175 167.019 214.328 166.482C214.454 166.039 215.421 163.948 214.746 163.607C214.468 163.466 214.133 163.722 213.837 163.818C211.572 164.553 211.642 164.938 208.879 164.898C206.23 164.859 203.96 164.012 201.937 162.336C200.977 161.541 200.871 161.535 202.008 161.376C206.252 160.783 210.455 159.953 214.681 159.243" stroke="white" stroke-width="3" stroke-linecap="round"/>
<path d="M202.189 158.491C200.735 160.117 200.082 162.132 199.122 164.066" stroke="white" stroke-width="3" stroke-linecap="round"/>
<path d="M217.371 165.451C217.063 165.935 216.563 166.205 216.262 166.712C215.618 167.798 215.869 168.927 215.802 170.119C215.685 172.186 215.848 171.735 216.34 170.178C216.642 169.227 217.582 168.165 218.452 167.714C219.425 167.208 218.484 169.038 218.226 169.141C217.615 169.386 218.681 167.379 219.329 167.482C219.969 167.584 219.082 169.507 219.053 169.682" stroke="white" stroke-width="3" stroke-linecap="round"/>
<path d="M209.602 146.86C203.957 151.758 197.881 157.463 199.016 165.371C199.685 170.032 206.65 171.135 210.894 171.099C216.306 171.053 221.847 169.457 225.502 165.922" stroke="black" stroke-width="3" stroke-linecap="round"/>
<path d="M150 173.5L151.25 172.5" stroke="white" stroke-width="3" stroke-linecap="round"/>
<path d="M137.75 168C140.572 169.32 143.483 170.414 146.333 171.667C147.814 172.317 151.906 174.897 150.653 173.875C148.545 172.155 146.203 170.732 143.806 169.458C142.699 168.87 141.009 168.052 139.847 167.486C139.38 167.258 137.871 166.271 137.167 166.472C136.65 166.62 136.269 167.829 136.889 168.083C140.802 169.69 144.729 171.361 148.667 172.944C150.133 173.534 147.546 173.538 147.389 173.542C144.583 173.605 143.082 173.381 140.431 172.125C138.401 171.163 136.771 169.911 135.431 168.139C134.256 166.586 134.936 166.474 135 165" stroke="white" stroke-width="3" stroke-linecap="round"/>
<path d="M152.606 175.176C149.952 169.304 145.624 165.183 139.086 163.939C134.649 163.095 131.67 165.247 130.442 169.419C128.503 176.004 130.561 182.967 132.026 189.405" stroke="black" stroke-width="3" stroke-linecap="round"/>
<path d="M24.0066 96.8626C24.759 97.5703 25.4663 98.1082 26.2983 98.6648" stroke="black" stroke-width="3" stroke-linecap="round"/>
<path d="M28.1502 103.939C29.7286 103.793 30.023 102.47 30.5112 101.214" stroke="black" stroke-width="3" stroke-linecap="round"/>
<path d="M27.9119 97.8612C27.3213 98.0841 26.8395 98.3566 26.2982 98.6648" stroke="black" stroke-width="3" stroke-linecap="round"/>
<path d="M355.28 244.91C354.075 246.584 353.132 247.79 352.645 249.798C352.29 251.262 351.615 253.804 353.655 251.55C355.354 249.673 354.927 247.699 355.217 245.406" stroke="black" stroke-width="3" stroke-linecap="round"/>
<ellipse cx="234.399" cy="118.705" rx="17" ry="14.5" transform="rotate(16.378 234.399 118.705)" fill="#FBA094"/>
<ellipse cx="133" cy="105.5" rx="17" ry="14.5" fill="#FBA094"/>
<path d="M339.667 284.722C327.51 293.171 316.764 302.981 306 313C304.404 321.78 299.605 329.974 296.778 338.389C296.745 341.238 303.653 344.566 305.694 344.611C315.037 342.637 324.78 339.489 333.472 335.583C345.319 330.26 359.462 321.567 365.361 309.444C368.121 303.774 369.018 297.526 369.167 291.278C369.261 287.348 370.014 279.09 365.806 276.5C358.33 271.899 344.724 281.208 339.667 284.722Z" fill="white" stroke="black" stroke-width="3" stroke-linecap="round"/>
</svg>
