<svg width="378" height="351" viewBox="0 0 378 351" fill="none" xmlns="http://www.w3.org/2000/svg">
<path d="M120.538 49.4271C90.3005 103.863 80.3904 135.363 68.6081 189.921C68.2234 191.703 68.8672 193.594 70.246 194.785C145.65 259.959 181.747 280.717 291.19 338.15C293.358 339.288 296.1 338.73 297.374 336.64C319.689 300.025 316.96 194.573 280.803 69.7761C280.712 69.4643 280.652 69.1412 280.622 68.818C278.905 50.2258 272.776 32.329 262.659 14.5733C261.288 12.1679 258.185 11.4201 255.843 12.8955C240.346 22.6558 232.739 29.3393 228.693 39.0648C227.666 41.5344 225.071 43.0855 222.466 42.4775C202.811 37.8902 191.047 36.1229 176.508 37.8557C174.591 38.0841 172.689 37.2478 171.601 35.653C161.569 20.9496 154.171 12.6788 136.948 6.40129C134.503 5.5101 131.815 6.77692 130.852 9.19454C124.509 25.1132 122.04 34.3411 121.172 47.2737C121.122 48.0242 120.903 48.7695 120.538 49.4271Z" fill="white" stroke="black" stroke-width="3"/>
<path d="M146.889 34.5184C142.821 28.1505 138.012 34.5677 136.798 38.8776C136.872 43.3735 139.377 43.3576 143.694 42.064C146.909 41.1004 148.946 37.7373 146.889 34.5184Z" stroke="black" stroke-width="3" stroke-linecap="round"/>
<path d="M258.782 42.5787C255.189 34.3573 247 38.6491 244.5 44.1491C246.409 49.0646 249.508 49.8961 254.857 49.0364C258.367 48.4722 260.336 46.1359 258.782 42.5787Z" stroke="black" stroke-width="3" stroke-linecap="round"/>
<path d="M263.935 94.327C290.465 84.897 318.375 84.7394 346.04 81.2224" stroke="black" stroke-width="3" stroke-linecap="round"/>
<path d="M269.563 102.896C285.692 103.793 301.35 107.451 317.246 110.156" stroke="black" stroke-width="3" stroke-linecap="round"/>
<path d="M128.254 75.5212C112.964 69.8932 97.2208 65.614 81.6685 60.8193" stroke="black" stroke-width="3" stroke-linecap="round"/>
<path d="M115.645 87.4836C99.1338 86.2677 82.7754 86.5406 66.2351 86.4395" stroke="black" stroke-width="3" stroke-linecap="round"/>
<path d="M150.809 75.1505C153.616 75.7592 155.387 77.0205 157.58 78.9576C158.405 79.6868 163.082 83.3633 163.031 84.9863C162.966 87.0512 158.989 84.4653 156.986 84.0888C154.124 83.5507 151.375 83.496 148.503 83.2315" stroke="black" stroke-width="3" stroke-linecap="round"/>
<path d="M212.605 87.7463C217.567 82.0212 222.808 81.5265 229.532 78.8063" stroke="black" stroke-width="3" stroke-linecap="round"/>
<path d="M211.406 89.0033L221.749 87.596" stroke="black" stroke-width="3" stroke-linecap="round"/>
<path d="M184.146 99.9692C180.477 105.649 172.36 105.314 166.579 107.064" stroke="black" stroke-width="3" stroke-linecap="round"/>
<path d="M182.977 103.082C186.367 106.632 190.259 107.815 194.662 109.077" stroke="black" stroke-width="3" stroke-linecap="round"/>
<path d="M360.981 231.806L62.6508 100.04L20.2275 95.3738L46.9479 125.696L348.709 265.307C359.604 254.927 362.39 247.64 360.981 231.806Z" fill="white" stroke="black" stroke-width="3"/>
<path d="M55.0347 113.516L347.843 245.297" stroke="black" stroke-width="3"/>
<path d="M348.102 265.241C344.102 257.401 348.288 244.26 353.764 237.927C355.286 236.168 357.408 235.129 358.959 233.451" stroke="black" stroke-width="3" stroke-linecap="round"/>
<path d="M30.0542 106.412C31.4539 103.857 32.9217 101.509 34.5359 99.1257" stroke="black" stroke-width="3" stroke-linecap="round"/>
<path d="M30.7302 100.263C29.2546 100.195 29.1137 100.244 28.9656 101.59C28.7867 103.217 25.4139 100.876 25.4329 99.7841C25.4517 98.7044 29.7631 99.5223 30.4425 99.4707C31.0897 99.4216 31.4799 98.9473 32.1114 98.8591" stroke="black" stroke-width="3" stroke-linecap="round"/>
<path d="M31.1988 107.16C33.0885 104.555 33.771 101.523 34.9067 98.5442" stroke="black" stroke-width="3" stroke-linecap="round"/>
<path d="M48.534 127.115L47.6248 117.4C47.527 116.355 48.254 115.412 49.2898 115.241L53.3571 114.568C54.4142 114.393 55.1457 113.416 55.016 112.353L54.1962 105.629C54.0863 104.727 54.5975 103.865 55.4412 103.529L63.863 100.173" stroke="black" stroke-width="3"/>
<path d="M203.501 160.652C204.837 161.238 205.683 161.492 206.815 162.434C207.76 163.22 207.736 164.101 208.455 164.879C208.923 165.386 210.877 166.172 210.252 165.889C208.453 165.076 206.666 164.288 204.763 163.747C204.17 163.578 202.498 163.214 203.074 162.991C204.811 162.317 206.833 162.758 208.56 163.145C210.835 163.653 212.174 163.856 212.734 166.249C212.871 166.834 212.627 167.481 212.808 168.055C213.075 168.9 214.504 167.362 214.643 167.167C215.001 166.667 214.175 167.169 214.328 166.631C214.454 166.188 215.421 164.097 214.746 163.756C214.468 163.615 214.133 163.871 213.837 163.967C211.572 164.703 211.642 165.087 208.879 165.047C206.23 165.008 203.96 164.161 201.937 162.485C200.977 161.69 200.871 161.684 202.008 161.525C206.252 160.932 210.455 160.102 214.681 159.392" stroke="white" stroke-width="3" stroke-linecap="round"/>
<path d="M202.189 158.641C200.735 160.266 200.082 162.281 199.122 164.216" stroke="white" stroke-width="3" stroke-linecap="round"/>
<path d="M217.371 165.6C217.063 166.084 216.563 166.354 216.262 166.861C215.618 167.947 215.869 169.076 215.802 170.268C215.685 172.335 215.848 171.884 216.34 170.327C216.642 169.376 217.582 168.315 218.452 167.863C219.425 167.357 218.484 169.187 218.226 169.29C217.615 169.535 218.681 167.528 219.329 167.631C219.969 167.733 219.082 169.656 219.053 169.831" stroke="white" stroke-width="3" stroke-linecap="round"/>
<path d="M209.602 147.009C203.957 151.907 197.881 157.612 199.016 165.52C199.685 170.181 206.65 171.284 210.894 171.248C216.306 171.202 221.847 169.606 225.502 166.071" stroke="black" stroke-width="3" stroke-linecap="round"/>
<path d="M150 173.649L151.25 172.649" stroke="white" stroke-width="3" stroke-linecap="round"/>
<path d="M137.75 168.149C140.572 169.469 143.483 170.563 146.333 171.816C147.814 172.466 151.906 175.046 150.653 174.024C148.545 172.304 146.203 170.881 143.806 169.607C142.699 169.02 141.009 168.201 139.847 167.635C139.38 167.408 137.871 166.42 137.167 166.621C136.65 166.769 136.269 167.978 136.889 168.232C140.802 169.84 144.729 171.51 148.667 173.094C150.133 173.683 147.546 173.687 147.389 173.691C144.583 173.754 143.082 173.53 140.431 172.274C138.401 171.312 136.771 170.06 135.431 168.288C134.256 166.735 134.936 166.623 135 165.149" stroke="white" stroke-width="3" stroke-linecap="round"/>
<path d="M152.606 175.325C149.952 169.454 145.624 165.332 139.086 164.088C134.649 163.244 131.67 165.396 130.442 169.568C128.503 176.153 130.561 183.116 132.026 189.554" stroke="black" stroke-width="3" stroke-linecap="round"/>
<path d="M24.0066 97.0117C24.759 97.7194 25.4663 98.2573 26.2983 98.8139" stroke="black" stroke-width="3" stroke-linecap="round"/>
<path d="M28.1502 104.088C29.7286 103.942 30.023 102.619 30.5112 101.363" stroke="black" stroke-width="3" stroke-linecap="round"/>
<path d="M27.9119 98.0103C27.3213 98.2333 26.8395 98.5058 26.2982 98.8139" stroke="black" stroke-width="3" stroke-linecap="round"/>
<path d="M355.28 245.059C354.075 246.733 353.132 247.939 352.645 249.948C352.29 251.411 351.615 253.953 353.655 251.699C355.354 249.822 354.927 247.848 355.217 245.555" stroke="black" stroke-width="3" stroke-linecap="round"/>
<ellipse cx="234.399" cy="118.854" rx="17" ry="14.5" transform="rotate(16.378 234.399 118.854)" fill="#FBA094"/>
<ellipse cx="133" cy="105.649" rx="17" ry="14.5" fill="#FBA094"/>
<path d="M339.667 284.871C327.51 293.32 316.764 303.13 306 313.149C304.404 321.929 299.605 330.123 296.778 338.538C296.745 341.387 303.653 344.715 305.694 344.76C315.037 342.786 324.78 339.638 333.472 335.732C345.319 330.409 359.462 321.716 365.361 309.594C368.121 303.923 369.018 297.675 369.167 291.427C369.261 287.497 370.014 279.239 365.806 276.649C358.33 272.048 344.724 281.357 339.667 284.871Z" fill="white" stroke="black" stroke-width="3" stroke-linecap="round"/>
</svg>
