<svg width="254" height="272" viewBox="0 0 254 272" fill="none" xmlns="http://www.w3.org/2000/svg">
<path d="M113.937 27.5558C107.305 25.9793 102.469 25.4697 92.8429 27.6299C91.6614 27.8951 90.4257 27.4517 89.7026 26.4803C84.1629 19.0383 79.8462 13.8782 70.6709 4.91455C69.2718 3.5477 66.9344 3.92292 65.9762 5.62809C-4.30809 130.699 -7.07143 205.1 54.0142 257.757C54.9119 258.531 55.2779 259.778 55.0351 260.938C52.49 273.099 63.4855 271.033 70.5208 260.489C71.1105 259.606 72.0859 259.034 73.1483 259.034H131.73C132.972 259.034 134.074 259.805 134.578 260.94C141.447 276.4 151.043 268.724 151.501 262.431C151.637 260.565 152.174 258.229 153.816 257.331C234.344 213.293 210.927 114.154 138.238 3.38652C137.135 1.70615 134.707 1.55789 133.438 3.11702C127.12 10.8836 123.039 16.6398 117.253 26.177C116.567 27.3081 115.224 27.8618 113.937 27.5558Z" stroke="black" stroke-width="3"/>
<path d="M149.27 49.4887C170.181 40.5776 190.755 31.5276 213.397 28.5342" stroke="black" stroke-width="3" stroke-linecap="round"/>
<path d="M182.881 88.4993C182.032 84.6462 180.381 80.7166 178.791 77.118C178.624 76.7411 178.061 76.1792 178.655 76.4864C179.826 77.091 180.652 78.0238 181.37 79.1243C183.191 81.914 184.028 84.8193 184.429 88.0535" stroke="white" stroke-width="3" stroke-linecap="round"/>
<path d="M25.8818 91.8434C26.503 89.1206 27.3297 86.5459 28.7073 84.1155C28.7736 83.9986 27.5635 85.5653 27.5034 85.6388C27.2446 85.9553 26.4878 86.8403 26.2135 87.2611C26.1429 87.3694 26.4627 87.1624 26.5452 87.063C27.5894 85.8049 28.0877 83.6889 29.8621 83.422C31.1432 83.2292 30.5971 82.9988 29.8621 82.2578" stroke="white" stroke-width="3" stroke-linecap="round"/>
<path d="M25.2185 89.1684C25.1129 89.0408 25.5194 89.3059 25.6607 89.3914" stroke="white" stroke-width="3" stroke-linecap="round"/>
<path d="M156.788 59.2971C168.921 56.4096 181.108 53.2788 193.495 51.7178" stroke="black" stroke-width="3" stroke-linecap="round"/>
<path d="M60.3772 46.3671C41.645 40.478 21.7381 36.1128 2 36.1128" stroke="black" stroke-width="3" stroke-linecap="round"/>
<path d="M51.9746 55.7301C40.9925 54.2648 29.8639 54.2481 18.8057 53.9468" stroke="black" stroke-width="3" stroke-linecap="round"/>
<path d="M75.4141 29.8714C74.2848 28.657 68.8138 21.0986 67.257 22.837C66.4384 23.7511 63.0474 31.1568 64.3578 32.1997C65.9342 33.4543 71.1432 32.6281 73.0308 32.4969C74.9069 32.3665 75.4141 32.0463 75.4141 30.3172" stroke="black" stroke-width="3" stroke-linecap="round"/>
<path d="M127.6 28.5334C129.184 25.8122 132.014 23.5612 134.872 22.2917C138.273 20.7809 137.912 24.7558 137.943 26.973C138.031 33.0366 131.238 32.1032 128.484 28.5334" stroke="black" stroke-width="3" stroke-linecap="round"/>
<path d="M40.9183 81.589C36.1415 79.0886 33.0402 78.2789 28.1421 81.4404C24.9261 83.5161 21.4229 87.1971 24.211 90.9021C26.7753 94.3098 30.7219 96.3761 34.2845 98.531" stroke="black" stroke-width="3" stroke-linecap="round"/>
<path d="M174.036 78.468C175.529 76.7165 176.91 73.751 179.982 74.7031C183.573 75.816 186.732 81.1914 186.763 84.8088C186.798 88.8743 180.719 91.6533 178.016 93.6266" stroke="black" stroke-width="3" stroke-linecap="round"/>
<path d="M72.7603 53.9468C77.1362 54.4023 81.0768 54.9177 85.0942 56.8447C86.3256 57.4354 89.0806 59.4771 87.7968 59.9409C84.6644 61.0724 80.8965 60.9764 77.625 61.5261" stroke="black" stroke-width="3" stroke-linecap="round"/>
<path d="M127.6 49.0425C125.193 50.3038 116.115 53.7572 116.298 57.6621C116.389 59.6118 122.602 58.851 123.619 58.851" stroke="black" stroke-width="3" stroke-linecap="round"/>
<path d="M91.7773 82.035C95.0405 79.4201 97.9882 76.9061 99.6887 72.9695C100.27 71.625 99.8011 70.422 100.598 72.0283C102.671 76.2074 106.468 77.5765 110.794 77.5765" stroke="black" stroke-width="3" stroke-linecap="round"/>
<ellipse cx="13.2714" cy="9.36" rx="13.2714" ry="9.36" transform="matrix(0.981743 -0.190212 0.187269 0.982309 42.2451 65.6831)" fill="#FBA094"/>
<ellipse cx="13.2738" cy="9.35836" rx="13.2738" ry="9.35836" transform="matrix(0.970396 0.241521 -0.237869 0.971297 134.263 57.9595)" fill="#FBA094"/>
<ellipse cx="107.256" cy="165.407" rx="50.859" ry="58.4052" fill="#ECECEC"/>
<path d="M198.802 209.1C210.16 203.746 218.453 196.571 227.377 187.575C236.051 178.831 247.401 168.214 250.963 155.797C252.427 150.694 253.311 144.707 251.43 139.548C249.485 134.213 243.834 131.079 238.949 134.941C234.366 138.564 231.671 144.912 229.219 150.001C225.929 156.831 223.148 163.807 218.335 169.742C214.143 174.911 209.233 179.906 204.109 184.132" stroke="black" stroke-width="3" stroke-linecap="round"/>
<path d="M151.5 261.953C151.729 258.671 151.625 255.404 150 252.633" stroke="black" stroke-width="3" stroke-linecap="round"/>
<path d="M55 261.953C55.5708 259.077 56.7835 256.355 58.25 253.893" stroke="black" stroke-width="3" stroke-linecap="round"/>
</svg>
