<svg width="31" height="29" viewBox="0 0 31 29" fill="none" xmlns="http://www.w3.org/2000/svg">
<path d="M14.9892 11.6712C14.6402 10.7785 13.9604 10.0753 13.6488 9.14258C13.0849 7.4542 12.2738 6.12814 10.9794 4.85687C9.35235 3.25898 5.89362 2.35246 4.85857 4.94258C3.42236 8.53655 4.82271 13.2602 6.65683 16.4926C7.87322 18.6363 9.59241 19.9697 11.415 21.6461C12.746 22.8705 14.1679 24.1603 15.5923 25.2783C17.0564 26.4274 18.4908 23.5971 19.1218 22.7283C20.1051 21.3746 21.2391 20.1482 22.2157 18.7854C22.7246 18.0754 20.3994 21.6697 21.11 21.1426C22.8562 19.8472 23.9808 17.9052 25.0416 16.0961C26.9967 12.762 31.3882 3.76401 23.947 3.76401C20.6247 3.76401 19.9367 7.47348 17.1225 8.55329C14.8759 9.41531 13.3961 8.16776 11.3033 7.62115C10.6833 7.45922 8.92713 7.38022 8.4551 6.89258C8.14045 6.56754 9.37906 6.78356 9.8401 6.81758C10.9057 6.89621 11.7245 7.00784 12.7553 7.27829C13.806 7.55397 14.7625 8.12491 15.8157 8.37115C17.0413 8.65773 18.3362 8.27921 19.5351 8.08187C21.4807 7.7616 23.4627 7.42616 25.4437 7.40687C26.3781 7.39777 25.9606 7.54679 25.4213 7.66401C24.0897 7.95347 22.7409 8.16521 21.4004 8.41401C18.4518 8.96125 15.5106 9.54425 12.4872 9.46401C10.4376 9.40961 7.93565 9.15771 6.64566 7.41758C6.39019 7.07296 6.20622 6.64571 6.41111 7.47115C6.88223 9.36927 7.48742 11.2579 8.1982 13.0854C9.09473 15.3906 10.0742 17.8652 11.9958 19.5783C12.9952 20.4693 14.1657 21.1975 15.5141 21.4747C17.7479 21.9339 18.9663 19.6774 20.06 18.2069C21.2601 16.5935 22.5614 14.9399 23.5896 13.214C23.6858 13.0525 24.466 10.8836 23.5002 11.7569C21.9815 13.1301 20.7924 14.6141 19.066 15.8069C17.6605 16.7779 15.5909 18.1172 13.7494 17.4783C12.6213 17.0869 11.4093 16.0941 11.0129 14.9711C10.4523 13.383 12.4704 13.0377 13.5483 12.764C15.3856 12.2975 17.3015 11.856 19.1665 11.4997C22.1603 10.9277 18.9551 12.7678 18.2953 13.1712C17.6631 13.5577 15.2237 14.6278 15.2461 15.6783C15.2666 16.6423 17.1961 15.8748 17.0443 17.4033C16.9301 18.5535 15.8975 21.1919 17.6028 19.1926" stroke="#ECECEC" stroke-width="5" stroke-linecap="round"/>
<path d="M9.56152 11.4784C10.8111 11.9601 11.8883 12.4703 12.957 13.2677C13.85 13.9339 14.2073 14.3591 15.4143 14.1141C19.0417 13.3778 22.3685 11.7796 25.4443 9.93555" stroke="#ECECEC" stroke-width="5" stroke-linecap="round"/>
<path d="M15.927 6.36676C1.3606 -10.1331 -6.61661 15.5333 15.927 27.9999" stroke="black" stroke-width="2" stroke-linecap="round"/>
<path d="M15.9265 6.36676C30.4928 -10.1331 38.4702 15.5334 15.9266 28" stroke="black" stroke-width="2" stroke-linecap="round"/>
</svg>
