<svg width="31" height="29" viewBox="0 0 31 29" fill="none" xmlns="http://www.w3.org/2000/svg">
<path d="M13.6654 11.7998C13.3165 10.9072 12.6366 10.2039 12.3251 9.27124C11.7612 7.58287 10.9501 6.2568 9.65564 4.98553C8.02862 3.38764 4.56988 2.48112 3.53483 5.07124C2.09863 8.66521 3.49898 13.3889 5.3331 16.6212C6.54949 18.765 8.26868 20.0983 10.0912 21.7748C11.4223 22.9991 12.8442 24.289 14.2686 25.407C15.7327 26.556 17.167 23.7258 17.7981 22.857C18.7813 21.5033 19.9153 20.2768 20.892 18.9141C21.4009 18.2041 19.0757 21.7983 19.7862 21.2712C21.5324 19.9759 22.6571 18.0338 23.7178 16.2248C25.673 12.8906 30.0644 3.89267 22.6233 3.89267C19.301 3.89267 18.613 7.60214 15.7988 8.68196C13.5522 9.54397 12.0724 8.29642 9.97955 7.74981C9.35955 7.58788 7.6034 7.50888 7.13137 7.02124C6.81672 6.6962 8.05533 6.91222 8.51636 6.94624C9.58196 7.02487 10.4007 7.13651 11.4316 7.40696C12.4823 7.68263 13.4388 8.25357 14.492 8.49981C15.7176 8.78639 17.0125 8.40787 18.2114 8.21053C20.157 7.89026 22.139 7.55482 24.1199 7.53553C25.0543 7.52643 24.6369 7.67546 24.0976 7.79267C22.7659 8.08213 21.4172 8.29387 20.0766 8.54267C17.1281 9.08991 14.1868 9.67291 11.1635 9.59267C9.11384 9.53827 6.61191 9.28637 5.32193 7.54624C5.06646 7.20162 4.88249 6.77437 5.08737 7.59981C5.5585 9.49793 6.16369 11.3865 6.87447 13.2141C7.771 15.5193 8.75044 17.9939 10.672 19.707C11.6715 20.5979 12.842 21.3262 14.1904 21.6034C16.4242 22.0626 17.6425 19.806 18.7363 18.3355C19.9364 16.7221 21.2377 15.0686 22.2658 13.3427C22.3621 13.1811 23.1423 11.0122 22.1765 11.8855C20.6578 13.2588 19.4687 14.7427 17.7422 15.9355C16.3368 16.9066 14.2672 18.2459 12.4256 17.607C11.2975 17.2155 10.0856 16.2228 9.68915 15.0998C9.12853 13.5117 11.1467 13.1664 12.2246 12.8927C14.0619 12.4261 15.9778 11.9847 17.8428 11.6284C20.8366 11.0564 17.6313 12.8964 16.9716 13.2998C16.3394 13.6863 13.9 14.7565 13.9223 15.807C13.9428 16.771 15.8723 16.0035 15.7206 17.532C15.6064 18.6821 14.5738 21.3206 16.2791 19.3212" stroke="#FBA094" stroke-width="5" stroke-linecap="round"/>
<path d="M8.23779 11.6071C9.48733 12.0888 10.5645 12.599 11.6333 13.3964C12.5263 14.0626 12.8836 14.4878 14.0905 14.2428C17.718 13.5064 21.0448 11.9083 24.1206 10.0642" stroke="#FBA094" stroke-width="5" stroke-linecap="round"/>
<path d="M15.0735 6.36676C0.507088 -10.1331 -7.47012 15.5333 15.0735 27.9999" stroke="black" stroke-width="2" stroke-linecap="round"/>
<path d="M15.0729 6.36676C29.6393 -10.1331 37.6167 15.5334 15.0731 28" stroke="black" stroke-width="2" stroke-linecap="round"/>
</svg>
