<svg width="23" height="33" viewBox="0 0 23 33" fill="none" xmlns="http://www.w3.org/2000/svg">
<path d="M0 15.5186V27.0399C0 29.8013 2.23858 32.0399 5 32.0399H18C20.7614 32.0399 23 29.8013 23 27.0399V15.5186C23 12.7571 20.7614 10.5186 18 10.5186L5 10.5186C2.23858 10.5186 0 12.7571 0 15.5186Z" fill="black"/>
<path d="M9.32115 20.6168L9.13691 21.3513L9.04252 22.0724C8.84209 23.6038 10.0342 24.9621 11.5787 24.9621C13.1231 24.9621 14.3153 23.6038 14.1149 22.0724L14.0205 21.3513L13.9081 20.754C13.6992 19.6437 12.7294 18.8394 11.5996 18.8394C10.5224 18.8394 9.58325 19.572 9.32115 20.6168Z" fill="white"/>
<path d="M3.15063 8.58562V9.96575C3.15063 10.7913 3.81991 11.4606 4.6455 11.4606H4.96245C5.9629 11.4606 6.77392 10.6496 6.77392 9.64913V8.73074C6.77392 5.90312 9.06616 3.61088 11.8938 3.61088C14.7214 3.61088 17.0136 5.90312 17.0136 8.73074V9.8065C17.0136 10.72 17.7542 11.4606 18.6678 11.4606H18.827C19.6526 11.4606 20.3219 10.7913 20.3219 9.96575V8.58561C20.3219 3.84391 16.478 0 11.7363 0C6.99455 0 3.15063 3.84391 3.15063 8.58562Z" fill="black"/>
</svg>
