<svg width="390" height="552" viewBox="0 0 390 552" fill="none" xmlns="http://www.w3.org/2000/svg">
<path d="M257.954 20.0802C246.374 41.0252 242.318 53.5524 237.782 74.2449C237.392 76.0251 238.019 77.8892 239.401 79.0776C268.309 103.942 283.033 112.521 324.669 134.398C326.836 135.536 329.542 134.954 330.575 132.734C338.217 116.317 336.596 75.6694 322.809 27.9437C322.719 27.6318 322.659 27.3089 322.627 26.9859C321.991 20.533 320.032 14.2867 316.86 8.10313C315.596 5.63982 312.472 4.87436 310.178 6.42542C306.823 8.69513 304.617 10.6181 303.13 12.802C301.625 15.0131 299.095 16.6222 296.481 16.0545C290.968 14.8573 287.011 14.3474 282.673 14.6486C280.747 14.7823 278.86 13.9635 277.74 12.3905C274.723 8.15015 272.07 5.37388 267.43 3.22387C265.069 2.12975 262.349 3.43154 261.442 5.87086C259.71 10.5307 258.924 13.7991 258.592 17.9326C258.532 18.6824 258.318 19.422 257.954 20.0802Z" fill="white" stroke="black" stroke-width="2"/>
<path d="M268.883 13.4851C267.247 10.9247 265.314 13.5049 264.825 15.2379C264.855 17.0456 265.862 17.0392 267.598 16.5191C268.891 16.1316 269.71 14.7794 268.883 13.4851Z" stroke="black" stroke-width="2" stroke-linecap="round"/>
<path d="M313.873 16.7265C312.429 13.4208 309.136 15.1464 308.131 17.3579C308.899 19.3344 310.145 19.6687 312.295 19.323C313.707 19.0962 314.499 18.1568 313.873 16.7265Z" stroke="black" stroke-width="2" stroke-linecap="round"/>
<path d="M315.945 37.5328C326.613 33.7411 337.835 33.6778 348.959 32.2637" stroke="black" stroke-width="2" stroke-linecap="round"/>
<path d="M318.208 40.9792C324.693 41.3396 330.989 42.8107 337.381 43.8981" stroke="black" stroke-width="2" stroke-linecap="round"/>
<path d="M261.39 29.973C255.242 27.7101 248.912 25.9895 242.658 24.0616" stroke="black" stroke-width="2" stroke-linecap="round"/>
<path d="M256.32 34.7819C249.681 34.293 243.104 34.4028 236.453 34.3621" stroke="black" stroke-width="2" stroke-linecap="round"/>
<path d="M270.459 29.8223C271.588 30.067 272.3 30.5742 273.182 31.353C273.513 31.6462 275.394 33.1245 275.374 33.7771C275.347 34.6073 273.748 33.5676 272.943 33.4162C271.792 33.1999 270.687 33.1778 269.532 33.0715" stroke="black" stroke-width="2" stroke-linecap="round"/>
<path d="M295.306 34.8873C297.301 32.5854 299.409 32.3865 302.112 31.2927" stroke="black" stroke-width="2" stroke-linecap="round"/>
<path d="M294.824 35.3941L298.982 34.8282" stroke="black" stroke-width="2" stroke-linecap="round"/>
<path d="M283.863 39.8022C282.388 42.0858 279.125 41.9511 276.8 42.6547" stroke="black" stroke-width="2" stroke-linecap="round"/>
<path d="M283.393 41.0542C284.756 42.4817 286.321 42.9575 288.091 43.4647" stroke="black" stroke-width="2" stroke-linecap="round"/>
<path d="M354.966 92.811L235.011 39.8298L217.954 37.9536L228.698 50.1457L350.031 106.281C354.412 102.108 355.532 99.1778 354.966 92.811Z" fill="white" stroke="black" stroke-width="2"/>
<path d="M231.949 45.2485L349.683 98.2357" stroke="black" stroke-width="2"/>
<path d="M349.787 106.255C348.179 103.102 349.862 97.8185 352.064 95.2722C352.676 94.5649 353.529 94.147 354.153 93.4723" stroke="black" stroke-width="2" stroke-linecap="round"/>
<path d="M221.905 42.3925C222.468 41.3652 223.058 40.421 223.707 39.4628" stroke="black" stroke-width="2" stroke-linecap="round"/>
<path d="M222.176 39.92C221.583 39.8925 221.526 39.9123 221.467 40.4536C221.395 41.1077 220.039 40.1665 220.046 39.7274C220.054 39.2933 221.788 39.6221 222.061 39.6014C222.321 39.5816 222.478 39.391 222.732 39.3555" stroke="black" stroke-width="2" stroke-linecap="round"/>
<path d="M222.365 42.6927C223.125 41.645 223.399 40.4259 223.856 39.2282" stroke="black" stroke-width="2" stroke-linecap="round"/>
<path d="M229.335 50.7161L229.046 47.6236C228.964 46.7449 229.575 45.9523 230.446 45.8083V45.8083C231.334 45.6613 231.949 44.8402 231.84 43.9462L231.724 42.9915C231.614 42.09 232.125 41.2276 232.969 40.8914L235.499 39.8832" stroke="black" stroke-width="2"/>
<path d="M291.645 64.2012C292.182 64.4368 292.523 64.5389 292.978 64.9177C293.358 65.2337 293.348 65.588 293.637 65.9008C293.825 66.1047 294.611 66.4208 294.36 66.307C293.637 65.9799 292.918 65.6632 292.153 65.4456C291.914 65.3778 291.242 65.2313 291.474 65.1415C292.172 64.8709 292.985 65.0481 293.68 65.2034C294.594 65.4081 295.132 65.4897 295.358 66.4515C295.413 66.6871 295.315 66.9472 295.387 67.1777C295.495 67.5175 296.07 66.8993 296.125 66.821C296.269 66.6197 295.937 66.8214 295.998 66.6054C296.049 66.4273 296.438 65.5863 296.167 65.4492C296.055 65.3928 295.92 65.4954 295.801 65.5341C294.891 65.8299 294.919 65.9844 293.808 65.9683C292.743 65.9528 291.83 65.6121 291.016 64.9383C290.63 64.6186 290.588 64.6161 291.045 64.5522C292.752 64.3137 294.441 63.98 296.141 63.6947" stroke="white" stroke-width="2" stroke-linecap="round"/>
<path d="M291.118 63.3924C290.533 64.0459 290.271 64.856 289.885 65.634" stroke="white" stroke-width="2" stroke-linecap="round"/>
<path d="M297.222 66.1915C297.098 66.3862 296.897 66.4944 296.776 66.6985C296.517 67.1349 296.618 67.589 296.591 68.0684C296.544 68.8993 296.609 68.7181 296.807 68.0922C296.929 67.7097 297.307 67.2828 297.656 67.1012C298.048 66.898 297.669 67.6337 297.566 67.6751C297.32 67.7736 297.748 66.9665 298.009 67.008C298.267 67.0489 297.91 67.8223 297.898 67.8924" stroke="white" stroke-width="2" stroke-linecap="round"/>
<path d="M294.098 58.716C291.829 60.6853 289.386 62.9794 289.842 66.1592C290.111 68.0332 292.911 68.4766 294.618 68.4621C296.794 68.4438 299.022 67.8021 300.492 66.3806" stroke="black" stroke-width="2" stroke-linecap="round"/>
<path d="M270.133 69.427L270.636 69.0249" stroke="white" stroke-width="2" stroke-linecap="round"/>
<path d="M265.208 67.2152C266.343 67.746 267.513 68.1858 268.659 68.6895C269.254 68.9511 270.9 69.9884 270.396 69.5774C269.548 68.8859 268.607 68.3137 267.643 67.8016C267.198 67.5652 266.518 67.236 266.051 67.0086C265.863 66.917 265.257 66.52 264.973 66.6009C264.765 66.6603 264.612 67.1462 264.862 67.2487C266.435 67.8949 268.014 68.5666 269.597 69.2033C270.187 69.4404 269.147 69.442 269.084 69.4434C267.955 69.4689 267.352 69.3789 266.286 68.8738C265.47 68.4871 264.814 67.9836 264.275 67.271C263.803 66.6465 264.076 66.6015 264.102 66.0089" stroke="white" stroke-width="2" stroke-linecap="round"/>
<path d="M271.181 70.1009C270.114 67.74 268.374 66.0828 265.745 65.5827C263.961 65.2431 262.763 66.1086 262.269 67.7861C261.49 70.4337 262.317 73.2336 262.906 75.822" stroke="black" stroke-width="2" stroke-linecap="round"/>
<path d="M219.473 38.6116C219.776 38.8962 220.06 39.1125 220.395 39.3363" stroke="black" stroke-width="2" stroke-linecap="round"/>
<path d="M221.139 41.4573C221.774 41.3983 221.892 40.8663 222.088 40.3616" stroke="black" stroke-width="2" stroke-linecap="round"/>
<path d="M221.043 39.0141C220.806 39.1037 220.612 39.2133 220.394 39.3372" stroke="black" stroke-width="2" stroke-linecap="round"/>
<path d="M352.673 98.14C352.189 98.8131 351.81 99.2979 351.614 100.105C351.471 100.694 351.2 101.716 352.02 100.81C352.703 100.055 352.531 99.2612 352.648 98.3395" stroke="black" stroke-width="2" stroke-linecap="round"/>
<ellipse cx="304.069" cy="47.3953" rx="6.83546" ry="5.83024" transform="rotate(16.378 304.069 47.3953)" fill="#FBA094"/>
<ellipse cx="263.298" cy="42.0862" rx="6.83545" ry="5.83024" fill="#FBA094"/>
<path d="M346.396 114.149C341.508 117.546 337.187 121.49 332.859 125.519C332.217 129.049 330.288 132.344 329.151 135.727C329.137 136.873 331.915 138.211 332.736 138.229C336.492 137.436 340.41 136.17 343.905 134.599C348.668 132.459 354.355 128.964 356.727 124.089C357.837 121.809 358.197 119.297 358.257 116.785C358.295 115.204 358.598 111.884 356.906 110.843C353.9 108.993 348.429 112.736 346.396 114.149Z" fill="white" stroke="black" stroke-width="2" stroke-linecap="round"/>
<path d="M0 31.5851C45.3984 17.084 80.0138 13.5817 129.492 15.4691C179.005 22.9565 199.628 38.1142 227.602 65.4211C251.108 84.7564 289.507 116.155 317.961 126.961C340.367 135.47 367.072 142.76 390 142.76V552H0V31.5851Z" fill="#87B5FA"/>
<path d="M0.00477085 32.5015C254.828 -47.3954 168.719 107.46 390 150.78" stroke="black" stroke-width="2"/>
</svg>
