<svg width="1280" height="706" viewBox="0 0 1280 706" fill="none" xmlns="http://www.w3.org/2000/svg">
<path d="M0 197.094C165 144 260.609 138.137 423 144C583 167.447 645.19 214.167 737 299C783.134 341.628 881.412 427.445 935.73 458.99C1021.6 508.856 1151.45 564 1280 564V706H0V197.094Z" fill="#87B5FA"/>
<path d="M-0.460683 198.669C815.539 -53.3312 548.539 428.644 1282.69 589.169" stroke="black" stroke-width="3"/>
<path d="M856.308 215.707C826.07 270.143 816.16 301.644 804.378 356.201C803.993 357.983 804.637 359.874 806.016 361.066C881.42 426.24 917.517 446.997 1026.96 504.431C1029.13 505.568 1031.87 505.011 1033.14 502.92C1055.46 466.305 1052.73 360.853 1016.57 236.056C1016.48 235.745 1016.42 235.421 1016.39 235.098C1014.67 216.506 1008.55 198.609 998.428 180.854C997.058 178.448 993.955 177.7 991.612 179.176C976.116 188.936 968.508 195.62 964.463 205.345C963.435 207.815 960.841 209.366 958.236 208.758C938.581 204.171 926.817 202.403 912.278 204.136C910.361 204.364 908.459 203.528 907.371 201.933C897.339 187.23 889.941 178.959 872.717 172.682C870.272 171.79 867.585 173.057 866.621 175.475C860.279 191.394 857.81 200.621 856.942 213.554C856.892 214.304 856.673 215.05 856.308 215.707Z" fill="white" stroke="black" stroke-width="3"/>
<path d="M882.659 200.799C878.591 194.431 873.782 200.848 872.568 205.158C872.641 209.654 875.146 209.638 879.463 208.344C882.679 207.381 884.716 204.018 882.659 200.799Z" stroke="black" stroke-width="3" stroke-linecap="round"/>
<path d="M994.551 208.859C990.958 200.638 982.769 204.929 980.269 210.429C982.178 215.345 985.277 216.176 990.626 215.317C994.136 214.752 996.106 212.416 994.551 208.859Z" stroke="black" stroke-width="3" stroke-linecap="round"/>
<path d="M999.704 260.607C1026.23 251.177 1054.14 251.02 1081.81 247.503" stroke="black" stroke-width="3" stroke-linecap="round"/>
<path d="M1005.33 269.177C1021.46 270.073 1037.12 273.732 1053.02 276.436" stroke="black" stroke-width="3" stroke-linecap="round"/>
<path d="M864.023 241.801C848.734 236.173 832.99 231.894 817.438 227.1" stroke="black" stroke-width="3" stroke-linecap="round"/>
<path d="M851.414 253.764C834.903 252.548 818.545 252.821 802.004 252.72" stroke="black" stroke-width="3" stroke-linecap="round"/>
<path d="M886.579 241.431C889.385 242.04 891.156 243.301 893.349 245.238C894.174 245.967 898.852 249.644 898.8 251.267C898.735 253.331 894.758 250.746 892.756 250.369C889.894 249.831 887.144 249.776 884.272 249.512" stroke="black" stroke-width="3" stroke-linecap="round"/>
<path d="M948.374 254.027C953.337 248.301 958.577 247.807 965.301 245.087" stroke="black" stroke-width="3" stroke-linecap="round"/>
<path d="M947.175 255.284L957.518 253.876" stroke="black" stroke-width="3" stroke-linecap="round"/>
<path d="M919.915 266.249C916.246 271.929 908.129 271.594 902.348 273.344" stroke="black" stroke-width="3" stroke-linecap="round"/>
<path d="M918.747 269.362C922.137 272.912 926.028 274.096 930.431 275.357" stroke="black" stroke-width="3" stroke-linecap="round"/>
<path d="M1094.33 396.821L796.002 265.055L753.578 260.389L780.299 290.711L1082.06 430.322C1092.96 419.942 1095.74 412.655 1094.33 396.821Z" fill="white" stroke="black" stroke-width="3"/>
<path d="M788.385 278.531L1081.19 410.312" stroke="black" stroke-width="3"/>
<path d="M1081.45 430.255C1077.45 422.416 1081.64 409.275 1087.12 402.942C1088.64 401.183 1090.76 400.144 1092.31 398.465" stroke="black" stroke-width="3" stroke-linecap="round"/>
<path d="M763.405 271.427C764.805 268.872 766.273 266.524 767.887 264.141" stroke="black" stroke-width="3" stroke-linecap="round"/>
<path d="M764.081 265.278C762.605 265.21 762.465 265.259 762.316 266.605C762.138 268.232 758.765 265.891 758.784 264.799C758.803 263.719 763.114 264.537 763.793 264.486C764.441 264.436 764.831 263.962 765.462 263.874" stroke="black" stroke-width="3" stroke-linecap="round"/>
<path d="M764.55 272.175C766.439 269.569 767.122 266.538 768.257 263.559" stroke="black" stroke-width="3" stroke-linecap="round"/>
<path d="M781.885 292.13L780.976 282.415C780.878 281.37 781.605 280.427 782.641 280.256L786.708 279.583C787.765 279.408 788.497 278.431 788.367 277.368L787.547 270.644C787.437 269.742 787.948 268.88 788.792 268.544L797.214 265.188" stroke="black" stroke-width="3"/>
<path d="M936.852 325.667C938.188 326.253 939.034 326.507 940.166 327.449C941.11 328.235 941.087 329.116 941.806 329.894C942.274 330.401 944.228 331.187 943.603 330.904C941.804 330.09 940.017 329.303 938.113 328.762C937.521 328.593 935.849 328.229 936.425 328.005C938.162 327.332 940.184 327.773 941.911 328.159C944.186 328.668 945.525 328.871 946.085 331.263C946.222 331.849 945.977 332.496 946.159 333.069C946.426 333.914 947.855 332.377 947.994 332.182C948.352 331.682 947.526 332.183 947.678 331.646C947.804 331.203 948.772 329.112 948.097 328.771C947.819 328.63 947.484 328.886 947.188 328.982C944.923 329.717 944.993 330.102 942.23 330.061C939.581 330.023 937.311 329.176 935.288 327.5C934.328 326.705 934.222 326.699 935.359 326.54C939.603 325.947 943.806 325.117 948.032 324.407" stroke="white" stroke-width="3" stroke-linecap="round"/>
<path d="M935.54 323.655C934.085 325.281 933.433 327.295 932.473 329.23" stroke="white" stroke-width="3" stroke-linecap="round"/>
<path d="M950.722 330.615C950.414 331.099 949.913 331.368 949.612 331.876C948.969 332.962 949.22 334.091 949.152 335.283C949.036 337.35 949.198 336.899 949.691 335.342C949.992 334.391 950.933 333.329 951.802 332.878C952.775 332.372 951.834 334.202 951.577 334.305C950.966 334.55 952.031 332.543 952.68 332.646C953.32 332.748 952.433 334.671 952.404 334.845" stroke="white" stroke-width="3" stroke-linecap="round"/>
<path d="M942.953 312.024C937.307 316.922 931.231 322.627 932.366 330.535C933.035 335.196 940 336.299 944.245 336.263C949.657 336.217 955.197 334.621 958.853 331.086" stroke="black" stroke-width="3" stroke-linecap="round"/>
<path d="M883.351 338.664L884.601 337.664" stroke="white" stroke-width="3" stroke-linecap="round"/>
<path d="M871.101 333.164C873.923 334.484 876.834 335.578 879.685 336.831C881.165 337.481 885.257 340.061 884.004 339.039C881.896 337.319 879.554 335.896 877.157 334.622C876.05 334.034 874.36 333.216 873.198 332.65C872.731 332.422 871.222 331.435 870.518 331.636C870.001 331.784 869.62 332.992 870.24 333.247C874.153 334.854 878.081 336.525 882.018 338.108C883.484 338.698 880.897 338.702 880.74 338.706C877.934 338.769 876.433 338.545 873.782 337.289C871.752 336.327 870.122 335.075 868.782 333.303C867.607 331.75 868.287 331.638 868.351 330.164" stroke="white" stroke-width="3" stroke-linecap="round"/>
<path d="M885.956 340.34C883.302 334.468 878.974 330.347 872.437 329.103C868 328.259 865.02 330.411 863.792 334.583C861.854 341.168 863.911 348.131 865.377 354.569" stroke="black" stroke-width="3" stroke-linecap="round"/>
<path d="M757.357 262.027C758.11 262.734 758.817 263.272 759.649 263.829" stroke="black" stroke-width="3" stroke-linecap="round"/>
<path d="M761.501 269.103C763.079 268.956 763.374 267.634 763.862 266.378" stroke="black" stroke-width="3" stroke-linecap="round"/>
<path d="M761.263 263.025C760.672 263.248 760.19 263.521 759.649 263.829" stroke="black" stroke-width="3" stroke-linecap="round"/>
<path d="M1088.63 410.074C1087.43 411.748 1086.48 412.954 1086 414.962C1085.64 416.426 1084.97 418.968 1087.01 416.714C1088.7 414.837 1088.28 412.863 1088.57 410.57" stroke="black" stroke-width="3" stroke-linecap="round"/>
<ellipse cx="970.168" cy="285.135" rx="17" ry="14.5" transform="rotate(16.378 970.168 285.135)" fill="#FBA094"/>
<ellipse cx="868.769" cy="271.929" rx="17" ry="14.5" fill="#FBA094"/>
<path d="M1075.44 451.152C1063.28 459.6 1052.53 469.41 1041.77 479.429C1040.17 488.21 1035.37 496.403 1032.55 504.818C1032.51 507.667 1039.42 510.995 1041.46 511.041C1050.81 509.067 1060.55 505.918 1069.24 502.013C1081.09 496.69 1095.23 487.996 1101.13 475.874C1103.89 470.204 1104.79 463.955 1104.94 457.707C1105.03 453.777 1105.78 445.519 1101.58 442.929C1094.1 438.329 1080.49 447.637 1075.44 451.152Z" fill="white" stroke="black" stroke-width="3" stroke-linecap="round"/>
</svg>
