<svg width="744" height="990" viewBox="0 0 744 990" fill="none" xmlns="http://www.w3.org/2000/svg">
<path d="M0 40.6662C86.6062 12.7272 152.642 5.97953 247.031 9.61583C341.486 24.0417 380.829 53.2457 434.194 105.857C479.172 143.223 552.151 203.572 606.754 224.495C649.46 240.859 700.323 254.865 744 254.865V995L0 990V40.6662Z" fill="#87B5FA"/>
<path d="M498.323 51.8127C481.127 82.8407 475.306 101.086 468.59 131.97C468.203 133.75 468.841 135.619 470.221 136.809C513.116 173.798 534.285 186.052 596.315 218.622C598.483 219.76 601.208 219.197 602.358 217.035C614.38 194.45 612.406 134.318 591.898 63.4336C591.807 63.1218 591.747 62.7988 591.716 62.4757C590.752 52.3655 587.546 42.6072 582.299 32.9373C580.979 30.504 577.871 29.7488 575.548 31.2553C568.628 35.7436 564.701 39.1825 562.364 43.555C561.103 45.914 558.545 47.4899 555.937 46.8984C546.215 44.6938 539.843 43.8065 532.449 44.5153C530.528 44.6995 528.632 43.8736 527.531 42.2876C522.41 34.9118 518.267 30.4466 509.901 27.0389C507.491 26.0572 504.796 27.3382 503.856 29.765C500.754 37.774 499.457 42.8735 498.959 49.6615C498.904 50.4117 498.688 51.1548 498.323 51.8127Z" fill="white" stroke="black" stroke-width="3"/>
<path d="M513.894 42.7143C511.526 39.0078 508.727 42.743 508.02 45.2516C508.063 47.8685 509.521 47.8592 512.034 47.1063C513.906 46.5454 515.091 44.5879 513.894 42.7143Z" stroke="black" stroke-width="3" stroke-linecap="round"/>
<path d="M579.025 47.4058C576.934 42.6204 572.167 45.1185 570.712 48.3199C571.824 51.181 573.627 51.665 576.74 51.1646C578.784 50.8362 579.93 49.4763 579.025 47.4058Z" stroke="black" stroke-width="3" stroke-linecap="round"/>
<path d="M582.024 77.5266C597.466 72.0377 613.711 71.946 629.814 69.8989" stroke="black" stroke-width="3" stroke-linecap="round"/>
<path d="M585.3 82.5144C594.688 83.0361 603.802 85.1656 613.054 86.7398" stroke="black" stroke-width="3" stroke-linecap="round"/>
<path d="M503.048 66.5804C494.148 63.3046 484.985 60.8139 475.932 58.0231" stroke="black" stroke-width="3" stroke-linecap="round"/>
<path d="M495.708 73.5433C486.098 72.8356 476.576 72.9945 466.949 72.9356" stroke="black" stroke-width="3" stroke-linecap="round"/>
<path d="M516.176 66.3647C517.81 66.719 518.841 67.4531 520.117 68.5807C520.597 69.0051 523.32 71.145 523.29 72.0897C523.252 73.2916 520.937 71.7865 519.772 71.5673C518.106 71.2541 516.505 71.2223 514.834 71.0683" stroke="black" stroke-width="3" stroke-linecap="round"/>
<path d="M552.145 73.6962C555.033 70.3638 558.084 70.0759 561.997 68.4926" stroke="black" stroke-width="3" stroke-linecap="round"/>
<path d="M551.447 74.4279L557.468 73.6087" stroke="black" stroke-width="3" stroke-linecap="round"/>
<path d="M535.58 80.8107C533.445 84.1164 528.721 83.9215 525.355 84.9401" stroke="black" stroke-width="3" stroke-linecap="round"/>
<path d="M534.9 82.6225C536.873 84.6889 539.138 85.3777 541.701 86.1119" stroke="black" stroke-width="3" stroke-linecap="round"/>
<path d="M638.509 157.548L464.862 80.8519L440.169 78.1359L455.722 95.7852L631.366 177.048C637.708 171.006 639.329 166.765 638.509 157.548Z" fill="white" stroke="black" stroke-width="3"/>
<path d="M460.429 88.6958L630.862 165.401" stroke="black" stroke-width="3"/>
<path d="M631.013 177.009C628.685 172.446 631.121 164.797 634.308 161.111C635.194 160.087 636.429 159.482 637.332 158.505" stroke="black" stroke-width="3" stroke-linecap="round"/>
<path d="M445.889 84.5609C446.703 83.0737 447.558 81.7069 448.497 80.3198" stroke="black" stroke-width="3" stroke-linecap="round"/>
<path d="M446.283 80.9818C445.424 80.942 445.342 80.9706 445.255 81.7543C445.151 82.7011 443.188 81.3386 443.199 80.703C443.21 80.0745 445.72 80.5506 446.115 80.5206C446.492 80.492 446.719 80.2159 447.087 80.1646" stroke="black" stroke-width="3" stroke-linecap="round"/>
<path d="M446.555 84.9964C447.655 83.4797 448.052 81.7151 448.713 79.9813" stroke="black" stroke-width="3" stroke-linecap="round"/>
<path d="M456.646 96.6113L456.189 91.7321C456.091 90.6869 456.818 89.7439 457.854 89.5726L458.663 89.4388C459.72 89.264 460.451 88.2872 460.322 87.2236L460.019 84.7443C459.91 83.8428 460.421 82.9805 461.264 82.6443L465.568 80.9295" stroke="black" stroke-width="3"/>
<path d="M546.846 116.132C547.624 116.473 548.116 116.621 548.775 117.169C549.325 117.627 549.311 118.139 549.729 118.592C550.002 118.887 551.14 119.345 550.775 119.18C549.729 118.707 548.688 118.248 547.58 117.933C547.235 117.835 546.262 117.623 546.597 117.493C547.608 117.101 548.785 117.358 549.791 117.583C551.115 117.879 551.894 117.997 552.22 119.389C552.3 119.73 552.158 120.107 552.263 120.441C552.419 120.933 553.25 120.038 553.332 119.924C553.54 119.633 553.059 119.925 553.148 119.612C553.221 119.354 553.784 118.137 553.391 117.938C553.23 117.857 553.034 118.005 552.862 118.061C551.544 118.49 551.585 118.713 549.976 118.69C548.434 118.667 547.113 118.174 545.935 117.199C545.377 116.736 545.315 116.732 545.977 116.64C548.447 116.295 550.894 115.812 553.353 115.399" stroke="white" stroke-width="3" stroke-linecap="round"/>
<path d="M546.082 114.961C545.235 115.907 544.856 117.08 544.297 118.206" stroke="white" stroke-width="3" stroke-linecap="round"/>
<path d="M554.919 119.012C554.74 119.294 554.448 119.451 554.273 119.746C553.899 120.378 554.045 121.035 554.005 121.729C553.937 122.932 554.032 122.67 554.319 121.764C554.494 121.21 555.042 120.592 555.548 120.329C556.114 120.035 555.567 121.1 555.417 121.16C555.061 121.302 555.681 120.134 556.059 120.194C556.431 120.253 555.915 121.373 555.898 121.474" stroke="white" stroke-width="3" stroke-linecap="round"/>
<path d="M550.397 108.191C547.111 111.042 543.575 114.363 544.235 118.966C544.624 121.678 548.679 122.32 551.149 122.299C554.299 122.273 557.524 121.344 559.652 119.286" stroke="black" stroke-width="3" stroke-linecap="round"/>
<path d="M515.705 123.697L516.433 123.115" stroke="white" stroke-width="3" stroke-linecap="round"/>
<path d="M508.575 120.496C510.217 121.264 511.912 121.901 513.571 122.63C514.433 123.009 516.814 124.51 516.085 123.915C514.858 122.914 513.495 122.086 512.1 121.345C511.456 121.002 510.472 120.526 509.796 120.197C509.523 120.064 508.645 119.489 508.235 119.606C507.934 119.692 507.713 120.396 508.074 120.544C510.351 121.48 512.637 122.452 514.929 123.374C515.783 123.717 514.277 123.719 514.185 123.721C512.552 123.758 511.678 123.628 510.135 122.897C508.954 122.337 508.005 121.608 507.225 120.577C506.541 119.672 506.937 119.607 506.974 118.749" stroke="white" stroke-width="3" stroke-linecap="round"/>
<path d="M517.221 124.673C515.677 121.255 513.158 118.856 509.352 118.132C506.77 117.641 505.035 118.893 504.321 121.322C503.193 125.154 504.39 129.208 505.243 132.955" stroke="black" stroke-width="3" stroke-linecap="round"/>
<path d="M442.369 79.0893C442.807 79.5012 443.219 79.8143 443.703 80.1383" stroke="black" stroke-width="3" stroke-linecap="round"/>
<path d="M444.781 83.2084C445.699 83.123 445.871 82.3529 446.155 81.6223" stroke="black" stroke-width="3" stroke-linecap="round"/>
<path d="M444.642 79.6705C444.298 79.8003 444.018 79.9589 443.703 80.1383" stroke="black" stroke-width="3" stroke-linecap="round"/>
<path d="M635.191 165.262C634.489 166.237 633.94 166.938 633.657 168.107C633.45 168.959 633.057 170.439 634.245 169.127C635.234 168.034 634.985 166.885 635.154 165.551" stroke="black" stroke-width="3" stroke-linecap="round"/>
<ellipse cx="564.831" cy="91.803" rx="9.89506" ry="8.4399" transform="rotate(16.378 564.831 91.803)" fill="#FBA094"/>
<ellipse cx="505.81" cy="84.1168" rx="9.89506" ry="8.4399" fill="#FBA094"/>
<path d="M626.105 188.435C619.028 193.353 612.774 199.063 606.509 204.895C605.579 210.005 602.786 214.774 601.141 219.672C601.121 221.331 605.142 223.268 606.331 223.294C611.769 222.145 617.44 220.313 622.499 218.039C629.394 214.941 637.627 209.881 641.06 202.825C642.667 199.524 643.189 195.888 643.275 192.251C643.33 189.963 643.769 185.157 641.319 183.649C636.968 180.971 629.048 186.389 626.105 188.435Z" fill="white" stroke="black" stroke-width="3" stroke-linecap="round"/>
<path d="M0 42.9468C497.337 -102.271 312.841 178.729 744 265.729" stroke="black" stroke-width="3"/>
</svg>
