<svg width="145" height="35" viewBox="0 0 145 35" fill="none" xmlns="http://www.w3.org/2000/svg">
<rect x="0.501709" y="0.5" width="34" height="34" rx="2.5" stroke="black" stroke-linejoin="round"/>
<path d="M53.24 25.2C52.08 25.2 51.1067 25.0267 50.32 24.68C49.5333 24.32 48.9267 23.86 48.5 23.3C48.0867 22.7267 47.8667 22.12 47.84 21.48C47.84 21.3733 47.88 21.28 47.96 21.2C48.0533 21.1067 48.16 21.06 48.28 21.06H49.3C49.46 21.06 49.58 21.1 49.66 21.18C49.74 21.26 49.7933 21.3533 49.82 21.46C49.8867 21.78 50.0467 22.1 50.3 22.42C50.5667 22.7267 50.9333 22.9867 51.4 23.2C51.88 23.4 52.4933 23.5 53.24 23.5C54.3867 23.5 55.2267 23.3 55.76 22.9C56.3067 22.4867 56.58 21.94 56.58 21.26C56.58 20.7933 56.4333 20.42 56.14 20.14C55.86 19.8467 55.4267 19.5867 54.84 19.36C54.2533 19.1333 53.4933 18.8867 52.56 18.62C51.5867 18.34 50.78 18.0333 50.14 17.7C49.5 17.3667 49.02 16.9533 48.7 16.46C48.3933 15.9667 48.24 15.34 48.24 14.58C48.24 13.86 48.4333 13.22 48.82 12.66C49.2067 12.0867 49.76 11.6333 50.48 11.3C51.2133 10.9667 52.1 10.8 53.14 10.8C53.9667 10.8 54.6867 10.9133 55.3 11.14C55.9267 11.3533 56.4467 11.6467 56.86 12.02C57.2733 12.38 57.5867 12.7733 57.8 13.2C58.0133 13.6133 58.1267 14.02 58.14 14.42C58.14 14.5133 58.1067 14.6067 58.04 14.7C57.9733 14.78 57.8667 14.82 57.72 14.82H56.66C56.5667 14.82 56.4667 14.7933 56.36 14.74C56.2667 14.6867 56.1933 14.5867 56.14 14.44C56.06 13.8933 55.7533 13.4333 55.22 13.06C54.6867 12.6867 53.9933 12.5 53.14 12.5C52.2733 12.5 51.5667 12.6667 51.02 13C50.4867 13.3333 50.22 13.8533 50.22 14.56C50.22 15.0133 50.3467 15.3933 50.6 15.7C50.8533 15.9933 51.2533 16.2533 51.8 16.48C52.3467 16.7067 53.06 16.9467 53.94 17.2C55.0067 17.4933 55.88 17.8067 56.56 18.14C57.24 18.46 57.74 18.8667 58.06 19.36C58.3933 19.84 58.56 20.46 58.56 21.22C58.56 22.06 58.34 22.78 57.9 23.38C57.46 23.9667 56.84 24.42 56.04 24.74C55.2533 25.0467 54.32 25.2 53.24 25.2ZM64.5452 25C64.4118 25 64.2985 24.96 64.2052 24.88C64.1252 24.7867 64.0852 24.6733 64.0852 24.54V12.78H60.2452C60.1118 12.78 59.9985 12.74 59.9052 12.66C59.8252 12.5667 59.7852 12.4533 59.7852 12.32V11.48C59.7852 11.3333 59.8252 11.22 59.9052 11.14C59.9985 11.0467 60.1118 11 60.2452 11H69.8852C70.0318 11 70.1452 11.0467 70.2252 11.14C70.3185 11.22 70.3652 11.3333 70.3652 11.48V12.32C70.3652 12.4533 70.3185 12.5667 70.2252 12.66C70.1452 12.74 70.0318 12.78 69.8852 12.78H66.0652V24.54C66.0652 24.6733 66.0185 24.7867 65.9252 24.88C65.8452 24.96 65.7318 25 65.5852 25H64.5452ZM77.8872 25.2C76.7672 25.2 75.8005 25 74.9872 24.6C74.1872 24.2 73.5672 23.5933 73.1272 22.78C72.7005 21.9533 72.4872 20.8933 72.4872 19.6V11.48C72.4872 11.3333 72.5272 11.22 72.6072 11.14C72.6872 11.0467 72.8005 11 72.9472 11H73.9672C74.1139 11 74.2272 11.0467 74.3072 11.14C74.4005 11.22 74.4472 11.3333 74.4472 11.48V19.64C74.4472 20.9467 74.7539 21.9133 75.3672 22.54C75.9805 23.1667 76.8205 23.48 77.8872 23.48C78.9405 23.48 79.7739 23.1667 80.3872 22.54C81.0139 21.9133 81.3272 20.9467 81.3272 19.64V11.48C81.3272 11.3333 81.3672 11.22 81.4472 11.14C81.5405 11.0467 81.6539 11 81.7872 11H82.8272C82.9605 11 83.0672 11.0467 83.1472 11.14C83.2405 11.22 83.2872 11.3333 83.2872 11.48V19.6C83.2872 20.8933 83.0672 21.9533 82.6272 22.78C82.2005 23.5933 81.5872 24.2 80.7872 24.6C79.9872 25 79.0205 25.2 77.8872 25.2ZM87.0906 25C86.944 25 86.8306 24.96 86.7506 24.88C86.6706 24.7867 86.6306 24.6733 86.6306 24.54V11.48C86.6306 11.3333 86.6706 11.22 86.7506 11.14C86.8306 11.0467 86.944 11 87.0906 11H91.6306C93.004 11 94.1106 11.2067 94.9506 11.62C95.7906 12.0333 96.404 12.6467 96.7906 13.46C97.1773 14.26 97.3773 15.2467 97.3906 16.42C97.404 17.02 97.4106 17.5467 97.4106 18C97.4106 18.4533 97.404 18.9733 97.3906 19.56C97.364 20.7867 97.1573 21.8067 96.7706 22.62C96.3973 23.42 95.7973 24.02 94.9706 24.42C94.1573 24.8067 93.0773 25 91.7306 25H87.0906ZM88.5906 23.3H91.6306C92.5506 23.3 93.284 23.1733 93.8306 22.92C94.3773 22.6667 94.7706 22.26 95.0106 21.7C95.264 21.14 95.3973 20.4 95.4106 19.48C95.4373 19.08 95.4506 18.7333 95.4506 18.44C95.4506 18.1333 95.4506 17.8333 95.4506 17.54C95.4506 17.2333 95.4373 16.8867 95.4106 16.5C95.384 15.2067 95.0773 14.2533 94.4906 13.64C93.904 13.0133 92.9173 12.7 91.5306 12.7H88.5906V23.3ZM104.014 25C103.881 25 103.768 24.96 103.674 24.88C103.594 24.7867 103.554 24.6733 103.554 24.54V19.82L98.7342 11.66C98.7209 11.62 98.7076 11.58 98.6942 11.54C98.6809 11.5 98.6742 11.4533 98.6742 11.4C98.6742 11.2933 98.7142 11.2 98.7942 11.12C98.8742 11.04 98.9676 11 99.0742 11H100.114C100.234 11 100.341 11.0333 100.434 11.1C100.528 11.1533 100.594 11.2333 100.634 11.34L104.534 17.82L108.434 11.34C108.501 11.2333 108.574 11.1533 108.654 11.1C108.748 11.0333 108.854 11 108.974 11H109.994C110.114 11 110.214 11.04 110.294 11.12C110.374 11.2 110.414 11.2933 110.414 11.4C110.414 11.4533 110.408 11.5 110.394 11.54C110.381 11.58 110.361 11.62 110.334 11.66L105.534 19.82V24.54C105.534 24.6733 105.488 24.7867 105.394 24.88C105.314 24.96 105.201 25 105.054 25H104.014ZM118.283 25.2C117.083 25.2 116.03 25.0067 115.123 24.62C114.23 24.22 113.537 23.6133 113.043 22.8C112.55 21.9733 112.303 20.9267 112.303 19.66V11.5C112.303 11.3533 112.35 11.2333 112.443 11.14C112.537 11.0467 112.657 11 112.803 11H115.383C115.53 11 115.65 11.0467 115.743 11.14C115.837 11.2333 115.883 11.3533 115.883 11.5V19.64C115.883 20.5067 116.09 21.16 116.503 21.6C116.93 22.0267 117.523 22.24 118.283 22.24C119.03 22.24 119.61 22.0267 120.023 21.6C120.45 21.16 120.663 20.5067 120.663 19.64V11.5C120.663 11.3533 120.71 11.2333 120.803 11.14C120.91 11.0467 121.03 11 121.163 11H123.763C123.897 11 124.01 11.0467 124.103 11.14C124.21 11.2333 124.263 11.3533 124.263 11.5V19.66C124.263 20.9267 124.017 21.9733 123.523 22.8C123.03 23.6133 122.337 24.22 121.443 24.62C120.55 25.0067 119.497 25.2 118.283 25.2ZM127.416 25C127.269 25 127.149 24.9533 127.056 24.86C126.962 24.7667 126.916 24.6467 126.916 24.5V11.5C126.916 11.3533 126.962 11.2333 127.056 11.14C127.149 11.0467 127.269 11 127.416 11H133.016C134.122 11 135.082 11.1733 135.896 11.52C136.722 11.8533 137.362 12.36 137.816 13.04C138.282 13.72 138.516 14.58 138.516 15.62C138.516 16.6467 138.282 17.4933 137.816 18.16C137.362 18.8267 136.722 19.32 135.896 19.64C135.082 19.96 134.122 20.12 133.016 20.12H130.636V24.5C130.636 24.6467 130.582 24.7667 130.476 24.86C130.382 24.9533 130.262 25 130.116 25H127.416ZM130.576 17.36H132.916C133.489 17.36 133.942 17.2133 134.276 16.92C134.622 16.6267 134.796 16.18 134.796 15.58C134.796 15.0733 134.649 14.6467 134.356 14.3C134.062 13.9533 133.582 13.78 132.916 13.78H130.576V17.36Z" fill="black"/>
</svg>
