<svg width="60" height="61" viewBox="0 0 60 61" fill="none" xmlns="http://www.w3.org/2000/svg">
<circle cx="30" cy="30" r="28.5" fill="#FBA094" stroke="black" stroke-width="3"/>
<path d="M14.6845 18.6737C10.9866 35.3609 9.69908 43.3513 10.3698 51.0134C10.3916 51.2623 10.5099 51.4953 10.6976 51.6602C22.8816 62.3653 40.0442 59.9136 49.3445 51.6675C49.5369 51.4969 49.651 51.2554 49.6669 50.9986C50.2354 41.7687 49.0647 34.4153 44.4849 18.5017C44.3178 17.921 43.6739 17.6147 43.1245 17.8665C39.9665 19.3135 38.157 20.5029 36.363 23.0404C36.1335 23.3651 35.7393 23.5372 35.347 23.4719C31.2593 22.7916 28.7197 22.6538 24.595 23.4782C24.2795 23.5412 23.9509 23.4524 23.7113 23.2377C21.3875 21.156 19.5766 19.8607 16.1181 18.0062C15.5395 17.696 14.8265 18.0328 14.6845 18.6737Z" fill="white" stroke="black" stroke-width="3"/>
</svg>
