<svg width="336" height="333" viewBox="0 0 336 333" fill="none" xmlns="http://www.w3.org/2000/svg">
<path d="M104.721 2.74499C-1.73688 121.619 -24.9074 239.735 32.6981 318.544C37.8309 325.566 46.2379 329.26 54.9359 329.26H163.218C204.006 329.26 242.914 304.874 250.102 264.725C260.635 205.893 249.285 147.3 210.725 56.2983C210.64 56.0984 210.574 55.8802 210.534 55.6668C207.417 39.0426 204.394 31.4585 198.368 21.4239C197.675 20.2685 196.283 19.7312 194.996 20.1306C185.131 23.1911 178.863 26.7016 168.909 36.4022C168.081 37.209 166.861 37.4854 165.77 37.1028C146.371 30.299 137.172 28.6638 123.287 27.0255C122.02 26.876 120.987 25.9425 120.67 24.7068C118.989 18.1552 116.476 12.8915 109.355 2.96486C108.251 1.42591 105.985 1.3341 104.721 2.74499Z" stroke="black" stroke-width="3"/>
<path d="M28.3391 308C28.3334 308.007 28.059 314.137 26.6778 313.335C25.875 312.869 30.5649 309.847 29.6898 312.05C29.4146 312.743 29.036 312.883 29.4104 313.555C30.1185 314.825 30.0522 316.161 31.615 316.598C31.8074 316.651 34.5164 316.54 34.3165 317.426C34.1267 318.267 32.6106 318.405 32.2205 317.697C31.6011 316.573 34.5678 316.035 34.037 318.609C33.7588 319.959 33.001 321.318 32.9812 322.718C32.9572 324.418 34.3366 323.068 34.8288 323.833C35.0845 324.231 36.3782 321.444 37.5458 322.363C37.9741 322.699 36.6162 323.261 36.5366 323.377C36.0547 324.077 38.1403 323.269 38.9431 323.242C41.0255 323.17 35.8031 324.701 40.1075 323.986C42.8684 323.527 37.955 324.973 40.0299 324.493C41.2541 324.21 41.7669 329.234 43 329C43.4772 328.909 52.5 327 46.2717 324.577C45 327 39.1832 326.074 37.2508 324.577C36.3465 323.877 36.2459 322.976 35.9001 321.923C35.0986 319.483 32.438 318.764 30.6835 317.325C29.3073 316.195 28.9174 315.288 28.3391 313.656C28.2318 313.353 26.649 310.982 26.7089 310.9C27.4163 309.937 31.9713 315.16 32.5776 315.871" stroke="white" stroke-width="3" stroke-linecap="round"/>
<path d="M147.157 328.043C148.668 328.132 150.032 328.734 151.52 328.905C154.015 329.191 156.499 328.471 158.91 327.89C160.846 327.424 163.111 327.158 164.794 325.912C165.746 325.208 166.539 324.398 167.558 323.782" stroke="white" stroke-width="3" stroke-linecap="round"/>
<path d="M184.5 326.935C205.379 326.603 222.223 327.102 243.103 326.935C261.201 326.79 280.291 327.865 298.286 324.728C307.483 323.125 316.663 319.191 324.675 314.058C331.222 309.864 340.077 301.889 328.041 297.822C318.166 294.485 306.778 294.982 296.603 295.089C284.43 295.217 272.354 296.156 260.295 297.954C251.281 299.298 233.752 305.123 225 308" stroke="black" stroke-width="3" stroke-linecap="round"/>
<path d="M155.485 301C149.919 304.979 146.737 308.944 144.896 316.215C143.464 321.874 142.986 328.648 149.461 330.349C155.309 331.885 162.481 330.122 168.34 328.996" stroke="black" stroke-width="3" stroke-linecap="round"/>
<path d="M30.4061 302C26.0015 307.723 11.7377 324.127 23.6258 329.094C31.6046 332.428 42.0194 330.699 50 329.094" stroke="black" stroke-width="3" stroke-linecap="round"/>
<path d="M73 190.476C77.0953 192.164 79.3522 193.731 83.93 193.045C88.1804 192.408 94.2701 189.116 94.2701 183.578C94.2701 178.28 88.9659 174.199 85.8552 171" stroke="black" stroke-width="3" stroke-linecap="round"/>
<path d="M120.023 171C116.981 177.072 111.611 190.897 117.974 196.427C122.229 200.125 127.48 195.708 130.643 192.91" stroke="black" stroke-width="3" stroke-linecap="round"/>
<path d="M102.257 20.7941C99.2559 22.7701 96.7407 28.5515 96.5747 32.2563C97.9154 38.0959 106.121 36.4053 106.946 30.5657C107.2 28.7694 105.471 18.678 102.257 20.7941Z" stroke="black" stroke-width="3" stroke-linecap="round"/>
<path d="M190.07 37.1256C186.662 38.5001 181.777 43.257 183.208 47.4721C184.114 50.1021 184.323 50.1303 187.058 50.9885C191.388 52.347 192.927 49.037 193.144 44.8347C193.231 43.1551 193.25 35.8432 190.07 37.1256Z" stroke="black" stroke-width="3" stroke-linecap="round"/>
<path d="M100.487 72.4252C105.78 72.593 109.918 71.2101 115.019 69.9907" stroke="black" stroke-width="3" stroke-linecap="round"/>
<path d="M144.083 73.6421C147.621 76.3021 151.801 77.0521 155.82 78.511" stroke="black" stroke-width="3" stroke-linecap="round"/>
<path d="M118.373 99.2042C119.187 97.9811 123.045 90.1149 124.241 93.321C125.125 95.6896 125.92 97.7864 127.315 99.8129" stroke="black" stroke-width="3" stroke-linecap="round"/>
<ellipse cx="21.83" cy="18.2358" rx="21.83" ry="18.2358" transform="matrix(0.990604 -0.136763 0.115655 0.993289 49.625 77.7871)" fill="#FBA094"/>
<ellipse cx="22.0054" cy="18.1106" rx="22.0054" ry="18.1106" transform="matrix(0.938178 0.346153 -0.297121 0.95484 157.64 83.9888)" fill="#FBA094"/>
</svg>
