<svg width="772" height="181" viewBox="0 0 772 181" fill="none" xmlns="http://www.w3.org/2000/svg">
<path d="M575.598 5.71946C484.259 8.0995 417.632 8.10758 325.656 18.0294C255.515 25.5957 150.421 41.1038 80.9321 65.0172C69.4603 68.9651 6.20522 91.6861 3.06553 124.465C1.22837 143.645 38.5705 158.25 45.9127 160.194C80.3959 169.324 154.708 171.865 184.754 172.204C246.519 172.899 334.322 169.312 395.694 164.547C493.18 156.98 594.734 146.209 689.033 116.208C707.328 110.388 740.086 97.5546 756.874 83.7823C762.386 79.2611 773.987 65.5111 766.625 55.5596C758.301 44.3076 728.146 37.0273 719.52 35.1432C694.93 29.7718 635.195 22.6357 612.952 20.1311C521.412 9.82393 429.91 3.6577 337.878 3.01728C321.404 2.90265 250.19 3.37577 232.271 3.91801C187.957 5.25893 142.365 6.74034 99.2658 19.3805C68.7762 28.3224 39.8593 45.5856 26.2744 78.2279C11.9832 112.567 33.4429 135.525 62.0491 148.56C92.6092 162.485 119.297 165.884 152.481 169.426C190.635 173.499 239.364 174.612 277.315 175.731C364.243 178.294 451.906 180.86 538.518 170.327C569.569 166.551 599.904 162.459 628.882 149.01C645.082 141.491 661.646 131.669 666.099 111.104C670.979 88.5641 659.241 75.4608 643.233 62.9155C616.391 41.8793 584.673 32.1999 553.075 24.0342C453.737 -1.63754 348.306 2.5947 246.828 5.71946" stroke="#FBA094" stroke-width="5" stroke-linecap="round"/>
</svg>
