<svg width="685" height="508" viewBox="0 0 685 508" fill="none" xmlns="http://www.w3.org/2000/svg">
<path d="M59.7307 278.254C59.5203 273.301 63.667 269.265 68.6469 269.557L299.493 283.079C303.242 283.298 306.405 285.957 307.269 289.614L351.863 478.444C353.165 483.956 348.821 489.187 343.173 488.906L170.604 480.313L105.567 472.676C102.145 472.274 99.3045 469.847 98.3741 466.53L75.5094 385.017C65.3558 339.619 61.2496 314.016 59.7307 278.254Z" stroke="black" stroke-width="3"/>
<path d="M67.1118 269.675C67.1118 269.675 71.7402 266.589 80.997 264.275C90.1627 261.983 193.107 269.524 195.133 269.672C195.197 269.677 195.195 269.676 195.259 269.68L308.559 275.846" stroke="black" stroke-width="3"/>
<path d="M64.7969 272.503C65.8281 270.909 68.2371 270.056 69.9395 269.417" stroke="black" stroke-width="3" stroke-linecap="round"/>
<path d="M305.473 275.074C321.607 283.377 333.128 342.201 355.277 482.075" stroke="black" stroke-width="3"/>
<path d="M347.085 486.816C347.085 485.105 348.322 483.644 350.01 483.363L445.817 467.395C446.648 467.257 447.5 467.422 448.218 467.861L450.799 469.439C453.399 471.028 452.868 474.95 449.939 475.79L351.55 503.994C349.313 504.635 347.085 502.956 347.085 500.63L347.085 486.816Z" stroke="black" stroke-width="3"/>
<path d="M351.757 483.351C351.581 483.037 349.49 480.634 350.557 482.38C351.637 484.148 351.92 480.073 351.671 479.409C351.131 477.968 350.457 478.66 350.785 479.809C351.084 480.855 351.242 476.713 351.242 476.152" stroke="black" stroke-width="3" stroke-linecap="round"/>
<path d="M341.986 487.98C343.599 488.147 344.655 488.856 346.1 489.523" stroke="black" stroke-width="3" stroke-linecap="round"/>
<path d="M346.1 486.951C345.626 487.011 345.76 487.118 345.586 487.466" stroke="black" stroke-width="3" stroke-linecap="round"/>
<path d="M65.8252 270.96L68.3965 268.903" stroke="black" stroke-width="3" stroke-linecap="round"/>
<path d="M159.204 376.74C157.042 380.049 156.743 384.569 159.204 389.788C164.66 401.357 183.644 401.643 191.836 392.885C198.595 385.66 197.407 374.027 186.776 370.802C181.148 369.095 173.723 369.465 168.166 371.251C164.093 372.56 161.487 373.563 159.204 376.74Z" fill="#87B5FA"/>
<path d="M154.84 366.099C149.715 362.76 150.744 358.187 153.355 353.757C157.771 353.168 159.691 354.315 160.212 359.671C160.527 362.91 159.779 369.316 154.84 366.099Z" fill="#87B5FA"/>
<path d="M168.725 361.61C163.599 358.271 164.629 353.698 167.24 349.268C171.656 348.679 173.576 349.826 174.096 355.182C174.411 358.421 173.664 364.827 168.725 361.61Z" fill="#87B5FA"/>
<path d="M180.864 358.134C179.724 355.416 177.964 351.186 186.011 351.186C190.825 355.042 191.314 356.049 188.91 358.911C186.884 361.324 181.961 360.751 180.864 358.134Z" fill="#87B5FA"/>
<path d="M201.181 353.757C194.285 355.749 197.14 367.462 203.095 362.499C207.389 358.921 205.677 354.881 201.181 353.757Z" fill="#87B5FA"/>
<path d="M177.319 366.108C168.686 367.747 163.81 375.004 168.358 384.646M177.319 366.108C182.876 364.323 190.302 363.953 195.929 365.659C206.56 368.884 207.748 380.518 200.989 387.743C192.797 396.5 173.814 396.214 168.358 384.646M177.319 366.108C173.246 367.417 170.641 368.42 168.358 371.598C166.196 374.906 165.896 379.427 168.358 384.646" stroke="black" stroke-width="3" stroke-linecap="round"/>
<path d="M163.993 360.956C158.867 357.617 159.896 353.045 162.507 348.614C166.924 348.025 168.843 349.172 169.364 354.528C169.679 357.767 168.931 364.174 163.993 360.956Z" fill="white" stroke="black" stroke-width="3" stroke-linecap="round"/>
<path d="M178.965 345.529C173.376 348.456 178.909 359.12 182.279 354.128C183.465 352.37 183.795 350.304 183.593 348.214C183.358 345.79 180.207 346.168 178.45 346.043" stroke="black" stroke-width="3" stroke-linecap="round"/>
<path d="M190.016 352.991C188.876 350.273 187.117 346.043 195.163 346.043C199.978 349.9 200.467 350.906 198.063 353.769C196.037 356.181 191.114 355.608 190.016 352.991Z" fill="white" stroke="black" stroke-width="3" stroke-linecap="round"/>
<path d="M210.334 348.614C203.439 350.606 206.294 362.319 212.249 357.357C216.542 353.779 214.83 349.738 210.334 348.614Z" fill="white" stroke="black" stroke-width="3" stroke-linecap="round"/>
<path d="M99.5103 467.152L103.258 482.145C103.783 484.245 105.6 485.768 107.759 485.92L350.319 502.95" stroke="black" stroke-width="3"/>
<path d="M446.639 467.152C405.746 462.578 384.243 459.58 351.633 458.662" stroke="black" stroke-width="3"/>
<path d="M342.5 403.126C333.423 346.376 334.681 332.991 373.462 257.907C373.583 257.673 373.679 257.409 373.734 257.152C381.565 221.002 380.561 204.857 388.768 185.503C389.451 183.891 391.393 183.271 392.933 184.102C407.388 191.908 418.557 195.329 430.331 206.679C431.017 207.34 431.968 207.657 432.912 207.526C449.112 205.28 466.368 205.73 483.664 208.018C484.755 208.162 485.839 207.701 486.509 206.828C499.611 189.743 514.46 182.155 524.187 176.579C525.889 175.603 528.089 176.445 528.674 178.317C542.731 223.374 547.864 240.939 551.245 255.716C551.291 255.917 551.331 256.054 551.415 256.241C554.05 262.097 606.559 380.913 563.119 456.352" stroke="black" stroke-width="3"/>
<path d="M397.432 359.197C421.182 338.329 489.303 332.104 504.513 357.84C519.722 383.575 517.57 428.154 504.513 455.581H394.306C386.741 425.496 373.682 380.065 397.432 359.197Z" fill="#ECECEC"/>
<path d="M0 455.581H94.8817" stroke="black" stroke-width="3"/>
<path d="M350.985 456.352L685 456.352" stroke="black" stroke-width="3"/>
<path d="M526.863 261.961C548.463 256.259 570.498 252.977 592.432 248.847" stroke="black" stroke-width="3" stroke-linecap="round"/>
<path d="M528.407 275.074C550.517 275.695 572.014 277.62 593.975 279.703" stroke="black" stroke-width="3" stroke-linecap="round"/>
<path d="M394.955 258.104C376.95 250.469 359.428 241.724 341.729 233.419" stroke="black" stroke-width="3" stroke-linecap="round"/>
<path d="M389.555 270.446C375.303 267.605 361.49 265.871 347.128 264.275" stroke="black" stroke-width="3" stroke-linecap="round"/>
<path d="M434.682 284.331C437.591 283.151 439.756 281.677 442.16 279.638C442.165 279.635 444.692 277.021 445.631 277.153C446.732 277.307 446.867 279 447.495 279.917C449.38 282.667 452.155 284.425 455.509 283.945" stroke="black" stroke-width="3" stroke-linecap="round"/>
<path d="M359.471 341.414C357.406 337.019 354.518 332.838 355.357 327.615C356.181 322.483 361.456 318.542 366.499 320.244C369.932 321.402 371.746 326.12 373.356 329.072" stroke="black" stroke-width="3" stroke-linecap="round"/>
<path d="M534.578 330.615C540.041 325.993 554.597 320.414 556.006 331.429C556.965 338.932 552.27 342.751 546.149 344.5" stroke="black" stroke-width="3" stroke-linecap="round"/>
<path d="M577.004 416.684C586.493 402.509 599.821 389.96 618.93 390.826C640.053 391.783 635.335 414.548 627.265 426.179C615.656 442.91 598.423 446.27 582.404 456.352" stroke="black" stroke-width="3" stroke-linecap="round"/>
<path d="M413.468 257.332C417.601 255.637 422.458 254.232 425.039 258.104" stroke="black" stroke-width="3" stroke-linecap="round"/>
<path d="M478.265 258.104C482.652 254.945 488.505 253.269 490.607 258.875" stroke="black" stroke-width="3" stroke-linecap="round"/>
<path d="M393.412 202.563C397.119 203.49 408.568 206.132 404.725 212.42C403.099 215.082 395.605 220.373 393.197 215.977C391.889 213.587 389.78 204.242 393.412 203.334" stroke="black" stroke-width="3" stroke-linecap="round"/>
<path d="M516.064 214.134C506.291 213.471 507.644 204.365 516.836 203.506C520.383 203.174 521.699 209.322 521.507 211.948C521.298 214.804 518.169 214.695 516.064 214.905" stroke="black" stroke-width="3" stroke-linecap="round"/>
<path d="M413.854 258.489C417.059 258.082 420.272 258.104 423.497 258.104" stroke="black" stroke-width="3" stroke-linecap="round"/>
<path d="M479.038 258.489H489.066" stroke="black" stroke-width="3" stroke-linecap="round"/>
<path d="M9.25635 467.152C17.4871 467.493 25.7077 467.723 33.941 467.923" stroke="black" stroke-width="3" stroke-linecap="round"/>
<path d="M49.3691 469.466H55.5403" stroke="black" stroke-width="3" stroke-linecap="round"/>
<ellipse cx="509.265" cy="284.338" rx="20.0563" ry="13.8851" transform="rotate(5.32777 509.265 284.338)" fill="#FBA094"/>
<ellipse cx="394.183" cy="285.874" rx="19.2849" ry="13.8851" transform="rotate(-8.02223 394.183 285.874)" fill="#FBA094"/>
<path d="M273.154 39.8273C285.175 25.2728 294.828 20.6321 311.645 18.1994C324.348 19.9234 346.891 20.2069 353.905 34.458C358.393 43.5748 363.061 52.6046 362.513 63.4123C361.912 75.2574 354.967 87.6111 346.096 93.7717C333.013 102.858 312.274 102.751 298.001 99.4924C286.031 96.7599 281.168 91.7266 273.154 80.524C264.897 68.9812 264.744 50.0093 273.154 39.8273Z" fill="#C6E36F"/>
<path d="M279.325 29.0277C291.346 14.4732 300.999 9.83255 317.816 7.39978C330.518 9.12378 353.062 9.40734 360.076 23.6584C364.563 32.7752 369.232 41.805 368.684 52.6127C368.083 64.4578 361.138 76.8115 352.267 82.9721C339.184 92.0583 318.445 91.9509 304.172 88.6928C292.202 85.9604 287.339 80.927 279.325 69.7244C271.068 58.1816 270.915 39.2097 279.325 29.0277Z" stroke="black" stroke-width="3" stroke-linecap="round"/>
<path d="M295.253 55.805C303.26 61.964 313.99 65.8908 324.062 63.4546C329.766 62.0752 335.154 60.1248 338.837 55.4193" stroke="black" stroke-width="3" stroke-linecap="round"/>
<path d="M294.481 55.2264C294.711 50.5282 294.783 45.8504 294.674 41.1484" stroke="black" stroke-width="3" stroke-linecap="round"/>
<path d="M285.803 35.9415C296.293 39.87 306.401 44.75 317.237 47.7053" stroke="black" stroke-width="3" stroke-linecap="round"/>
<path d="M317.815 47.5124C327.023 44.7134 334.928 41.155 343.057 36.0593C344.424 35.2026 346.007 34.5038 347.321 33.6273" stroke="black" stroke-width="3" stroke-linecap="round"/>
<path d="M285.609 35.1701C294.212 31.8431 303.105 29.468 311.965 26.9633C313.634 26.4916 315.29 25.5276 317.044 25.5276" stroke="black" stroke-width="3" stroke-linecap="round"/>
<path d="M316.273 25.9133C324.646 27.4516 332.652 29.9196 340.829 32.0464C342.737 32.5429 345.107 33.6273 347.129 33.6273" stroke="black" stroke-width="3" stroke-linecap="round"/>
<path d="M339.415 55.2264C339.415 50.6756 339.415 46.7849 339.415 42.2365C339.415 41.0682 339.415 39.3784 339.415 38.2557" stroke="black" stroke-width="3" stroke-linecap="round"/>
<path d="M318.395 36.3272C320.012 37.4304 323.157 39.476 324.694 40.8699C326.653 42.6457 327.249 44.3306 327.512 46.8803C328.016 51.763 328.305 56.6636 328.83 61.5476C329.207 65.0635 329.142 68.6696 329.001 72.1971" stroke="black" stroke-width="3" stroke-linecap="round"/>
<path d="M329.001 71.4257C329.11 73.9336 329.256 76.4401 329.387 78.9468" stroke="black" stroke-width="3" stroke-linecap="round"/>
<path d="M329.001 70.4615C328.029 73.3765 327.31 76.3723 326.494 79.3325" stroke="black" stroke-width="3" stroke-linecap="round"/>
<path d="M329.579 71.4257C330.489 73.5535 331.077 75.5841 331.7 77.7897" stroke="black" stroke-width="3" stroke-linecap="round"/>
<path d="M280.789 15.1137C287.121 8.44847 298.692 5.56732 307.016 2" stroke="black" stroke-width="3" stroke-linecap="round"/>
<path d="M325.529 2C330.407 2.26727 334.047 3.67155 338.643 5.08559" stroke="black" stroke-width="3" stroke-linecap="round"/>
<path d="M255.429 144.651C268 137.179 278.148 137.239 290.457 140.051C298.707 144.811 312.037 150.357 312.678 162.825C313.088 170.801 313.648 178.763 310.089 186.609C306.188 195.208 297.764 202.444 289.835 204.569C278.141 207.704 263.875 201.936 254.995 195.611C247.547 190.306 245.677 185.249 243.449 174.762C241.155 163.957 246.634 149.878 255.429 144.651Z" fill="#FFCE70"/>
<path d="M262.651 132.34C275.223 124.869 285.37 124.929 297.68 127.741C305.929 132.5 319.26 138.047 319.9 150.515C320.31 158.491 320.871 166.453 317.311 174.299C313.41 182.898 304.986 190.134 297.058 192.259C285.363 195.393 271.098 189.626 262.217 183.301C254.77 177.996 252.899 172.938 250.672 162.452C248.377 151.646 253.857 137.568 262.651 132.34Z" stroke="black" stroke-width="3" stroke-linecap="round"/>
<path d="M272.497 150.076C272.639 149.037 272.525 147.928 272.925 146.958C274.231 143.794 276.7 142.059 279.6 140.402C282.525 138.729 287.945 136.12 291.46 138.141C293.454 139.288 293.956 142.782 294.289 144.719C294.793 147.659 295.269 151.036 293.367 153.601C291.905 155.573 289.713 156.796 287.775 158.219C286.069 159.47 283.99 160.792 283.51 163.029C283.157 164.68 283.817 166.477 284.046 168.097C284.269 169.676 284.26 171.243 284.26 172.832" stroke="black" stroke-width="3" stroke-linecap="round"/>
<path d="M284.261 180.353C284.569 180.756 284.892 181.13 285.225 181.511" stroke="black" stroke-width="3" stroke-linecap="round"/>
<path d="M246.847 179.389C249.812 186.306 257.099 190.263 263.818 192.503" stroke="black" stroke-width="3" stroke-linecap="round"/>
<path d="M503.191 107.075C497.235 122.019 490.696 128.178 477.897 134.225C467.341 135.84 449.3 141.008 440.158 130.878C434.309 124.397 428.338 118.032 426.082 108.943C423.61 98.982 426.067 87.0791 431.604 79.8472C439.769 69.1811 456.328 64.3 468.518 63.5798C478.74 62.9758 483.871 65.9821 493.05 73.3461C502.509 80.9338 507.357 96.6212 503.191 107.075Z" fill="#87B5FA"/>
<path d="M511.795 96.2758C505.839 111.219 499.301 117.379 486.501 123.425C475.946 125.041 457.904 130.208 448.762 120.078C442.914 113.597 436.942 107.232 434.686 98.1436C432.214 88.1825 434.672 76.2796 440.208 69.0477C448.374 58.3816 464.933 53.5004 477.122 52.7802C487.345 52.1762 492.475 55.1825 501.655 62.5466C511.113 70.1343 515.962 85.8216 511.795 96.2758Z" stroke="black" stroke-width="3" stroke-linecap="round"/>
<mask id="path-66-inside-1_1303_17" fill="white">
<rect x="458.739" y="62.169" width="36.8046" height="49.5239" rx="2" transform="rotate(7.77643 458.739 62.169)"/>
</mask>
<rect x="458.739" y="62.169" width="36.8046" height="49.5239" rx="2" transform="rotate(7.77643 458.739 62.169)" stroke="black" stroke-width="6" mask="url(#path-66-inside-1_1303_17)"/>
<rect x="465.759" y="71.306" width="20.4211" height="6.90478" transform="rotate(7.77643 465.759 71.306)" stroke="black" stroke-width="3"/>
<rect x="479.208" y="96.4683" width="3.69174" height="10.2064" transform="rotate(7.77643 479.208 96.4683)" stroke="black" stroke-width="3"/>
<rect x="463.395" y="83.6313" width="5.04094" height="1.6508" transform="rotate(7.77643 463.395 83.6313)" stroke="black" stroke-width="1.6508"/>
<rect x="471.683" y="84.7631" width="5.04094" height="1.6508" transform="rotate(7.77643 471.683 84.7631)" stroke="black" stroke-width="1.6508"/>
<rect x="479.972" y="85.8949" width="5.04094" height="1.6508" transform="rotate(7.77643 479.972 85.8949)" stroke="black" stroke-width="1.6508"/>
<rect x="471.012" y="89.6699" width="5.04094" height="1.6508" transform="rotate(7.77643 471.012 89.6699)" stroke="black" stroke-width="1.6508"/>
<rect x="462.725" y="88.5381" width="5.04094" height="1.6508" transform="rotate(7.77643 462.725 88.5381)" stroke="black" stroke-width="1.6508"/>
<rect x="479.301" y="90.8017" width="5.04094" height="1.6508" transform="rotate(7.77643 479.301 90.8017)" stroke="black" stroke-width="1.6508"/>
<rect x="462.055" y="93.445" width="5.04094" height="1.6508" transform="rotate(7.77643 462.055 93.445)" stroke="black" stroke-width="1.6508"/>
<rect x="461.384" y="98.3518" width="5.04094" height="1.6508" transform="rotate(7.77643 461.384 98.3518)" stroke="black" stroke-width="1.6508"/>
<rect x="470.343" y="94.5768" width="5.04094" height="1.6508" transform="rotate(7.77643 470.343 94.5768)" stroke="black" stroke-width="1.6508"/>
<rect x="460.715" y="103.259" width="5.04094" height="1.6508" transform="rotate(7.77643 460.715 103.259)" stroke="black" stroke-width="1.6508"/>
<rect x="469.672" y="99.4836" width="5.04094" height="1.6508" transform="rotate(7.77643 469.672 99.4836)" stroke="black" stroke-width="1.6508"/>
<rect x="469.003" y="104.391" width="5.04094" height="1.6508" transform="rotate(7.77643 469.003 104.391)" stroke="black" stroke-width="1.6508"/>
<path d="M510.665 59.8547C516.465 67.3571 520.359 75.6376 519.15 85.3108" stroke="black" stroke-width="3" stroke-linecap="round"/>
<path d="M510.665 113.852C511.96 110.398 513.645 107.121 515.293 103.824" stroke="black" stroke-width="3" stroke-linecap="round"/>
</svg>
