<svg width="626" height="136" viewBox="0 0 626 136" fill="none" xmlns="http://www.w3.org/2000/svg">
<path d="M466.275 5.01279C392.375 6.77436 338.469 6.78034 264.053 14.1239C207.304 19.7241 122.275 31.2023 66.053 48.9017C56.7714 51.8237 5.59327 68.6405 3.05302 92.9017C1.56661 107.098 31.7792 117.907 37.7197 119.346C65.6192 126.104 125.744 127.985 150.053 128.235C200.025 128.75 271.065 126.095 320.72 122.568C399.593 116.967 481.758 108.995 558.053 86.7906C572.855 82.4825 599.359 72.9841 612.942 62.7906C617.401 59.4442 626.787 49.2673 620.831 41.9017C614.096 33.5736 589.698 28.1851 582.72 26.7906C562.824 22.815 514.494 17.5332 496.497 15.6795C422.435 8.05069 348.403 3.48679 273.942 3.01279C260.613 2.92795 202.996 3.27812 188.497 3.67946C152.644 4.67193 115.757 5.76839 80.8864 15.1239C56.218 21.7422 32.822 34.5195 21.8308 58.6795C10.2681 84.0957 27.6307 101.087 50.7752 110.735C75.5007 121.042 97.0928 123.558 123.942 126.179C154.811 129.194 194.237 130.018 224.942 130.846C295.273 132.743 366.199 134.642 436.275 126.846C461.398 124.051 485.941 121.023 509.386 111.068C522.493 105.504 535.895 98.2339 539.497 83.0128C543.446 66.3298 533.949 56.6314 520.997 47.3461C499.28 31.7763 473.618 24.6121 448.053 18.5683C367.681 -0.432446 282.379 2.70002 200.275 5.01279" stroke="#FBA094" stroke-width="5" stroke-linecap="round"/>
</svg>
