<svg width="444" height="310" viewBox="0 0 444 310" fill="none" xmlns="http://www.w3.org/2000/svg">
<path d="M39.4237 164.856C39.1652 159.921 43.3068 155.883 48.2919 156.175L191.477 164.562C195.224 164.781 198.392 167.45 199.256 171.109L226.48 286.385C227.781 291.896 223.437 297.122 217.787 296.84L110.625 291.504L70.8279 286.831C67.4063 286.43 64.5655 284.002 63.6351 280.685L49.4551 230.133C43.2455 202.368 40.5342 186.059 39.4237 164.856Z" stroke="black" stroke-width="3"/>
<path d="M43.4999 155.5C43.4999 155.5 46.4999 153.5 52.5 152C58.4088 150.523 124.449 155.35 126.453 155.497C126.517 155.501 126.532 155.502 126.595 155.505L200 159.5" stroke="black" stroke-width="3"/>
<path d="M42 157.333C42.6684 156.3 44.2299 155.747 45.3333 155.333" stroke="black" stroke-width="3" stroke-linecap="round"/>
<path d="M198 159C208.458 164.382 215.926 202.51 230.282 293.173" stroke="black" stroke-width="3"/>
<path d="M225.5 297.736C225.5 296.025 226.737 294.565 228.425 294.283L288.783 284.224C289.371 284.125 289.975 284.243 290.484 284.554C292.327 285.68 291.951 288.46 289.874 289.056L229.965 306.23C227.728 306.871 225.5 305.192 225.5 302.865L225.5 297.736Z" stroke="black" stroke-width="3"/>
<path d="M228 294C227.886 293.796 226.531 292.238 227.222 293.37C227.923 294.516 228.106 291.875 227.945 291.444C227.594 290.511 227.158 290.959 227.37 291.704C227.564 292.382 227.667 289.697 227.667 289.333" stroke="black" stroke-width="3" stroke-linecap="round"/>
<path d="M221.667 297C222.713 297.108 223.397 297.568 224.333 298" stroke="black" stroke-width="3" stroke-linecap="round"/>
<path d="M224.333 296.333C224.026 296.372 224.113 296.442 224 296.667" stroke="black" stroke-width="3" stroke-linecap="round"/>
<path d="M42.6667 156.333L44.3334 155" stroke="black" stroke-width="3" stroke-linecap="round"/>
<path d="M103.192 224.897C101.791 227.042 101.597 229.972 103.192 233.355C106.729 240.853 119.033 241.038 124.343 235.362C128.724 230.679 127.954 223.139 121.063 221.048C117.416 219.942 112.603 220.182 109.001 221.339C106.361 222.188 104.672 222.838 103.192 224.897Z" fill="#87B5FA"/>
<path d="M100.364 218C97.0412 215.836 97.7084 212.872 99.4007 210C102.263 209.618 103.508 210.362 103.845 213.833C104.049 215.933 103.565 220.085 100.364 218Z" fill="#87B5FA"/>
<path d="M109.364 215.09C106.041 212.926 106.708 209.962 108.401 207.09C111.263 206.709 112.508 207.452 112.845 210.924C113.049 213.023 112.565 217.176 109.364 215.09Z" fill="#87B5FA"/>
<path d="M117.231 212.837C116.492 211.075 115.352 208.333 120.567 208.333C123.688 210.833 124.005 211.486 122.447 213.341C121.134 214.905 117.943 214.533 117.231 212.837Z" fill="#87B5FA"/>
<path d="M130.401 210C125.931 211.291 127.782 218.883 131.642 215.667C134.424 213.348 133.315 210.728 130.401 210Z" fill="#87B5FA"/>
<path d="M114.934 218.006C109.338 219.068 106.177 223.772 109.125 230.021M114.934 218.006C118.535 216.849 123.349 216.609 126.996 217.715C133.887 219.805 134.657 227.346 130.276 232.029C124.966 237.705 112.661 237.52 109.125 230.021M114.934 218.006C112.293 218.854 110.605 219.504 109.125 221.564C107.724 223.709 107.53 226.639 109.125 230.021" stroke="black" stroke-width="3" stroke-linecap="round"/>
<path d="M106.296 214.667C102.974 212.502 103.641 209.538 105.333 206.667C108.196 206.285 109.44 207.028 109.778 210.5C109.982 212.599 109.497 216.752 106.296 214.667Z" fill="white" stroke="black" stroke-width="3" stroke-linecap="round"/>
<path d="M116 204.667C112.378 206.564 115.964 213.477 118.148 210.241C118.917 209.101 119.131 207.762 119 206.407C118.848 204.836 116.806 205.081 115.667 205" stroke="black" stroke-width="3" stroke-linecap="round"/>
<path d="M123.164 209.504C122.425 207.742 121.284 205 126.5 205C129.621 207.5 129.938 208.152 128.379 210.008C127.066 211.571 123.875 211.2 123.164 209.504Z" fill="white" stroke="black" stroke-width="3" stroke-linecap="round"/>
<path d="M136.333 206.667C131.864 207.958 133.714 215.55 137.574 212.333C140.357 210.014 139.247 207.395 136.333 206.667Z" fill="white" stroke="black" stroke-width="3" stroke-linecap="round"/>
<path d="M64.5 283.5L66.6198 291.979C67.1447 294.079 68.9612 295.603 71.1203 295.754L227.068 306.703" stroke="black" stroke-width="3"/>
<path d="M289.5 283.5C262.994 280.535 249.057 278.592 227.92 277.997" stroke="black" stroke-width="3"/>
<path d="M222 242C216.122 205.248 216.931 196.555 242.004 147.999C242.124 147.766 242.22 147.502 242.275 147.245C247.176 124.569 246.712 114.062 251.554 101.997C252.206 100.373 254.149 99.7549 255.697 100.572C264.427 105.178 271.328 107.495 278.543 114.299C279.236 114.952 280.186 115.271 281.131 115.145C291.283 113.797 302.062 114.067 312.876 115.455C313.967 115.595 315.049 115.135 315.727 114.269C323.606 104.205 332.394 99.336 338.579 95.8325C340.286 94.8658 342.496 95.7167 343.08 97.5892C351.852 125.725 355.12 136.935 357.279 146.347C357.325 146.547 357.384 146.726 357.468 146.914C359.733 151.98 392.902 228.044 365 276.5" stroke="black" stroke-width="3"/>
<path d="M257.606 213.526C273 200 317.154 195.965 327.012 212.646C336.871 229.327 335.476 258.222 327.012 276H255.579C250.676 256.499 242.211 227.053 257.606 213.526Z" fill="#ECECEC"/>
<path d="M0 276H61.5" stroke="black" stroke-width="3"/>
<path d="M227.5 276.5L444 276.5" stroke="black" stroke-width="3"/>
<path d="M341.5 150.5C355.5 146.804 369.783 144.677 384 142" stroke="black" stroke-width="3" stroke-linecap="round"/>
<path d="M342.5 159C356.831 159.402 370.765 160.65 385 162" stroke="black" stroke-width="3" stroke-linecap="round"/>
<path d="M256 148C244.329 143.052 232.972 137.383 221.5 132" stroke="black" stroke-width="3" stroke-linecap="round"/>
<path d="M252.5 156C243.263 154.158 234.309 153.034 225 152" stroke="black" stroke-width="3" stroke-linecap="round"/>
<path d="M281.75 165C283.636 164.235 285.039 163.28 286.597 161.958C286.6 161.956 288.239 160.262 288.847 160.347C289.561 160.447 289.648 161.545 290.056 162.139C291.277 163.922 293.076 165.061 295.25 164.75" stroke="black" stroke-width="3" stroke-linecap="round"/>
<path d="M233 202C231.661 199.151 229.79 196.441 230.333 193.056C230.867 189.729 234.287 187.175 237.556 188.278C239.781 189.029 240.956 192.087 242 194" stroke="black" stroke-width="3" stroke-linecap="round"/>
<path d="M346.5 195C350.041 192.004 359.476 188.388 360.389 195.528C361.011 200.391 357.968 202.866 354 204" stroke="black" stroke-width="3" stroke-linecap="round"/>
<path d="M374 250.788C380.151 241.6 388.789 233.466 401.175 234.027C414.867 234.648 411.809 249.403 406.578 256.942C399.053 267.787 387.883 269.965 377.5 276.5" stroke="black" stroke-width="3" stroke-linecap="round"/>
<path d="M268 147.5C270.679 146.401 273.827 145.491 275.5 148" stroke="black" stroke-width="3" stroke-linecap="round"/>
<path d="M310 148C312.843 145.953 316.637 144.866 318 148.5" stroke="black" stroke-width="3" stroke-linecap="round"/>
<path d="M255 112C257.403 112.601 264.824 114.313 262.333 118.389C261.279 120.115 256.422 123.544 254.861 120.694C254.013 119.146 252.646 113.088 255 112.5" stroke="black" stroke-width="3" stroke-linecap="round"/>
<path d="M334.5 119.5C328.165 119.071 329.042 113.168 335 112.611C337.3 112.396 338.152 116.381 338.028 118.083C337.892 119.934 335.865 119.864 334.5 120" stroke="black" stroke-width="3" stroke-linecap="round"/>
<path d="M268.25 148.25C270.327 147.986 272.41 148 274.5 148" stroke="black" stroke-width="3" stroke-linecap="round"/>
<path d="M310.5 148.25H317" stroke="black" stroke-width="3" stroke-linecap="round"/>
<path d="M6 283.5C11.335 283.721 16.6633 283.87 22 284" stroke="black" stroke-width="3" stroke-linecap="round"/>
<path d="M32 285H36" stroke="black" stroke-width="3" stroke-linecap="round"/>
<ellipse cx="330.093" cy="165.004" rx="13" ry="9" transform="rotate(5.32777 330.093 165.004)" fill="#FBA094"/>
<ellipse cx="255.5" cy="166" rx="12.5" ry="9" transform="rotate(-8.02223 255.5 166)" fill="#FBA094"/>
<path d="M64.0513 94.0187C71.8431 84.5848 78.0997 81.5769 89 80C97.2336 81.1175 111.846 81.3013 116.392 90.5384C119.301 96.4477 122.327 102.301 121.971 109.306C121.582 116.984 117.081 124.991 111.331 128.984C102.85 134.874 89.4077 134.804 80.1562 132.692C72.3977 130.921 69.2459 127.659 64.0513 120.397C58.699 112.916 58.6003 100.618 64.0513 94.0187Z" fill="#C6E36F"/>
<path d="M68.0513 87.0187C75.8431 77.5848 82.0997 74.5768 93 73C101.234 74.1174 115.846 74.3012 120.392 83.5384C123.301 89.4477 126.327 95.3006 125.971 102.306C125.582 109.984 121.081 117.991 115.331 121.984C106.85 127.874 93.4077 127.804 84.1562 125.692C76.3977 123.921 73.2459 120.658 68.0513 113.397C62.699 105.915 62.6003 93.6184 68.0513 87.0187Z" stroke="black" stroke-width="3" stroke-linecap="round"/>
<path d="M169.562 91.4834C177.71 86.6404 184.288 86.6793 192.266 88.5022C197.613 91.5872 206.254 95.1823 206.669 103.264C206.935 108.434 207.298 113.594 204.991 118.68C202.462 124.254 197.002 128.944 191.863 130.321C184.283 132.353 175.036 128.614 169.28 124.515C164.453 121.076 163.241 117.798 161.797 111.001C160.31 103.997 163.861 94.8715 169.562 91.4834Z" fill="#FFCE70"/>
<path d="M174.243 83.5042C182.392 78.6611 188.969 78.7001 196.948 80.5229C202.295 83.6079 210.936 87.203 211.351 95.2844C211.616 100.454 211.98 105.615 209.672 110.7C207.144 116.274 201.684 120.964 196.544 122.342C188.964 124.374 179.718 120.635 173.962 116.535C169.135 113.097 167.922 109.819 166.478 103.021C164.991 96.0178 168.543 86.8922 174.243 83.5042Z" stroke="black" stroke-width="3" stroke-linecap="round"/>
<path d="M199.156 41.1072C195.295 50.7932 191.057 54.7856 182.761 58.7048C175.919 59.7519 164.225 63.1014 158.299 56.5352C154.509 52.3347 150.638 48.209 149.176 42.3179C147.573 35.8613 149.166 28.1461 152.755 23.4586C158.048 16.5451 168.781 13.3813 176.682 12.9145C183.308 12.523 186.633 14.4716 192.583 19.2448C198.714 24.1629 201.857 34.3311 199.156 41.1072Z" fill="#87B5FA"/>
<path d="M204.733 34.1072C200.872 43.7932 196.634 47.7856 188.338 51.7048C181.496 52.7519 169.802 56.1014 163.876 49.5352C160.085 45.3346 156.215 41.209 154.753 35.3179C153.15 28.8613 154.743 21.1461 158.332 16.4586C163.624 9.54508 174.357 6.38127 182.258 5.91445C188.884 5.52295 192.21 7.47156 198.16 12.2448C204.291 17.1629 207.433 27.331 204.733 34.1072Z" stroke="black" stroke-width="3" stroke-linecap="round"/>
<path d="M69 78C73.1043 73.6797 80.6048 71.8122 86 69.5" stroke="black" stroke-width="3" stroke-linecap="round"/>
<path d="M98 69.5C101.162 69.6732 103.521 70.5834 106.5 71.5" stroke="black" stroke-width="3" stroke-linecap="round"/>
<path d="M164 114C165.922 118.484 170.645 121.048 175 122.5" stroke="black" stroke-width="3" stroke-linecap="round"/>
<path d="M204 10.5C207.76 15.3628 210.284 20.73 209.5 27" stroke="black" stroke-width="3" stroke-linecap="round"/>
<path d="M204 45.5C204.84 43.2606 205.932 41.1366 207 39" stroke="black" stroke-width="3" stroke-linecap="round"/>
<path d="M78.375 104.375C83.5648 108.367 90.5197 110.912 97.0486 109.333C100.745 108.439 104.238 107.175 106.625 104.125" stroke="black" stroke-width="3" stroke-linecap="round"/>
<path d="M77.875 104C78.0238 100.955 78.0709 97.9227 78 94.875" stroke="black" stroke-width="3" stroke-linecap="round"/>
<path d="M72.25 91.5C79.0493 94.0463 85.6014 97.2095 92.625 99.125" stroke="black" stroke-width="3" stroke-linecap="round"/>
<path d="M93 99C98.968 97.1857 104.092 94.8793 109.361 91.5764C110.247 91.0211 111.273 90.5681 112.125 90" stroke="black" stroke-width="3" stroke-linecap="round"/>
<path d="M72.125 91C77.701 88.8435 83.4649 87.304 89.2083 85.6806C90.29 85.3748 91.3634 84.75 92.5 84.75" stroke="black" stroke-width="3" stroke-linecap="round"/>
<path d="M92 85C97.427 85.9971 102.616 87.5967 107.916 88.9753C109.154 89.2971 110.689 90 112 90" stroke="black" stroke-width="3" stroke-linecap="round"/>
<path d="M107 104C107 101.05 107 98.5284 107 95.5802C107 94.823 107 93.7277 107 93" stroke="black" stroke-width="3" stroke-linecap="round"/>
<path d="M93.375 91.75C94.4235 92.4651 96.4616 93.791 97.4583 94.6944C98.7282 95.8455 99.114 96.9376 99.2847 98.5903C99.6117 101.755 99.799 104.932 100.139 108.097C100.384 110.376 100.341 112.714 100.25 115" stroke="black" stroke-width="3" stroke-linecap="round"/>
<path d="M100.25 114.5C100.321 116.126 100.416 117.75 100.5 119.375" stroke="black" stroke-width="3" stroke-linecap="round"/>
<path d="M100.25 113.875C99.6202 115.764 99.1543 117.706 98.625 119.625" stroke="black" stroke-width="3" stroke-linecap="round"/>
<path d="M100.625 114.5C101.215 115.879 101.596 117.195 102 118.625" stroke="black" stroke-width="3" stroke-linecap="round"/>
<mask id="path-66-inside-1_57_86" fill="white">
<rect x="170.343" y="12" width="23.8558" height="32.1002" rx="2" transform="rotate(7.77643 170.343 12)"/>
</mask>
<rect x="170.343" y="12" width="23.8558" height="32.1002" rx="2" transform="rotate(7.77643 170.343 12)" stroke="black" stroke-width="6" mask="url(#path-66-inside-1_57_86)"/>
<rect x="175.345" y="18.5167" width="12.181" height="3.42003" transform="rotate(7.77643 175.345 18.5167)" stroke="black" stroke-width="3"/>
<rect x="183.706" y="34.3582" width="2.16871" height="6.39134" transform="rotate(7.77643 183.706 34.3582)" stroke="black" stroke-width="2.16871"/>
<rect x="173.361" y="25.9113" width="3.26741" height="1.07001" transform="rotate(7.77643 173.361 25.9113)" stroke="black" stroke-width="1.07001"/>
<rect x="178.733" y="26.645" width="3.26741" height="1.07001" transform="rotate(7.77643 178.733 26.645)" stroke="black" stroke-width="1.07001"/>
<rect x="184.105" y="27.3786" width="3.26741" height="1.07001" transform="rotate(7.77643 184.105 27.3786)" stroke="black" stroke-width="1.07001"/>
<rect x="178.299" y="29.8254" width="3.26741" height="1.07001" transform="rotate(7.77643 178.299 29.8254)" stroke="black" stroke-width="1.07001"/>
<rect x="172.927" y="29.0919" width="3.26741" height="1.07001" transform="rotate(7.77643 172.927 29.0919)" stroke="black" stroke-width="1.07001"/>
<rect x="183.671" y="30.5591" width="3.26741" height="1.07001" transform="rotate(7.77643 183.671 30.5591)" stroke="black" stroke-width="1.07001"/>
<rect x="172.493" y="32.2723" width="3.26741" height="1.07001" transform="rotate(7.77643 172.493 32.2723)" stroke="black" stroke-width="1.07001"/>
<rect x="172.058" y="35.4528" width="3.26741" height="1.07001" transform="rotate(7.77643 172.058 35.4528)" stroke="black" stroke-width="1.07001"/>
<rect x="177.864" y="33.0059" width="3.26741" height="1.07001" transform="rotate(7.77643 177.864 33.0059)" stroke="black" stroke-width="1.07001"/>
<rect x="171.624" y="38.6333" width="3.26741" height="1.07001" transform="rotate(7.77643 171.624 38.6333)" stroke="black" stroke-width="1.07001"/>
<rect x="177.43" y="36.1864" width="3.26741" height="1.07001" transform="rotate(7.77643 177.43 36.1864)" stroke="black" stroke-width="1.07001"/>
<rect x="176.996" y="39.3669" width="3.26741" height="1.07001" transform="rotate(7.77643 176.996 39.3669)" stroke="black" stroke-width="1.07001"/>
<path d="M180.625 95C180.718 94.3264 180.643 93.6077 180.903 92.9792C181.749 90.9279 183.35 89.8037 185.229 88.7292C187.125 87.6452 190.638 85.9538 192.917 87.2639C194.209 88.0071 194.534 90.2723 194.75 91.5278C195.077 93.4333 195.386 95.6219 194.153 97.2847C193.205 98.5632 191.785 99.3555 190.528 100.278C189.423 101.089 188.075 101.946 187.764 103.396C187.535 104.466 187.963 105.631 188.111 106.681C188.256 107.704 188.25 108.72 188.25 109.75" stroke="black" stroke-width="3" stroke-linecap="round"/>
<path d="M188.25 114.625C188.45 114.886 188.659 115.128 188.875 115.375" stroke="black" stroke-width="3" stroke-linecap="round"/>
</svg>
