<svg width="19" height="24" viewBox="0 0 19 24" fill="none" xmlns="http://www.w3.org/2000/svg">
<path d="M11.8838 21.5658C10.6876 23.429 8.56162 23.5096 7.20006 21.6149C6.79092 21.0456 7.2753 20.3313 7.97641 20.3313H11.0877C11.7621 20.3313 12.2482 20.9983 11.8838 21.5658Z" fill="black" stroke="black"/>
<path d="M7.34215 2.51721C-0.131219 5.32157 5.77238 13.7552 1.31934 17.6897" stroke="black" stroke-linecap="round"/>
<path d="M7.34204 2.47692C8.07776 0.38413 11.1019 0.635256 11.6441 2.47692" stroke="black" stroke-linecap="round"/>
<path d="M11.6441 2.51721C19.1174 5.32157 13.2138 13.7552 17.6669 17.6897" stroke="black" stroke-linecap="round"/>
<path d="M1.74939 19.4105H17.1022" stroke="black"/>
<path d="M1.31929 17.6897C0.58357 18.6524 1.25674 19.4105 1.95373 19.4105" stroke="black" stroke-linecap="round"/>
<path d="M17.6668 17.6897C18.4161 18.6524 17.7651 19.4105 17.0554 19.4105" stroke="black" stroke-linecap="round"/>
<path d="M9.78878 6.33404C9.73401 6.40208 9.67305 6.46657 9.62447 6.53818C9.60579 6.5657 9.55364 6.62025 9.58862 6.62906C9.63037 6.63957 9.6618 6.58503 9.68721 6.55398C9.82163 6.38975 9.83721 6.30474 9.78878 6.09038C9.67032 5.56611 9.3852 5.05365 9.23012 4.53494C9.09554 4.08482 9.04145 3.58393 8.84921 3.14808C8.70872 2.82955 8.40947 2.88624 8.18449 2.67262C8.0079 2.50494 8.40039 2.11038 8.5161 2.00882C9.12369 1.47558 9.97335 1.71456 10.5192 2.19058C10.6395 2.29545 10.7359 2.41125 10.7956 2.55145C10.8018 2.56612 10.8213 2.60561 10.806 2.59755C10.7297 2.55719 10.7472 2.44948 10.7194 2.37496C10.6705 2.24397 10.5432 1.7128 10.337 1.69141C10.1706 1.67415 9.99329 1.68109 9.83061 1.71248C9.66961 1.74356 9.02138 1.89535 9.14049 2.18004C9.22334 2.37807 9.71472 2.3399 9.88438 2.35653C9.901 2.35815 10.307 2.37898 10.1503 2.51721C10.0354 2.61853 9.74328 2.71442 9.61849 2.75164C9.17463 2.88404 8.70929 2.96195 8.25619 3.0651C8.10799 3.09884 7.81918 3.20873 7.64674 3.18364C7.55973 3.17098 7.61154 3.0604 7.61238 3.02032C7.61835 2.73619 6.68119 3.42839 6.64294 3.46022C6.16627 3.85678 5.80563 4.3753 5.41507 4.83786C5.2443 5.0401 5.11926 5.31064 4.91914 5.4898C4.76004 5.63225 4.95568 5.08649 5.03267 4.89844C5.14855 4.61542 5.28941 4.30124 5.54802 4.09241C5.67932 3.98637 5.83902 3.95154 5.99763 3.89221" stroke="black" stroke-linecap="round"/>
<path d="M9.08984 2.35126C8.91552 2.43263 8.74525 2.52041 8.57898 2.61203" stroke="black" stroke-linecap="round"/>
<path d="M9.6277 10.6725C9.63281 10.056 9.65527 9.44197 9.674 8.82594C9.70177 7.91269 9.50288 7.04472 9.24978 6.16154C9.16778 5.87543 9.07945 5.59073 8.98837 5.30677C8.9671 5.24046 8.63816 4.25153 8.56116 4.10035C8.25967 3.50842 7.54568 3.67378 7.02857 3.95547C6.44044 4.27584 5.98572 4.80415 5.53033 5.25014C5.1798 5.59343 4.748 5.9393 4.6057 6.40124C4.41295 7.02697 4.44918 7.66679 4.45931 8.30702C4.46855 8.89096 4.46864 9.47526 4.50113 10.0587C4.54053 10.7661 4.64402 11.4685 4.67292 12.1765C4.69921 12.8207 4.65729 13.4456 4.53997 14.0836C4.43838 14.6361 4.23587 15.4757 4.07093 16.0197C3.96617 16.3653 3.82009 16.7819 3.62878 17.1102C3.45324 17.4115 3.19672 17.702 2.89386 17.911C2.83052 17.9547 1.83281 18.4861 1.81686 18.4523C1.78743 18.39 2.45697 17.7852 2.47262 17.7688C2.6722 17.5585 2.90412 17.3095 3.07609 17.0786C3.52027 16.4822 3.07528 17.0285 3.47045 16.4333" stroke="black" stroke-width="2" stroke-linecap="round"/>
<path d="M4.08878 16.125C4.28767 15.6228 4.56279 15.1601 4.67433 14.6302C4.69587 14.5278 4.75135 14.2052 4.70868 14.0678C4.64613 13.8663 4.42753 14.41 4.34271 14.6051C4.24724 14.8248 4.14498 15.0963 4.05293 15.3216C4.0495 15.33 3.90933 15.6716 4.00363 15.369C4.15386 14.887 4.37441 14.4087 4.40545 13.9045C4.46125 12.9981 4.09887 12.1176 4.08878 11.2124C4.08565 10.9324 4.08878 10.6522 4.08878 10.3721C4.08878 10.2412 4.09539 10.2707 4.14255 10.3642" stroke="black" stroke-width="2" stroke-linecap="round"/>
<path d="M4.11572 14.347C4.08642 14.263 4.17318 14.1148 4.19638 14.0388" stroke="black" stroke-width="2" stroke-linecap="round"/>
<path d="M3.4165 16.0302C3.54548 15.6297 3.96742 15.3004 4.21417 14.9555C4.64837 14.3485 4.96278 13.7479 5.15225 13.0484C5.36951 12.2462 5.52511 11.4404 5.4749 10.6145C5.42681 9.82346 5.35823 9.11125 5.55556 8.32543C5.83426 7.21557 6.34614 6.08869 7.17479 5.20664C7.67513 4.67406 8.30592 4.2546 8.95235 3.87246C9.2434 3.70042 9.57996 3.51137 9.88744 3.35881C10.133 3.23698 10.3506 3.12025 10.6343 3.08618C11.4598 2.98708 12.2237 3.6819 12.6374 4.22544C13.1275 4.86916 14.3754 6.92101 13.9624 6.23658C13.7866 5.94524 13.5858 5.64587 13.4739 5.32913C13.4048 5.1334 13.6861 5.47981 13.707 5.50825C13.7278 5.53656 13.7471 5.56574 13.7682 5.59386C13.7806 5.61031 13.8256 5.6726 13.7921 5.59913C13.7594 5.52727 13.6391 5.30231 13.6129 5.25406C13.5606 5.15783 13.502 5.04373 13.5621 5.18294C13.7449 5.60627 13.9216 6.02591 14.049 6.46575C14.127 6.73507 14.1688 7.01108 14.2492 7.27969C14.362 7.65671 14.0364 6.52272 13.9236 6.1457C13.8089 5.76267 13.6829 5.38222 13.577 4.99723C13.5277 4.81796 13.5171 4.77162 13.6278 4.95245C14.1691 5.83643 14.6586 6.8278 14.6465 7.84866C14.6405 8.3589 14.5393 8.85858 14.4822 9.36459C14.4045 10.0546 14.3685 10.7174 14.2044 11.4008C13.7669 13.2229 13.1069 15.1797 13.946 16.9943C14.1141 17.3578 14.3857 17.7735 14.7571 18.0137C15.1172 18.2466 15.6174 18.2842 16.0447 18.3245C16.2838 18.3471 16.5283 18.3685 16.7692 18.3733C16.8607 18.3751 17.0543 18.3882 16.9529 18.2639C16.3312 17.5026 15.5236 16.8447 14.7899 16.1725" stroke="black" stroke-width="2" stroke-linecap="round"/>
<path d="M15.4891 17.0496C15.3313 16.6628 15.2296 16.4561 15.1336 16.0539C15.0402 15.6624 15.0342 15.2684 15.0156 14.8712C14.9875 14.2699 14.8335 13.6866 14.7527 13.0905C14.6807 12.5596 14.6351 12.027 14.5541 11.4969C14.4615 10.8918 14.3532 10.2934 14.3076 9.68331C14.2763 9.26484 14.2641 8.84237 14.2583 8.42289C14.254 8.11587 14.3092 8.41819 14.3345 8.51113C14.4418 8.90656 14.6527 9.30708 14.6765 9.71624C14.7023 10.1588 14.5487 10.6305 14.4704 11.0649C14.2377 12.3559 14.328 13.6411 14.6347 14.9212C14.7835 15.5421 15.0057 16.0488 15.4623 16.5281" stroke="black" stroke-width="2" stroke-linecap="round"/>
<path d="M12.827 11.8578C12.7704 10.988 12.7901 10.7696 12.5014 9.77683C12.3167 9.14195 12.1167 8.50744 11.8411 7.89871C11.4411 7.01503 10.9172 5.86763 9.87238 5.35942C9.66747 5.25975 9.38043 5.26593 9.17032 5.35679C9.05266 5.40766 9.01473 5.60368 9.09264 5.69659C9.19639 5.8203 9.41238 5.83324 9.58558 5.852C10.2039 5.91898 10.8452 5.74224 11.4558 5.93893C12.1863 6.17426 12.4939 6.63561 12.7733 7.24018C12.97 7.66605 13.2574 9.02845 13.1093 8.58753C12.7856 7.62358 12.4386 6.69202 11.9099 5.79405C11.7316 5.49135 11.5346 5.19603 11.3124 4.91689C11.1039 4.65504 10.8265 4.24034 10.3623 4.34134C10.0086 4.41829 9.4736 4.96889 9.28384 5.13157C9.05382 5.32877 8.80751 5.51156 8.58775 5.71766C8.39958 5.89415 7.86994 6.26108 8.15158 6.61063C8.25771 6.74235 8.46733 6.77495 8.62062 6.8635C8.72742 6.9252 8.91073 6.94995 8.93132 7.06106C8.98183 7.33374 7.75708 7.40705 8.06494 7.81178C8.26556 8.07553 9.33256 8.38409 9.54824 8.4848C9.67654 8.5447 9.95761 8.61381 9.88732 8.72582C9.78847 8.88333 9.49996 8.84242 9.30027 8.87991C8.96121 8.94358 8.61205 8.96076 8.27407 9.02874C8.08646 9.06648 7.79728 9.03744 7.72885 9.19601C7.67642 9.31748 7.99902 9.31264 8.1456 9.3264C8.53781 9.36321 8.93427 9.35089 9.32865 9.34615C9.73931 9.34122 10.1493 9.31462 10.5595 9.29742C10.9207 9.28228 11.2829 9.29018 11.644 9.27371" stroke="black" stroke-width="2" stroke-linecap="round"/>
<path d="M10.8108 8.79954C10.6848 8.30178 10.58 7.78494 10.2551 7.34946C9.81552 6.76015 9.12182 6.57504 8.35508 6.62376C7.75051 6.66218 7.283 6.85564 7.02863 7.38239C6.82212 7.81003 6.74306 8.57124 6.69702 9.01027C6.66959 9.27182 6.58581 10.4416 6.58349 10.7251C6.5768 11.544 6.63631 12.4295 6.96291 13.2051C7.19368 13.7531 7.39159 14.0725 8.01301 14.3259C8.62973 14.5774 9.30592 14.5618 9.96087 14.5011C10.8496 14.4187 11.8105 14.1828 12.4211 13.5594C13.2104 12.7534 13.1735 11.5722 13.1202 10.5828C13.1063 10.3251 13.0746 10.0684 13.0529 9.81104C13.0368 9.61967 13.0335 9.42723 13.0066 9.2368C12.9975 9.17199 13.0187 9.03923 12.9454 9.04847C12.8514 9.06031 12.8627 9.20228 12.7975 9.26315C12.6063 9.4416 12.4273 9.64479 12.1821 9.76099C11.134 10.2576 10.2039 10.2999 9.0198 10.3418C8.53653 10.3589 8.0525 10.3262 7.56937 10.3063C7.47884 10.3025 7.20987 10.2702 7.30049 10.2707C7.55086 10.2721 7.80073 10.2919 8.05036 10.3089C8.11588 10.3134 9.52013 10.3757 9.75324 10.5407C9.9912 10.7091 9.3477 10.9578 9.08105 11.0886C8.89568 11.1795 8.66157 11.2161 8.52238 11.3573C8.29312 11.5897 9.11762 11.7006 9.45598 11.7774C9.81304 11.8584 10.182 11.9032 10.53 12.0105C10.7187 12.0688 10.9922 12.102 11.0528 12.27C11.0976 12.3943 10.8499 12.4701 10.7152 12.5242C10.4517 12.63 10.1575 12.6624 9.8817 12.7402C9.69029 12.7942 9.46874 12.8062 9.31407 12.9193C9.13317 13.0516 9.68647 13.1768 9.89664 13.2696C10.0195 13.3239 10.1654 13.3619 10.2492 13.458C10.2882 13.5027 10.2556 13.5888 10.2043 13.6226C9.98845 13.7652 9.55406 13.7357 9.332 13.8017" stroke="black" stroke-width="2" stroke-linecap="round"/>
<path d="M7.98745 10.5065C7.97998 10.7391 7.91712 10.9756 7.96505 11.2045C8.08932 11.798 8.40875 12.113 9.01665 12.3938C9.76889 12.7413 10.7446 12.7962 11.3962 12.2424C11.6739 12.0063 11.9369 11.4403 11.686 11.1149C11.4039 10.7492 10.9504 11.0966 10.8704 11.3942C10.73 11.9165 11.1605 12.4714 10.9167 12.9773C10.651 13.5286 9.74612 13.4842 9.21233 13.4488C8.60667 13.4086 8.08178 13.2424 7.55725 12.9957" stroke="black" stroke-width="2" stroke-linecap="round"/>
<path d="M12.1281 12.6401C12.1118 13.0794 12.1008 12.841 12.2536 13.5093C12.3718 14.0263 12.6941 15.251 12.7137 15.7615C12.7371 16.3714 12.672 16.8882 12.0385 17.2366C11.3983 17.5887 10.4926 17.5382 9.8158 17.7371" stroke="black" stroke-width="2" stroke-linecap="round"/>
<path d="M3.22827 18.4009C6.01814 18.6678 8.82047 18.4934 11.6142 18.3772C12.5018 18.3402 13.384 18.2823 14.2731 18.2823C14.759 18.2823 15.245 18.2823 15.731 18.2823" stroke="black" stroke-width="2" stroke-linecap="round"/>
<path d="M4.25009 18.6143C3.74807 18.6445 3.24626 18.6772 2.74438 18.7091" stroke="black" stroke-width="2" stroke-linecap="round"/>
<path d="M4.22314 17.5238C6.9318 17.4756 9.63871 17.3594 12.3462 17.2761C12.5553 17.2697 12.765 17.2725 12.9736 17.2577C13.0024 17.2557 13.0605 17.2507 13.0527 17.2261C13.0395 17.1843 12.9834 17.1605 12.9377 17.1444C12.4806 16.9834 11.7939 16.8811 11.3573 16.831C10.2142 16.6999 9.11643 16.6533 7.9635 16.6282C7.48764 16.6178 7.01148 16.6253 6.53547 16.6242C6.51003 16.6241 5.5065 16.7785 5.39275 16.4306C5.33716 16.2606 5.38799 16.0729 5.43607 15.9011C5.54662 15.5061 5.917 14.6626 6.29946 14.3892C7.18382 13.7568 8.58864 14.2787 9.48265 14.5498C9.98565 14.7024 10.5459 14.8564 10.96 15.1768C11.1533 15.3264 11.1833 15.5306 11.2527 15.7299C11.2628 15.7589 11.2892 15.8224 11.2229 15.8327C11.1281 15.8473 11.0308 15.8461 10.9346 15.8445C10.3711 15.8354 9.7307 15.7825 9.18241 15.7378C8.80009 15.7067 7.84956 15.6304 7.40185 15.5548C7.15015 15.5122 6.91629 15.4385 6.79539 15.2242C6.69841 15.0522 6.86419 14.8942 6.96568 14.7645C7.26039 14.3878 7.55621 14.0112 7.85296 13.6358" stroke="black" stroke-width="2" stroke-linecap="round"/>
<path d="M5.48682 13.1379C5.63602 13.2159 5.78736 13.2838 5.91403 13.3908C6.23012 13.6579 5.87708 13.4041 6.13212 13.6832" stroke="black" stroke-width="2" stroke-linecap="round"/>
</svg>
