<svg width="115" height="115" viewBox="0 0 115 115" fill="none" xmlns="http://www.w3.org/2000/svg">
<circle cx="57.5" cy="57.5" r="57.5" fill="#ECECEC"/>
<circle cx="57" cy="58" r="48.5" fill="#FBA094" stroke="black" stroke-width="3"/>
<path d="M31.6615 38.2805C25.3128 66.8566 23.1252 80.3027 24.3065 93.2804C24.3292 93.5292 24.4477 93.7622 24.6345 93.9281C45.0398 112.046 73.9372 107.865 89.4401 93.9352C89.6315 93.7633 89.7455 93.5217 89.7618 93.265C90.7575 77.6152 88.7839 65.2906 80.9318 38.1073C80.7641 37.5266 80.1177 37.2162 79.5665 37.4639C73.7189 40.0912 70.558 42.0943 67.356 46.7591C67.1309 47.0869 66.7361 47.2589 66.344 47.1926C59.1642 45.9777 54.877 45.7194 47.658 47.1981C47.3429 47.2626 47.0129 47.1741 46.774 46.9586C42.6076 43.2013 39.4997 40.9864 33.1003 37.604C32.5199 37.2973 31.8039 37.6396 31.6615 38.2805Z" fill="white" stroke="black" stroke-width="3"/>
</svg>
