<?xml version="1.0" encoding="UTF-8"?>
<!DOCTYPE svg PUBLIC "-//W3C//DTD SVG 1.1//EN" "http://www.w3.org/Graphics/SVG/1.1/DTD/svg11.dtd">
<svg xmlns="http://www.w3.org/2000/svg" version="1.1" width="1280px" height="492px" style="shape-rendering:geometricPrecision; text-rendering:geometricPrecision; image-rendering:optimizeQuality; fill-rule:evenodd; clip-rule:evenodd" xmlns:xlink="http://www.w3.org/1999/xlink">
<g><path style="opacity:0.835" fill="#090a05" d="M 696.5,5.5 C 778.193,13.4483 859.193,26.6149 939.5,45C 974.323,53.0392 1008.99,61.7058 1043.5,71C 1121.97,93.1176 1200.63,114.618 1279.5,135.5C 1279.5,136.5 1279.5,137.5 1279.5,138.5C 1194.38,115.851 1109.38,92.6839 1024.5,69C 936.963,45.4107 848.296,27.4107 758.5,15C 713.326,9.51328 667.993,6.34662 622.5,5.5C 497.157,3.59362 373.491,17.0936 251.5,46C 166.108,66.1806 82.1084,91.0139 -0.5,120.5C -0.5,119.167 -0.5,117.833 -0.5,116.5C 115.962,74.0505 235.295,42.2172 357.5,21C 469.88,2.11364 582.88,-3.05303 696.5,5.5 Z"/></g>
<g><path style="opacity:1" fill="#c5e26e" d="M 622.5,5.5 C 667.993,6.34662 713.326,9.51328 758.5,15C 848.296,27.4107 936.963,45.4107 1024.5,69C 1109.38,92.6839 1194.38,115.851 1279.5,138.5C 1279.5,256.167 1279.5,373.833 1279.5,491.5C 852.833,491.5 426.167,491.5 -0.5,491.5C -0.5,370.5 -0.5,249.5 -0.5,128.5C 115.938,92.3902 233.938,62.2235 353.5,38C 442.523,20.536 532.19,9.70265 622.5,5.5 Z"/></g>
<g><path style="opacity:0.972" fill="#c2df6d" d="M 696.5,5.5 C 774.517,7.13508 851.851,15.3018 928.5,30C 974.422,38.8509 1020.09,48.8509 1065.5,60C 1136.95,77.8752 1208.28,96.0419 1279.5,114.5C 1279.5,121.5 1279.5,128.5 1279.5,135.5C 1200.63,114.618 1121.97,93.1176 1043.5,71C 1008.99,61.7058 974.323,53.0392 939.5,45C 859.193,26.6149 778.193,13.4483 696.5,5.5 Z"/></g>
</svg>
