<svg width="115" height="115" viewBox="0 0 115 115" fill="none" xmlns="http://www.w3.org/2000/svg">
<circle cx="57.5" cy="57.5" r="57.5" fill="#ECECEC"/>
<circle cx="58" cy="58" r="48.5" fill="#87B5FA" stroke="black" stroke-width="3"/>
<path d="M32.6615 38.2805C26.3128 66.8566 24.1252 80.3027 25.3065 93.2804C25.3292 93.5292 25.4477 93.7622 25.6345 93.9281C46.0398 112.046 74.9372 107.865 90.4401 93.9352C90.6315 93.7633 90.7455 93.5217 90.7618 93.265C91.7575 77.6152 89.7839 65.2906 81.9318 38.1073C81.7641 37.5266 81.1177 37.2162 80.5665 37.4639C74.7189 40.0912 71.558 42.0943 68.356 46.7591C68.1309 47.0869 67.7361 47.2589 67.344 47.1926C60.1642 45.9777 55.877 45.7194 48.658 47.1981C48.3429 47.2626 48.0129 47.1741 47.774 46.9586C43.6076 43.2013 40.4997 40.9864 34.1003 37.604C33.5199 37.2973 32.8039 37.6396 32.6615 38.2805Z" fill="white" stroke="black" stroke-width="3"/>
</svg>
