<svg width="165" height="191" viewBox="0 0 165 191" fill="none" xmlns="http://www.w3.org/2000/svg">
<path d="M136.655 189.5H23.0087C18.3277 189.5 14.273 186.253 13.2503 181.685L1.62228 129.746C0.659022 125.444 2.62731 121.018 6.4675 118.852L17.1404 112.831C18.6856 111.959 19.9711 110.692 20.865 109.16L32.5355 89.1534C33.1727 88.0611 33.5969 86.8577 33.7857 85.6073L35.9131 71.5133C36.7733 65.8141 42.2606 62.0201 47.8964 63.2278L49.1989 63.5069C54.4093 64.6234 59.5799 61.4582 60.9553 56.3101L73.3681 9.85098C74.8133 4.44172 80.4178 1.27292 85.7979 2.82313L103.076 7.80157C112.6 10.5456 112.759 23.9828 103.303 26.9515L101.826 27.4149C96.447 29.1039 93.5267 34.9039 95.3735 40.2312L102.641 61.1944C103.751 64.3966 107.788 65.3978 110.266 63.0853C111.624 61.818 113.602 61.4722 115.309 62.2039L131.291 69.0534C137.167 71.5714 138.382 79.3691 133.551 83.5555C130.815 85.9266 129.844 89.7494 131.115 93.1393L136.463 107.402C137.443 110.014 139.469 112.099 142.053 113.151L156.479 119.028C161.295 120.991 163.804 126.317 162.248 131.28L146.197 182.491C144.89 186.662 141.025 189.5 136.655 189.5Z" fill="white" stroke="black" stroke-width="2"/>
<rect x="53.752" y="132.019" width="55.554" height="45.1553" fill="white"/>
<path d="M56.8389 88.4207H104.163L101.076 126.829H61.7256L56.8389 88.4207Z" fill="white"/>
<path d="M68.6689 57.2791H91.8165V84.7874H70.4693L68.6689 57.2791Z" fill="white"/>
<path d="M15.6875 135.912L44.4933 132.019V179.25H23.9177L15.6875 135.912Z" fill="white"/>
<path d="M119.594 134.614H146.856L136.569 179.25H119.594V134.614Z" fill="white"/>
<path d="M59.5596 177.372H101.108" stroke="black" stroke-width="2"/>
<path d="M57.5566 135.364C75.7373 134.479 85.6936 134.527 103.11 135.364" stroke="black" stroke-width="2"/>
<path d="M64.9284 118.702L60.7178 119.316C60.6132 119.331 60.5083 119.364 60.4139 119.412C51.8892 123.691 52.3751 127.457 57.2882 134.909C57.4846 135.207 57.834 135.378 58.1901 135.355C75.8007 134.22 85.6368 134.455 102.573 135.363C102.918 135.381 103.255 135.219 103.451 134.933C107.587 128.894 108.269 125.382 100.308 119.488C100.178 119.391 100.023 119.326 99.8626 119.302L95.9082 118.707C95.3676 118.626 94.8619 118.994 94.7729 119.533L94.0703 123.791C93.9906 124.274 93.5731 124.629 93.0837 124.629H87.7572C87.2049 124.629 86.7572 124.181 86.7572 123.629V119.561C86.7572 119.009 86.3094 118.561 85.7572 118.561H74.9088C74.3565 118.561 73.9088 119.009 73.9088 119.561V123.629C73.9088 124.181 73.4611 124.629 72.9088 124.629H67.7492C67.2597 124.629 66.8422 124.274 66.7625 123.791L66.0592 119.529C65.9705 118.991 65.4677 118.624 64.9284 118.702Z" fill="#FBA094" stroke="black" stroke-width="2"/>
<path d="M88.6721 176.7C100.844 142.67 61.6369 137.402 72.1994 176.617C72.3159 177.049 72.7171 177.372 73.165 177.372H87.7324C88.1497 177.372 88.5316 177.093 88.6721 176.7Z" fill="#FBA094" stroke="black" stroke-width="2"/>
<path d="M41.7043 179.084H24.5068C24.0285 179.084 23.6171 178.745 23.5254 178.276L15.8408 138.943" stroke="black" stroke-width="2"/>
<path d="M14.7968 139.246C23.269 135.856 28.3645 134.736 36.8873 134.162C37.2793 134.135 37.6241 133.882 37.7583 133.513C40.2191 126.738 39.2629 124.241 32.8846 122.955C32.7611 122.93 32.6308 122.929 32.507 122.952L30.3955 123.346C29.8314 123.451 29.4713 124.008 29.6072 124.566L29.9713 126.059C30.0954 126.569 29.8055 127.087 29.3069 127.248L26.8769 128.032C26.3239 128.211 25.7358 127.882 25.5982 127.317L25.2656 125.953C25.131 125.4 24.5632 125.071 24.0168 125.229L18.9747 126.684C18.4428 126.838 18.1368 127.394 18.2923 127.926L18.7315 129.427C18.8863 129.957 18.5833 130.512 18.0541 130.667L16.5717 131.104C16.1402 131.231 15.677 131.054 15.4397 130.672L14.5217 129.194C14.235 128.732 13.6318 128.584 13.1637 128.86L9.8716 130.804C9.39195 131.087 9.23621 131.708 9.52527 132.184L13.5637 138.837C13.8185 139.256 14.3409 139.428 14.7968 139.246Z" fill="#FBA094" stroke="black" stroke-width="2"/>
<path d="M119.796 178.928H136.331C136.807 178.928 137.217 178.593 137.311 178.126L145.159 139.254" stroke="black" stroke-width="2"/>
<path d="M146.363 139.575C137.829 136.365 132.662 134.954 123.536 134.154C123.279 134.132 123.034 134.008 122.864 133.814C116.196 126.203 115.166 122.928 128.048 122.917C128.106 122.917 128.167 122.922 128.225 122.933L130.604 123.355C131.168 123.455 131.533 124.009 131.403 124.567L131.012 126.243C130.896 126.741 131.174 127.246 131.656 127.414L133.807 128.167C134.352 128.357 134.944 128.048 135.1 127.492L135.537 125.931C135.689 125.388 136.259 125.078 136.797 125.245L141.915 126.836C142.423 126.994 142.719 127.523 142.587 128.038L142.208 129.523C142.082 130.015 142.345 130.522 142.818 130.704L144.138 131.211C144.546 131.368 145.009 131.241 145.281 130.897L146.611 129.214C146.925 128.817 147.485 128.717 147.917 128.98L151.168 130.966C151.631 131.249 151.784 131.849 151.513 132.319L147.586 139.138C147.341 139.563 146.823 139.748 146.363 139.575Z" fill="#FBA094" stroke="black" stroke-width="2"/>
<path d="M44.4232 91.9704L35.5912 111.372C35.4498 111.683 35.4818 112.053 35.6687 112.338C45.5134 127.376 50.4711 127.142 57.6634 111.738C57.8037 111.438 57.7879 111.078 57.6166 110.795L46.1894 91.8679C45.7737 91.1793 44.7565 91.2384 44.4232 91.9704Z" fill="#FBA094" stroke="black" stroke-width="2"/>
<path d="M114.497 91.8458L103.043 110.958C102.875 111.237 102.858 111.59 102.992 111.887C110.463 128.454 115.416 129.434 125.525 112.493C125.695 112.207 125.717 111.846 125.574 111.546L116.258 91.9309C115.915 91.2096 114.907 91.161 114.497 91.8458Z" fill="#FBA094" stroke="black" stroke-width="2"/>
<path d="M59.2253 111.404L57.5566 93.2002" stroke="black" stroke-width="2"/>
<path d="M102.108 111.248L103.777 93.0444" stroke="black" stroke-width="2"/>
<path d="M105.213 93.0889C85.9541 90.7255 74.8108 90.5192 55.798 93.0765C55.2855 93.1454 54.7979 92.8147 54.6812 92.311L51.9698 80.6012C51.835 80.0191 52.2374 79.4495 52.831 79.382L57.681 78.8305C58.1821 78.7735 58.6472 79.0986 58.7659 79.5887L59.541 82.7893C59.6496 83.238 60.0513 83.5539 60.5129 83.5539H62.267C62.8676 83.5539 63.3327 83.0284 63.2596 82.4323L62.8671 79.2301C62.7941 78.634 63.2592 78.1084 63.8597 78.1084H69.1241C69.5829 78.1084 69.9828 78.4206 70.0942 78.8657L70.8832 82.0188C70.9946 82.4638 71.3945 82.776 71.8533 82.776H75.3132C75.9027 82.776 76.3643 82.2687 76.3087 81.6818L76.0152 78.5803C75.9597 77.9934 76.4213 77.4861 77.0108 77.4861H83.4216C83.9739 77.4861 84.4216 77.9338 84.4216 78.4861V81.776C84.4216 82.3283 84.8693 82.776 85.4216 82.776H89.0909C89.5754 82.776 89.9901 82.4288 90.0753 81.952L90.6151 78.9325C90.7003 78.4556 91.1151 78.1084 91.5995 78.1084H97.1062C97.7189 78.1084 98.1875 78.6543 98.0947 79.2599L97.6132 82.4025C97.5204 83.0081 97.9891 83.5539 98.6017 83.5539H100.655C101.116 83.5539 101.518 83.238 101.627 82.7893L102.401 79.5912C102.52 79.1 102.987 78.7748 103.489 78.8333L108.173 79.3792C108.766 79.4483 109.166 80.0171 109.032 80.5981L106.317 92.3222C106.201 92.8212 105.721 93.1513 105.213 93.0889Z" fill="#FBA094"/>
<path d="M74.9582 111.786C75.4696 98.797 65.887 98.9361 67.6014 112.34C67.6679 112.86 68.1401 113.236 68.6626 113.191L74.0597 112.722C74.5497 112.68 74.9388 112.278 74.9582 111.786Z" fill="#FBA094"/>
<path d="M105.213 93.0889C85.9541 90.7255 74.8108 90.5192 55.798 93.0765C55.2855 93.1454 54.7979 92.8147 54.6812 92.311L51.9698 80.6012C51.835 80.0191 52.2374 79.4495 52.831 79.382L57.681 78.8305C58.1821 78.7735 58.6472 79.0986 58.7659 79.5887L59.541 82.7893C59.6496 83.238 60.0513 83.5539 60.5129 83.5539H62.267C62.8676 83.5539 63.3327 83.0284 63.2596 82.4323L62.8671 79.2301C62.7941 78.634 63.2592 78.1084 63.8597 78.1084H69.1241C69.5829 78.1084 69.9828 78.4206 70.0942 78.8657L70.8832 82.0188C70.9946 82.4638 71.3945 82.776 71.8533 82.776H75.3132C75.9027 82.776 76.3643 82.2687 76.3087 81.6818L76.0152 78.5803C75.9597 77.9934 76.4213 77.4861 77.0108 77.4861H83.4216C83.9739 77.4861 84.4216 77.9338 84.4216 78.4861V81.776C84.4216 82.3283 84.8693 82.776 85.4216 82.776H89.0909C89.5754 82.776 89.9901 82.4288 90.0753 81.952L90.6151 78.9325C90.7003 78.4556 91.1151 78.1084 91.5995 78.1084H97.1062C97.7189 78.1084 98.1875 78.6543 98.0947 79.2599L97.6132 82.4025C97.5204 83.0081 97.9891 83.5539 98.6017 83.5539H100.655C101.116 83.5539 101.518 83.238 101.627 82.7893L102.401 79.5912C102.52 79.1 102.987 78.7748 103.489 78.8333L108.173 79.3792C108.766 79.4483 109.166 80.0171 109.032 80.5981L106.317 92.3222C106.201 92.8212 105.721 93.1513 105.213 93.0889Z" stroke="black" stroke-width="2"/>
<path d="M74.9582 111.786C75.4696 98.797 65.887 98.9361 67.6014 112.34C67.6679 112.86 68.1401 113.236 68.6626 113.191L74.0597 112.722C74.5497 112.68 74.9388 112.278 74.9582 111.786Z" stroke="black" stroke-width="2"/>
<path d="M93.1317 112.13C95.4201 101.628 86.8065 97.7838 86.4361 111.416C86.4221 111.931 86.8156 112.375 87.3286 112.424L92.0865 112.879C92.5738 112.925 93.0274 112.608 93.1317 112.13Z" fill="#FBA094" stroke="black" stroke-width="2"/>
<path d="M69.7376 77.9528L68.9033 59.9048" stroke="black" stroke-width="2"/>
<path d="M92.084 59.8226C83.5182 58.7553 77.9143 58.5929 68.9348 59.7974C68.14 59.9041 67.5375 59.085 67.8857 58.3627L79.5211 34.2233C79.8837 33.4709 80.9543 33.4683 81.3206 34.2189L93.115 58.3861C93.4648 59.1029 92.8755 59.9212 92.084 59.8226Z" fill="#FBA094"/>
<path d="M83.4467 69.9987C83.5099 60.9604 77.8053 60.4334 77.4319 69.9511C77.4103 70.503 77.8605 70.9514 78.4128 70.9514H82.4674C83.0007 70.9514 83.443 70.5321 83.4467 69.9987Z" fill="#FBA094"/>
<path d="M92.084 59.8226C83.5182 58.7553 77.9143 58.5929 68.9348 59.7974C68.14 59.9041 67.5375 59.085 67.8857 58.3627L79.5211 34.2233C79.8837 33.4709 80.9543 33.4683 81.3206 34.2189L93.115 58.3861C93.4648 59.1029 92.8755 59.9212 92.084 59.8226Z" stroke="black" stroke-width="2"/>
<path d="M83.4467 69.9987C83.5099 60.9604 77.8053 60.4334 77.4319 69.9511C77.4103 70.503 77.8605 70.9514 78.4128 70.9514H82.4674C83.0007 70.9514 83.443 70.5321 83.4467 69.9987Z" stroke="black" stroke-width="2"/>
<path d="M91.2627 77.7972L91.9301 59.9048" stroke="black" stroke-width="2"/>
<path d="M61.4111 112.691L60.0012 123.339C59.938 123.816 59.5441 124.181 59.0636 124.206L56.8888 124.323L59.3591 176.989C59.3787 177.407 59.136 177.794 58.7492 177.952C53.8501 179.955 50.1639 180.425 42.6835 179.639C42.211 179.589 41.8409 179.211 41.7986 178.737L37.0323 125.392L34.7083 125.517C34.2199 125.543 33.7842 125.212 33.6783 124.735L31.1284 113.243C30.9898 112.618 31.465 112.026 32.1046 112.026H36.3127C36.7426 112.026 37.1243 112.301 37.2609 112.708L38.4722 116.323C38.6088 116.73 38.9906 117.005 39.4204 117.005H41.9092C42.5098 117.005 42.9749 116.479 42.9018 115.883L42.5093 112.681C42.4363 112.085 42.9013 111.559 43.5019 111.559H49.302C49.8188 111.559 50.2505 111.953 50.2978 112.468L50.6314 116.096C50.6787 116.611 51.1104 117.005 51.6272 117.005H54.3079C54.8247 117.005 55.2564 116.611 55.3037 116.096L55.6372 112.468C55.6845 111.953 56.1162 111.559 56.633 111.559H60.4198C61.0242 111.559 61.4904 112.091 61.4111 112.691Z" fill="white"/>
<path d="M37.0323 125.392L34.7083 125.517C34.2199 125.543 33.7842 125.212 33.6783 124.735L31.1284 113.243C30.9898 112.618 31.465 112.026 32.1046 112.026H36.3127C36.7426 112.026 37.1243 112.301 37.2609 112.708L38.4722 116.323C38.6088 116.73 38.9906 117.005 39.4204 117.005H41.9092C42.5098 117.005 42.9749 116.479 42.9018 115.883L42.5093 112.681C42.4363 112.085 42.9013 111.559 43.5019 111.559H49.302C49.8188 111.559 50.2505 111.953 50.2978 112.468L50.6314 116.096C50.6787 116.611 51.1104 117.005 51.6272 117.005H54.3079C54.8247 117.005 55.2564 116.611 55.3037 116.096L55.6372 112.468C55.6845 111.953 56.1162 111.559 56.633 111.559H60.4198C61.0242 111.559 61.4904 112.091 61.4111 112.691L60.0012 123.339C59.938 123.816 59.5441 124.181 59.0636 124.206L56.8888 124.323M37.0323 125.392L41.7986 178.737C41.8409 179.211 42.211 179.589 42.6835 179.639C50.1639 180.425 53.8501 179.955 58.7492 177.952C59.136 177.794 59.3787 177.407 59.3591 176.989L56.8888 124.323M37.0323 125.392L56.8888 124.323" stroke="black" stroke-width="2"/>
<path d="M129.766 113.592L127.633 124.864C127.54 125.354 127.101 125.7 126.604 125.677L123.8 125.547L119.362 178.442C119.323 178.908 118.965 179.286 118.502 179.347C111.489 180.276 107.59 180.141 102.134 178.242C101.721 178.098 101.455 177.698 101.475 177.261L103.944 124.621L101.633 124.513C101.139 124.49 100.736 124.109 100.685 123.617L99.5525 112.662C99.4915 112.072 99.9542 111.559 100.547 111.559H104.202C104.718 111.559 105.149 111.952 105.197 112.465L105.527 115.943C105.575 116.457 106.006 116.849 106.522 116.849H109.451C110.004 116.849 110.451 116.402 110.451 115.849V112.618C110.451 112.043 110.935 111.587 111.508 111.62L117.545 111.964C118.128 111.998 118.559 112.521 118.479 113.1L118.102 115.824C118.024 116.385 118.427 116.898 118.989 116.956L121.604 117.227C122.099 117.278 122.556 116.959 122.677 116.477L123.594 112.842C123.713 112.37 124.154 112.053 124.639 112.09L128.859 112.409C129.454 112.453 129.877 113.006 129.766 113.592Z" fill="white"/>
<path d="M103.944 124.621L101.633 124.513C101.139 124.49 100.736 124.109 100.685 123.617L99.5525 112.662C99.4915 112.072 99.9542 111.559 100.547 111.559H104.202C104.718 111.559 105.149 111.952 105.197 112.465L105.527 115.943C105.575 116.457 106.006 116.849 106.522 116.849H109.451C110.004 116.849 110.451 116.402 110.451 115.849V112.618C110.451 112.043 110.935 111.587 111.508 111.62L117.545 111.964C118.128 111.998 118.559 112.521 118.479 113.1L118.102 115.824C118.024 116.385 118.427 116.898 118.989 116.956L121.604 117.227C122.099 117.278 122.556 116.959 122.677 116.477L123.594 112.842C123.713 112.37 124.154 112.053 124.639 112.09L128.859 112.409C129.454 112.453 129.877 113.006 129.766 113.592L127.633 124.864C127.54 125.354 127.101 125.7 126.604 125.677L123.8 125.547M103.944 124.621L101.475 177.261C101.455 177.698 101.721 178.098 102.134 178.242C107.59 180.141 111.489 180.276 118.502 179.347C118.965 179.286 119.323 178.908 119.362 178.442L123.8 125.547M103.944 124.621L123.8 125.547" stroke="black" stroke-width="2"/>
<path d="M100.477 17.4904L81.0861 14.1024C80.7801 14.0489 80.5 14.2844 80.5 14.5949V23.7128L100.518 18.4666C101.038 18.3304 101.006 17.5828 100.477 17.4904Z" fill="#FBA094"/>
<path d="M80.5 33.4255V23.7128M80.5 23.7128V14.5949C80.5 14.2844 80.7801 14.0489 81.0861 14.1024L100.477 17.4904C101.006 17.5828 101.038 18.3304 100.518 18.4666L80.5 23.7128Z" stroke="black" stroke-width="2" stroke-linecap="round"/>
<path d="M56.8229 74.4186L45.8548 72.3861C45.5474 72.3292 45.2637 72.5651 45.2637 72.8778V79.6936L56.9056 75.3791C57.3817 75.2026 57.3222 74.5111 56.8229 74.4186Z" fill="#FBA094"/>
<path d="M45.2637 91.349V79.6936M45.2637 79.6936V72.8778C45.2637 72.5651 45.5474 72.3292 45.8548 72.3861L56.8229 74.4186C57.3222 74.5111 57.3817 75.2026 56.9056 75.3791L45.2637 79.6936Z" stroke="black" stroke-width="2" stroke-linecap="round"/>
<path d="M126.313 75.7249L116.016 73.1391C115.701 73.0598 115.395 73.2985 115.395 73.624V80.0467L126.338 76.6878C126.822 76.5393 126.804 75.8482 126.313 75.7249Z" fill="#FBA094"/>
<path d="M115.395 91.3489V80.0467M115.395 80.0467V73.624C115.395 73.2985 115.701 73.0598 116.016 73.1391L126.313 75.7249C126.804 75.8482 126.822 76.5393 126.338 76.6878L115.395 80.0467Z" stroke="black" stroke-width="2" stroke-linecap="round"/>
</svg>
