<svg width="165" height="191" viewBox="0 0 165 191" fill="none" xmlns="http://www.w3.org/2000/svg">
<path d="M136.655 189.5H23.0087C18.3277 189.5 14.273 186.253 13.2503 181.685L1.62228 129.746C0.659022 125.444 2.62731 121.018 6.4675 118.852L17.1404 112.831C18.6856 111.959 19.9711 110.692 20.865 109.16L32.5355 89.1534C33.1727 88.0611 33.5969 86.8577 33.7857 85.6073L35.9131 71.5133C36.7733 65.8141 42.2606 62.0201 47.8964 63.2278L49.1989 63.5069C54.4093 64.6234 59.5799 61.4582 60.9553 56.3101L73.3681 9.85098C74.8133 4.44172 80.4178 1.27292 85.7979 2.82313L103.076 7.80157C112.6 10.5456 112.759 23.9828 103.303 26.9515L101.826 27.4149C96.447 29.1039 93.5267 34.9039 95.3735 40.2312L102.641 61.1944C103.751 64.3966 107.788 65.3978 110.266 63.0853C111.624 61.818 113.602 61.4722 115.309 62.2039L131.291 69.0534C137.167 71.5714 138.382 79.3691 133.551 83.5555C130.815 85.9266 129.844 89.7494 131.115 93.1393L136.463 107.402C137.443 110.014 139.469 112.099 142.053 113.151L156.479 119.028C161.295 120.991 163.804 126.317 162.248 131.28L146.197 182.491C144.89 186.662 141.025 189.5 136.655 189.5Z" fill="white" stroke="black" stroke-width="2"/>
<rect x="53.752" y="131.519" width="55.554" height="45.1553" fill="white"/>
<path d="M56.8389 87.9207H104.163L101.076 126.329H61.7256L56.8389 87.9207Z" fill="white"/>
<path d="M68.6689 56.7791H91.8165V84.2874H70.4693L68.6689 56.7791Z" fill="white"/>
<path d="M15.6875 135.411L44.4933 131.519V178.75H23.9177L15.6875 135.411Z" fill="white"/>
<path d="M119.594 134.114H146.856L136.569 178.75H119.594V134.114Z" fill="white"/>
<path d="M59.5596 176.872H101.108" stroke="black" stroke-width="2"/>
<path d="M57.5566 134.864C75.7373 133.979 85.6936 134.027 103.11 134.864" stroke="black" stroke-width="2"/>
<path d="M64.9284 118.202L60.7178 118.816C60.6132 118.831 60.5083 118.864 60.4139 118.912C51.8892 123.191 52.3751 126.957 57.2882 134.409C57.4846 134.707 57.834 134.878 58.1901 134.855C75.8007 133.72 85.6368 133.955 102.573 134.863C102.918 134.881 103.255 134.719 103.451 134.433C107.587 128.394 108.269 124.882 100.308 118.988C100.178 118.891 100.023 118.826 99.8626 118.802L95.9082 118.207C95.3676 118.126 94.8619 118.494 94.7729 119.033L94.0703 123.291C93.9906 123.774 93.5731 124.129 93.0837 124.129H87.7572C87.2049 124.129 86.7572 123.681 86.7572 123.129V119.061C86.7572 118.509 86.3094 118.061 85.7572 118.061H74.9088C74.3565 118.061 73.9088 118.509 73.9088 119.061V123.129C73.9088 123.681 73.4611 124.129 72.9088 124.129H67.7492C67.2597 124.129 66.8422 123.774 66.7625 123.291L66.0592 119.029C65.9705 118.491 65.4677 118.124 64.9284 118.202Z" fill="#87B5FA" stroke="black" stroke-width="2"/>
<path d="M88.6721 176.2C100.844 142.17 61.6369 136.902 72.1994 176.117C72.3159 176.549 72.7171 176.872 73.165 176.872H87.7324C88.1497 176.872 88.5316 176.593 88.6721 176.2Z" fill="#87B5FA" stroke="black" stroke-width="2"/>
<path d="M41.7043 178.584H24.5068C24.0285 178.584 23.6171 178.245 23.5254 177.776L15.8408 138.443" stroke="black" stroke-width="2"/>
<path d="M14.7968 138.746C23.269 135.356 28.3645 134.236 36.8873 133.662C37.2793 133.635 37.6241 133.382 37.7583 133.013C40.2191 126.238 39.2629 123.741 32.8846 122.455C32.7611 122.43 32.6308 122.429 32.507 122.452L30.3955 122.846C29.8314 122.951 29.4713 123.508 29.6072 124.066L29.9713 125.559C30.0954 126.069 29.8055 126.587 29.3069 126.748L26.8769 127.532C26.3239 127.711 25.7358 127.382 25.5982 126.817L25.2656 125.453C25.131 124.9 24.5632 124.571 24.0168 124.729L18.9747 126.184C18.4428 126.338 18.1368 126.894 18.2923 127.426L18.7315 128.927C18.8863 129.457 18.5833 130.012 18.0541 130.167L16.5717 130.604C16.1402 130.731 15.677 130.554 15.4397 130.172L14.5217 128.694C14.235 128.232 13.6318 128.084 13.1637 128.36L9.8716 130.304C9.39195 130.587 9.23621 131.208 9.52527 131.684L13.5637 138.337C13.8185 138.756 14.3409 138.928 14.7968 138.746Z" fill="#87B5FA" stroke="black" stroke-width="2"/>
<path d="M119.796 178.428H136.331C136.807 178.428 137.217 178.093 137.311 177.626L145.159 138.754" stroke="black" stroke-width="2"/>
<path d="M146.363 139.075C137.829 135.865 132.662 134.454 123.536 133.654C123.279 133.632 123.034 133.508 122.864 133.314C116.196 125.703 115.166 122.428 128.048 122.417C128.106 122.417 128.167 122.422 128.225 122.433L130.604 122.855C131.168 122.955 131.533 123.509 131.403 124.067L131.012 125.743C130.896 126.241 131.174 126.746 131.656 126.914L133.807 127.667C134.352 127.857 134.944 127.548 135.1 126.992L135.537 125.431C135.689 124.888 136.259 124.578 136.797 124.745L141.915 126.336C142.423 126.494 142.719 127.023 142.587 127.538L142.208 129.023C142.082 129.515 142.345 130.022 142.818 130.204L144.138 130.711C144.546 130.868 145.009 130.741 145.281 130.397L146.611 128.714C146.925 128.317 147.485 128.217 147.917 128.48L151.168 130.466C151.631 130.749 151.784 131.349 151.513 131.819L147.586 138.638C147.341 139.063 146.823 139.248 146.363 139.075Z" fill="#87B5FA" stroke="black" stroke-width="2"/>
<path d="M44.4232 91.4704L35.5912 110.872C35.4498 111.183 35.4818 111.553 35.6687 111.838C45.5134 126.876 50.4711 126.642 57.6634 111.238C57.8037 110.938 57.7879 110.578 57.6166 110.295L46.1894 91.3679C45.7737 90.6793 44.7565 90.7384 44.4232 91.4704Z" fill="#87B5FA" stroke="black" stroke-width="2"/>
<path d="M114.497 91.3458L103.043 110.458C102.875 110.737 102.858 111.09 102.992 111.387C110.463 127.954 115.416 128.934 125.525 111.993C125.695 111.707 125.717 111.346 125.574 111.046L116.258 91.4309C115.915 90.7096 114.907 90.661 114.497 91.3458Z" fill="#87B5FA" stroke="black" stroke-width="2"/>
<path d="M59.2253 110.904L57.5566 92.7002" stroke="black" stroke-width="2"/>
<path d="M102.108 110.748L103.777 92.5444" stroke="black" stroke-width="2"/>
<path d="M105.213 92.5889C85.9541 90.2255 74.8108 90.0192 55.798 92.5765C55.2855 92.6454 54.7979 92.3147 54.6812 91.811L51.9698 80.1012C51.835 79.5191 52.2374 78.9495 52.831 78.882L57.681 78.3305C58.1821 78.2735 58.6472 78.5986 58.7659 79.0887L59.541 82.2893C59.6496 82.738 60.0513 83.0539 60.5129 83.0539H62.267C62.8676 83.0539 63.3327 82.5284 63.2596 81.9323L62.8671 78.7301C62.7941 78.134 63.2592 77.6084 63.8597 77.6084H69.1241C69.5829 77.6084 69.9828 77.9206 70.0942 78.3657L70.8832 81.5188C70.9946 81.9638 71.3945 82.276 71.8533 82.276H75.3132C75.9027 82.276 76.3643 81.7687 76.3087 81.1818L76.0152 78.0803C75.9597 77.4934 76.4213 76.9861 77.0108 76.9861H83.4216C83.9739 76.9861 84.4216 77.4338 84.4216 77.9861V81.276C84.4216 81.8283 84.8693 82.276 85.4216 82.276H89.0909C89.5754 82.276 89.9901 81.9288 90.0753 81.452L90.6151 78.4325C90.7003 77.9556 91.1151 77.6084 91.5995 77.6084H97.1062C97.7189 77.6084 98.1875 78.1543 98.0947 78.7599L97.6132 81.9025C97.5204 82.5081 97.9891 83.0539 98.6017 83.0539H100.655C101.116 83.0539 101.518 82.738 101.627 82.2893L102.401 79.0912C102.52 78.6 102.987 78.2748 103.489 78.3333L108.173 78.8792C108.766 78.9483 109.166 79.5171 109.032 80.0981L106.317 91.8222C106.201 92.3212 105.721 92.6513 105.213 92.5889Z" fill="#87B5FA"/>
<path d="M74.9582 111.286C75.4696 98.297 65.887 98.4361 67.6014 111.84C67.6679 112.36 68.1401 112.736 68.6626 112.691L74.0597 112.222C74.5497 112.18 74.9388 111.778 74.9582 111.286Z" fill="#87B5FA"/>
<path d="M105.213 92.5889C85.9541 90.2255 74.8108 90.0192 55.798 92.5765C55.2855 92.6454 54.7979 92.3147 54.6812 91.811L51.9698 80.1012C51.835 79.5191 52.2374 78.9495 52.831 78.882L57.681 78.3305C58.1821 78.2735 58.6472 78.5986 58.7659 79.0887L59.541 82.2893C59.6496 82.738 60.0513 83.0539 60.5129 83.0539H62.267C62.8676 83.0539 63.3327 82.5284 63.2596 81.9323L62.8671 78.7301C62.7941 78.134 63.2592 77.6084 63.8597 77.6084H69.1241C69.5829 77.6084 69.9828 77.9206 70.0942 78.3657L70.8832 81.5188C70.9946 81.9638 71.3945 82.276 71.8533 82.276H75.3132C75.9027 82.276 76.3643 81.7687 76.3087 81.1818L76.0152 78.0803C75.9597 77.4934 76.4213 76.9861 77.0108 76.9861H83.4216C83.9739 76.9861 84.4216 77.4338 84.4216 77.9861V81.276C84.4216 81.8283 84.8693 82.276 85.4216 82.276H89.0909C89.5754 82.276 89.9901 81.9288 90.0753 81.452L90.6151 78.4325C90.7003 77.9556 91.1151 77.6084 91.5995 77.6084H97.1062C97.7189 77.6084 98.1875 78.1543 98.0947 78.7599L97.6132 81.9025C97.5204 82.5081 97.9891 83.0539 98.6017 83.0539H100.655C101.116 83.0539 101.518 82.738 101.627 82.2893L102.401 79.0912C102.52 78.6 102.987 78.2748 103.489 78.3333L108.173 78.8792C108.766 78.9483 109.166 79.5171 109.032 80.0981L106.317 91.8222C106.201 92.3212 105.721 92.6513 105.213 92.5889Z" stroke="black" stroke-width="2"/>
<path d="M74.9582 111.286C75.4696 98.297 65.887 98.4361 67.6014 111.84C67.6679 112.36 68.1401 112.736 68.6626 112.691L74.0597 112.222C74.5497 112.18 74.9388 111.778 74.9582 111.286Z" stroke="black" stroke-width="2"/>
<path d="M93.1317 111.63C95.4201 101.128 86.8065 97.2838 86.4361 110.916C86.4221 111.431 86.8156 111.875 87.3286 111.924L92.0865 112.379C92.5738 112.425 93.0274 112.108 93.1317 111.63Z" fill="#87B5FA" stroke="black" stroke-width="2"/>
<path d="M69.7376 77.4528L68.9033 59.4048" stroke="black" stroke-width="2"/>
<path d="M92.084 59.3226C83.5182 58.2553 77.9143 58.0929 68.9348 59.2974C68.14 59.4041 67.5375 58.585 67.8857 57.8627L79.5211 33.7233C79.8837 32.9709 80.9543 32.9683 81.3206 33.7189L93.115 57.8861C93.4648 58.6029 92.8755 59.4212 92.084 59.3226Z" fill="#87B5FA"/>
<path d="M83.4467 69.4987C83.5099 60.4604 77.8053 59.9334 77.4319 69.4511C77.4103 70.003 77.8605 70.4514 78.4128 70.4514H82.4674C83.0007 70.4514 83.443 70.0321 83.4467 69.4987Z" fill="#87B5FA"/>
<path d="M92.084 59.3226C83.5182 58.2553 77.9143 58.0929 68.9348 59.2974C68.14 59.4041 67.5375 58.585 67.8857 57.8627L79.5211 33.7233C79.8837 32.9709 80.9543 32.9683 81.3206 33.7189L93.115 57.8861C93.4648 58.6029 92.8755 59.4212 92.084 59.3226Z" stroke="black" stroke-width="2"/>
<path d="M83.4467 69.4987C83.5099 60.4604 77.8053 59.9334 77.4319 69.4511C77.4103 70.003 77.8605 70.4514 78.4128 70.4514H82.4674C83.0007 70.4514 83.443 70.0321 83.4467 69.4987Z" stroke="black" stroke-width="2"/>
<path d="M91.2627 77.2972L91.9301 59.4048" stroke="black" stroke-width="2"/>
<path d="M61.4111 112.191L60.0012 122.839C59.938 123.316 59.5441 123.681 59.0636 123.706L56.8888 123.823L59.3591 176.489C59.3787 176.907 59.136 177.294 58.7492 177.452C53.8501 179.455 50.1639 179.925 42.6835 179.139C42.211 179.089 41.8409 178.711 41.7986 178.237L37.0323 124.892L34.7083 125.017C34.2199 125.043 33.7842 124.712 33.6783 124.235L31.1284 112.743C30.9898 112.118 31.465 111.526 32.1046 111.526H36.3127C36.7426 111.526 37.1243 111.801 37.2609 112.208L38.4722 115.823C38.6088 116.23 38.9906 116.505 39.4204 116.505H41.9092C42.5098 116.505 42.9749 115.979 42.9018 115.383L42.5093 112.181C42.4363 111.585 42.9013 111.059 43.5019 111.059H49.302C49.8188 111.059 50.2505 111.453 50.2978 111.968L50.6314 115.596C50.6787 116.111 51.1104 116.505 51.6272 116.505H54.3079C54.8247 116.505 55.2564 116.111 55.3037 115.596L55.6372 111.968C55.6845 111.453 56.1162 111.059 56.633 111.059H60.4198C61.0242 111.059 61.4904 111.591 61.4111 112.191Z" fill="white"/>
<path d="M37.0323 124.892L34.7083 125.017C34.2199 125.043 33.7842 124.712 33.6783 124.235L31.1284 112.743C30.9898 112.118 31.465 111.526 32.1046 111.526H36.3127C36.7426 111.526 37.1243 111.801 37.2609 112.208L38.4722 115.823C38.6088 116.23 38.9906 116.505 39.4204 116.505H41.9092C42.5098 116.505 42.9749 115.979 42.9018 115.383L42.5093 112.181C42.4363 111.585 42.9013 111.059 43.5019 111.059H49.302C49.8188 111.059 50.2505 111.453 50.2978 111.968L50.6314 115.596C50.6787 116.111 51.1104 116.505 51.6272 116.505H54.3079C54.8247 116.505 55.2564 116.111 55.3037 115.596L55.6372 111.968C55.6845 111.453 56.1162 111.059 56.633 111.059H60.4198C61.0242 111.059 61.4904 111.591 61.4111 112.191L60.0012 122.839C59.938 123.316 59.5441 123.681 59.0636 123.706L56.8888 123.823M37.0323 124.892L41.7986 178.237C41.8409 178.711 42.211 179.089 42.6835 179.139C50.1639 179.925 53.8501 179.455 58.7492 177.452C59.136 177.294 59.3787 176.907 59.3591 176.489L56.8888 123.823M37.0323 124.892L56.8888 123.823" stroke="black" stroke-width="2"/>
<path d="M129.766 113.092L127.633 124.364C127.54 124.854 127.101 125.2 126.604 125.177L123.8 125.047L119.362 177.942C119.323 178.408 118.965 178.786 118.502 178.847C111.489 179.776 107.59 179.641 102.134 177.742C101.721 177.598 101.455 177.198 101.475 176.761L103.944 124.121L101.633 124.013C101.139 123.99 100.736 123.609 100.685 123.117L99.5525 112.162C99.4915 111.572 99.9542 111.059 100.547 111.059H104.202C104.718 111.059 105.149 111.452 105.197 111.965L105.527 115.443C105.575 115.957 106.006 116.349 106.522 116.349H109.451C110.004 116.349 110.451 115.902 110.451 115.349V112.118C110.451 111.543 110.935 111.087 111.508 111.12L117.545 111.464C118.128 111.498 118.559 112.021 118.479 112.6L118.102 115.324C118.024 115.885 118.427 116.398 118.989 116.456L121.604 116.727C122.099 116.778 122.556 116.459 122.677 115.977L123.594 112.342C123.713 111.87 124.154 111.553 124.639 111.59L128.859 111.909C129.454 111.953 129.877 112.506 129.766 113.092Z" fill="white"/>
<path d="M103.944 124.121L101.633 124.013C101.139 123.99 100.736 123.609 100.685 123.117L99.5525 112.162C99.4915 111.572 99.9542 111.059 100.547 111.059H104.202C104.718 111.059 105.149 111.452 105.197 111.965L105.527 115.443C105.575 115.957 106.006 116.349 106.522 116.349H109.451C110.004 116.349 110.451 115.902 110.451 115.349V112.118C110.451 111.543 110.935 111.087 111.508 111.12L117.545 111.464C118.128 111.498 118.559 112.021 118.479 112.6L118.102 115.324C118.024 115.885 118.427 116.398 118.989 116.456L121.604 116.727C122.099 116.778 122.556 116.459 122.677 115.977L123.594 112.342C123.713 111.87 124.154 111.553 124.639 111.59L128.859 111.909C129.454 111.953 129.877 112.506 129.766 113.092L127.633 124.364C127.54 124.854 127.101 125.2 126.604 125.177L123.8 125.047M103.944 124.121L101.475 176.761C101.455 177.198 101.721 177.598 102.134 177.742C107.59 179.641 111.489 179.776 118.502 178.847C118.965 178.786 119.323 178.408 119.362 177.942L123.8 125.047M103.944 124.121L123.8 125.047" stroke="black" stroke-width="2"/>
<path d="M100.477 16.9904L81.0861 13.6024C80.7801 13.5489 80.5 13.7844 80.5 14.0949V23.2128L100.518 17.9666C101.038 17.8304 101.006 17.0828 100.477 16.9904Z" fill="#87B5FA"/>
<path d="M80.5 32.9255V23.2128M80.5 23.2128V14.0949C80.5 13.7844 80.7801 13.5489 81.0861 13.6024L100.477 16.9904C101.006 17.0828 101.038 17.8304 100.518 17.9666L80.5 23.2128Z" stroke="black" stroke-width="2" stroke-linecap="round"/>
<path d="M56.8229 73.9186L45.8548 71.8861C45.5474 71.8292 45.2637 72.0651 45.2637 72.3778V79.1936L56.9056 74.8791C57.3817 74.7026 57.3222 74.0111 56.8229 73.9186Z" fill="#87B5FA"/>
<path d="M45.2637 90.849V79.1936M45.2637 79.1936V72.3778C45.2637 72.0651 45.5474 71.8292 45.8548 71.8861L56.8229 73.9186C57.3222 74.0111 57.3817 74.7026 56.9056 74.8791L45.2637 79.1936Z" stroke="black" stroke-width="2" stroke-linecap="round"/>
<path d="M126.313 75.2249L116.016 72.6391C115.701 72.5598 115.395 72.7985 115.395 73.124V79.5467L126.338 76.1878C126.822 76.0393 126.804 75.3482 126.313 75.2249Z" fill="#87B5FA"/>
<path d="M115.395 90.8489V79.5467M115.395 79.5467V73.124C115.395 72.7985 115.701 72.5598 116.016 72.6391L126.313 75.2249C126.804 75.3482 126.822 76.0393 126.338 76.1878L115.395 79.5467Z" stroke="black" stroke-width="2" stroke-linecap="round"/>
</svg>
