<svg width="35" height="35" viewBox="0 0 35 35" fill="none" xmlns="http://www.w3.org/2000/svg">
<circle cx="17.5" cy="17.5" r="17" fill="#87B5FA" stroke="black"/>
<path d="M8.51302 11.2756C6.45922 20.6218 5.73103 25.2359 6.08635 29.6139C6.10653 29.8625 6.22385 30.0951 6.4124 30.2584C13.4931 36.3872 23.3749 35.0022 28.8231 30.266C29.0168 30.0976 29.1306 29.8565 29.1454 29.6002C29.4498 24.335 28.7784 20.0576 26.2276 11.1016C26.0618 10.5195 25.4168 10.2135 24.8715 10.4761C23.3672 11.2005 22.4134 11.8674 21.4963 13.0979C21.2582 13.4174 20.866 13.5911 20.4726 13.5276C18.2988 13.1772 16.8543 13.1126 14.6477 13.5345C14.3308 13.595 14.0029 13.5062 13.7616 13.292C12.5821 12.2455 11.5969 11.5331 9.94351 10.6156C9.3687 10.2966 8.65411 10.6335 8.51302 11.2756Z" fill="white" stroke="black"/>
</svg>
