<svg width="115" height="115" viewBox="0 0 115 115" fill="none" xmlns="http://www.w3.org/2000/svg">
<circle cx="57.5" cy="57.5" r="56.5" fill="white" stroke="black" stroke-width="2"/>
<path d="M89.5087 80.358C89.5087 101.551 76.622 95.8994 60.7255 95.8994C44.829 95.8994 31.9424 103.166 31.9424 80.358C31.9424 66.8701 44.829 48.2661 60.7255 48.2661C76.622 48.2661 89.5087 66.8701 89.5087 80.358Z" fill="#D0D0D0"/>
<path d="M38.496 45.9824C40.0403 51.9184 36.4798 57.1099 32.065 58.2481C27.6502 59.3863 22.6039 56.6327 21.0596 50.6967C19.5153 44.7607 22.0578 37.8901 26.4726 36.7519C30.8874 35.6137 36.9517 40.0464 38.496 45.9824Z" fill="#D0D0D0"/>
<path d="M56.7328 29.7122C57.6767 36.3939 54.6833 41.6065 50.1669 42.2376C45.6505 42.8687 39.0815 39.4813 38.1376 32.7996C37.1937 26.1178 38.542 18.7926 44.5697 17.9361C50.5975 17.0797 55.789 23.0304 56.7328 29.7122Z" fill="#D0D0D0"/>
<path d="M81.2748 33.245C77.7014 39.7828 72.7957 41.7277 68.7887 39.5613C64.7818 37.3948 61.448 28.8632 65.0214 22.3254C68.5948 15.7877 73.1192 13.3445 78.4762 16.2233C83.8332 19.1021 84.8481 26.7073 81.2748 33.245Z" fill="#D0D0D0"/>
<path d="M83.9174 38.2765C87.3854 33.2072 92.7056 31.837 96.4763 34.3887C100.247 36.9405 99.9444 43.2704 96.4763 48.3397C93.0083 53.409 85.799 55.2807 82.0284 52.7289C78.2577 50.1772 80.4493 43.3458 83.9174 38.2765Z" fill="#D0D0D0"/>
<path d="M83.5087 81.358C83.5087 86.5791 82.7106 89.9896 81.3872 92.2161C80.0948 94.3904 78.2418 95.5347 75.8474 96.103C73.4005 96.6838 70.432 96.6517 66.9868 96.453C66.0969 96.4016 65.1758 96.3392 64.2289 96.275C61.5606 96.0942 58.687 95.8994 55.7255 95.8994C52.3647 95.8994 49.1307 96.2197 46.1729 96.5127C45.5797 96.5714 44.9977 96.629 44.4279 96.6828C40.97 97.009 38.0086 97.1854 35.5676 96.7007C33.1936 96.2292 31.3585 95.1424 30.0706 92.9088C28.7439 90.6078 27.9424 86.9948 27.9424 81.358C27.9424 74.8948 31.0491 67.0891 36.1453 60.8891C41.2397 54.6911 48.1781 50.2661 55.7255 50.2661C63.273 50.2661 70.2114 54.6911 75.3058 60.8891C80.402 67.0891 83.5087 74.8948 83.5087 81.358Z" stroke="black" stroke-width="2"/>
<path d="M32.5276 47.2321C33.9387 52.6558 30.6713 57.2856 26.8132 58.2803C23.0027 59.2627 18.4519 56.9208 17.0279 51.4471C16.3099 48.6871 16.5434 45.6977 17.4662 43.2832C18.399 40.8427 19.9519 39.1766 21.7244 38.7197C23.5285 38.2545 25.836 38.908 27.9582 40.5111C30.0586 42.0977 31.8181 44.5049 32.5276 47.2321Z" stroke="black" stroke-width="2"/>
<path d="M50.7425 30.8506C51.6518 37.2882 48.7363 41.7291 45.027 42.2475C43.0512 42.5235 40.5283 41.9199 38.3797 40.4382C36.2518 38.9708 34.5554 36.6869 34.128 33.6612C33.669 30.4121 33.782 27.0855 34.6833 24.5153C35.5721 21.9804 37.1727 20.2868 39.7119 19.926C42.3343 19.5534 44.8371 20.6468 46.8434 22.6961C48.8541 24.7499 50.2985 27.7077 50.7425 30.8506Z" stroke="black" stroke-width="2"/>
<path d="M75.3951 33.7694C73.6741 36.9181 71.6898 38.8522 69.7649 39.7665C67.8712 40.666 65.9814 40.61 64.2684 39.6838C62.5912 38.777 60.8757 36.3899 60.0287 33.3161C59.1922 30.2808 59.2669 26.7909 60.9011 23.801C62.6408 20.618 64.5353 18.5821 66.5095 17.6438C68.4216 16.735 70.5529 16.7876 72.9988 18.102C77.6604 20.607 78.8327 27.4801 75.3951 33.7694Z" stroke="black" stroke-width="2"/>
<path d="M79.7456 39.837C83.0117 35.0628 87.7445 34.0707 90.9117 36.2141C92.4354 37.2452 93.2231 39.0925 93.1886 41.4072C93.1541 43.7206 92.2874 46.3831 90.6481 48.7792C89.0604 51.1001 86.5974 52.7087 84.0879 53.4342C81.5544 54.1666 79.1484 53.9562 77.593 52.9036C76.2095 51.9673 75.7588 50.1573 76.2429 47.6321C76.7196 45.1457 78.0622 42.2976 79.7456 39.837Z" stroke="black" stroke-width="2"/>
</svg>
