<svg width="24" height="23" viewBox="0 0 24 23" fill="none" xmlns="http://www.w3.org/2000/svg">
<path d="M10.5078 7.76758L12 3.01117L13.4922 7.76758C13.8192 8.80993 14.7851 9.51925 15.8775 9.51925L20.8267 9.51925L16.7481 12.5883L17.65 13.7869L16.7481 12.5883C15.9025 13.2247 15.5492 14.3245 15.866 15.3343L17.4002 20.2249L13.5032 17.2924L12.6013 18.491L13.5032 17.2924C12.613 16.6225 11.387 16.6225 10.4968 17.2924L6.59979 20.2249L8.13405 15.3343C8.45083 14.3245 8.09748 13.2247 7.25186 12.5883L3.1733 9.51925L8.12247 9.51925C9.2149 9.51925 10.1808 8.80993 10.5078 7.76758Z" fill="black" stroke="black" stroke-width="3"/>
</svg>
