<svg width="44" height="42" viewBox="0 0 44 42" fill="none" xmlns="http://www.w3.org/2000/svg">
<path d="M21.598 17.3128C22.2945 16.9873 23.0064 16.7274 23.737 16.5355C24.5506 16.3217 25.403 16.5702 26.052 17.1053C27.7171 18.4781 29.4289 19.9646 30.8733 21.5137C32.8909 23.6774 34.4885 26.1161 35.913 28.7399C37.3626 31.4102 37.8833 35.6292 35.5306 37.9695C34.4334 39.0609 32.7939 39.2767 31.3537 39.38C29.8858 39.4853 28.407 39.4516 26.9367 39.4516C24.7293 39.4516 22.5208 39.4735 20.3135 39.4516L20.2612 39.4511C18.4776 39.4335 16.6776 39.4157 15.2494 38.1382C13.1258 36.2387 12.9659 33.0969 13.6365 30.4571C14.1367 28.4878 14.9597 26.5891 15.72 24.718C16.3448 23.1802 17.0844 21.8343 18.0977 20.5375C19.1174 19.2326 20.0966 18.0144 21.598 17.3128Z" fill="#FBA094"/>
<path d="M6.21911 20.0572C5.56936 17.9387 6.42483 15.715 8.01172 14.2913C8.48753 13.8645 9.14685 13.6832 9.76051 13.8622C10.9682 14.2144 11.9644 15.0762 12.5922 16.2805C13.7297 18.4623 14.2483 21.8658 11.852 23.425C9.74182 24.798 6.82913 22.0461 6.21911 20.0572Z" fill="#FBA094"/>
<path d="M14.5288 6.31498C14.8315 5.33247 15.6133 4.42641 16.4127 3.70527C16.7876 3.36709 17.2602 3.13978 17.7651 3.13656C18.2821 3.13326 18.7987 3.22816 19.2694 3.47353C20.3227 4.02252 20.7569 5.25808 21.1814 6.32009C22.0728 8.55033 22.6461 11.6326 20.7402 13.4953C19.5122 14.6953 18.265 14.7031 16.9506 13.715C15.7331 12.7997 15.2415 11.5373 14.7935 10.0865C14.4029 8.82122 14.1281 7.61604 14.5288 6.31498Z" fill="#FBA094"/>
<path d="M28.0888 5.01687C28.686 3.14927 29.9392 2.37621 31.4331 1.52724C32.0299 1.18809 32.7747 0.998117 33.313 1.42409C34.0027 1.96996 34.422 2.92491 34.707 3.76479C35.149 5.06684 35.1208 6.42557 34.9865 7.78166C34.8705 8.95333 34.7398 10.2482 34.0893 11.2517C33.2992 12.4707 31.6643 13.8335 30.1772 13.8274C28.7703 13.8216 28.1849 11.7663 27.9074 10.6538C27.4591 8.85624 27.5239 6.78354 28.0888 5.01687Z" fill="#FBA094"/>
<path d="M38.315 13.9399C39.2544 13.2325 40.6712 12.407 41.8725 12.1006C42.0551 12.054 42.2454 12.0292 42.4303 12.0657C43.0658 12.1914 43.4751 12.7439 43.688 13.4391C44.3905 15.7323 42.7588 19.2211 40.8544 20.4099C39.6305 21.1739 37.862 21.3332 36.7953 20.2003C36.0765 19.437 35.8908 18.3232 36.0256 17.2975C36.2264 15.7694 37.1625 14.8078 38.315 13.9399Z" fill="#FBA094"/>
<path d="M17.5977 18.3128C18.2943 17.9873 19.0061 17.7274 19.7368 17.5355C20.5504 17.3217 21.4027 17.5702 22.0518 18.1053C23.7169 19.4781 25.4286 20.9646 26.873 22.5137C28.8907 24.6774 30.4883 27.1161 31.9127 29.7399C33.3623 32.4102 33.8831 36.6292 31.5303 38.9695C30.4331 40.0609 28.7936 40.2767 27.3535 40.38C25.8856 40.4853 24.4067 40.4516 22.9364 40.4516C20.729 40.4516 18.5205 40.4735 16.3133 40.4516L16.2609 40.4511C14.4774 40.4335 12.6774 40.4157 11.2491 39.1382C9.12558 37.2387 8.9657 34.0969 9.63623 31.4571C10.1364 29.4878 10.9595 27.5891 11.7197 25.718C12.3446 24.1802 13.0841 22.8343 14.0974 21.5375C15.1172 20.2326 16.0964 19.0144 17.5977 18.3128Z" stroke="black" stroke-width="3" stroke-linecap="round"/>
<path d="M2.21887 21.0572C1.56911 18.9387 2.42458 16.715 4.01148 15.2913C4.48728 14.8645 5.14661 14.6832 5.76027 14.8622C6.96797 15.2144 7.96412 16.0762 8.59198 17.2805C9.72943 19.4623 10.2481 22.8658 7.85172 24.425C5.74157 25.798 2.82889 23.0461 2.21887 21.0572Z" stroke="black" stroke-width="3" stroke-linecap="round"/>
<path d="M10.5286 7.31498C10.8312 6.33247 11.613 5.42641 12.4125 4.70527C12.7874 4.36709 13.2599 4.13978 13.7648 4.13656C14.2819 4.13326 14.7984 4.22816 15.2692 4.47353C16.3225 5.02252 16.7566 6.25808 17.1811 7.32009C18.0725 9.55033 18.6459 12.6326 16.7399 14.4953C15.512 15.6953 14.2647 15.7031 12.9504 14.715C11.7328 13.7997 11.2413 12.5373 10.7933 11.0865C10.4026 9.82122 10.1278 8.61604 10.5286 7.31498Z" stroke="black" stroke-width="3" stroke-linecap="round"/>
<path d="M24.0886 6.01687C24.6857 4.14927 25.939 3.37621 27.4328 2.52724C28.0296 2.18809 28.7745 1.99812 29.3127 2.42409C30.0025 2.96996 30.4217 3.92491 30.7068 4.76479C31.1488 6.06684 31.1205 7.42557 30.9862 8.78166C30.8702 9.95333 30.7395 11.2482 30.0891 12.2517C29.299 13.4707 27.6641 14.8335 26.177 14.8274C24.7701 14.8216 24.1847 12.7663 23.9072 11.6538C23.4589 9.85624 23.5237 7.78354 24.0886 6.01687Z" stroke="black" stroke-width="3" stroke-linecap="round"/>
<path d="M34.3148 14.9399C35.2542 14.2325 36.6709 13.407 37.8723 13.1006C38.0548 13.054 38.2452 13.0292 38.43 13.0657C39.0655 13.1914 39.4748 13.7439 39.6878 14.4391C40.3902 16.7323 38.7586 20.2211 36.8542 21.4099C35.6303 22.1739 33.8618 22.3332 32.795 21.2003C32.0762 20.437 31.8906 19.3232 32.0253 18.2975C32.2261 16.7694 33.1622 15.8078 34.3148 14.9399Z" stroke="black" stroke-width="3" stroke-linecap="round"/>
</svg>
