<svg width="390" height="552" viewBox="0 0 390 552" fill="none" xmlns="http://www.w3.org/2000/svg">
<path d="M259.357 20.1837C247.708 41.2509 243.631 53.8475 239.069 74.6634C238.678 76.4435 239.306 78.3078 240.688 79.4962C269.765 104.507 284.567 113.131 326.45 135.137C328.618 136.276 331.324 135.694 332.359 133.475C340.053 116.982 338.428 76.0987 324.559 28.0927C324.469 27.7809 324.409 27.458 324.377 27.1349C323.737 20.6377 321.763 14.3487 318.567 8.12294C317.302 5.66015 314.178 4.89474 311.884 6.44489C308.486 8.74106 306.258 10.6834 304.76 12.8929C303.259 15.1068 300.729 16.7153 298.115 16.1471C292.551 14.9378 288.564 14.4235 284.19 14.7293C282.264 14.8639 280.376 14.0451 279.257 12.4718C276.214 8.19369 273.543 5.3965 268.858 3.231C266.496 2.13895 263.777 3.44023 262.869 5.87931C261.12 10.5792 260.329 13.8703 259.995 18.0361C259.935 18.7859 259.721 19.5255 259.357 20.1837Z" fill="white" stroke="black" stroke-width="2"/>
<path d="M270.342 13.5583C268.697 10.9839 266.753 13.5782 266.262 15.3206C266.292 17.1381 267.304 17.1316 269.05 16.6087C270.35 16.2192 271.173 14.8596 270.342 13.5583Z" stroke="black" stroke-width="2" stroke-linecap="round"/>
<path d="M315.576 16.8172C314.124 13.4936 310.813 15.2286 309.803 17.4521C310.574 19.4393 311.827 19.7754 313.989 19.4279C315.408 19.1998 316.205 18.2553 315.576 16.8172Z" stroke="black" stroke-width="2" stroke-linecap="round"/>
<path d="M317.659 37.7364C328.385 33.9242 339.668 33.8605 350.852 32.4387" stroke="black" stroke-width="2" stroke-linecap="round"/>
<path d="M319.935 41.2015C326.455 41.5639 332.785 43.0429 339.211 44.1363" stroke="black" stroke-width="2" stroke-linecap="round"/>
<path d="M262.808 30.1356C256.626 27.8604 250.262 26.1305 243.975 24.1922" stroke="black" stroke-width="2" stroke-linecap="round"/>
<path d="M257.71 34.9706C251.036 34.4791 244.422 34.5894 237.736 34.5485" stroke="black" stroke-width="2" stroke-linecap="round"/>
<path d="M271.927 29.984C273.061 30.2301 273.777 30.74 274.663 31.5231C274.997 31.8179 276.888 33.3042 276.867 33.9603C276.841 34.7951 275.233 33.7497 274.424 33.5975C273.267 33.38 272.155 33.3578 270.994 33.2509" stroke="black" stroke-width="2" stroke-linecap="round"/>
<path d="M296.908 35.0766C298.914 32.7621 301.033 32.5621 303.751 31.4625" stroke="black" stroke-width="2" stroke-linecap="round"/>
<path d="M296.423 35.5861L300.604 35.0171" stroke="black" stroke-width="2" stroke-linecap="round"/>
<path d="M285.403 40.0181C283.92 42.3141 280.639 42.1787 278.301 42.8861" stroke="black" stroke-width="2" stroke-linecap="round"/>
<path d="M284.931 41.277C286.301 42.7122 287.874 43.1906 289.654 43.7005" stroke="black" stroke-width="2" stroke-linecap="round"/>
<path d="M356.891 93.3145L236.286 40.0459L219.136 38.1595L229.938 50.4177L351.93 106.858C356.335 102.662 357.461 99.7159 356.891 93.3145Z" fill="white" stroke="black" stroke-width="2"/>
<path d="M233.207 45.494L351.58 98.7686" stroke="black" stroke-width="2"/>
<path d="M351.685 106.831C350.068 103.662 351.76 98.3491 353.974 95.789C354.589 95.0779 355.447 94.6578 356.074 93.9793" stroke="black" stroke-width="2" stroke-linecap="round"/>
<path d="M223.109 42.6225C223.674 41.5896 224.268 40.6403 224.92 39.6768" stroke="black" stroke-width="2" stroke-linecap="round"/>
<path d="M223.382 40.1365C222.785 40.1089 222.728 40.1288 222.668 40.6731C222.596 41.3307 221.232 40.3844 221.24 39.9429C221.248 39.5064 222.991 39.8371 223.265 39.8162C223.527 39.7964 223.685 39.6046 223.94 39.569" stroke="black" stroke-width="2" stroke-linecap="round"/>
<path d="M223.571 42.9243C224.335 41.8709 224.611 40.6452 225.07 39.441" stroke="black" stroke-width="2" stroke-linecap="round"/>
<path d="M230.58 50.9912L230.289 47.8819C230.206 46.9985 230.82 46.2015 231.696 46.0568V46.0568C232.589 45.909 233.207 45.0834 233.098 44.1845L232.98 43.2164C232.87 42.3149 233.381 41.4525 234.225 41.1164L236.777 40.0996" stroke="black" stroke-width="2"/>
<path d="M293.228 64.5495C293.768 64.7864 294.11 64.889 294.567 65.2699C294.949 65.5876 294.94 65.9438 295.23 66.2583C295.419 66.4633 296.209 66.7811 295.957 66.6667C295.229 66.3378 294.507 66.0194 293.737 65.8006C293.498 65.7325 292.822 65.5852 293.055 65.4949C293.757 65.2228 294.574 65.401 295.273 65.5572C296.192 65.7629 296.733 65.8449 296.96 66.812C297.015 67.0489 296.917 67.3104 296.99 67.5421C297.098 67.8838 297.676 67.2622 297.732 67.1835C297.877 66.9811 297.543 67.1839 297.604 66.9668C297.655 66.7876 298.046 65.9421 297.773 65.8043C297.661 65.7475 297.526 65.8507 297.406 65.8896C296.49 66.187 296.519 66.3424 295.402 66.3261C294.331 66.3106 293.413 65.968 292.595 65.2906C292.207 64.9692 292.164 64.9667 292.624 64.9024C294.34 64.6626 296.039 64.3271 297.747 64.0402" stroke="white" stroke-width="2" stroke-linecap="round"/>
<path d="M292.697 63.7363C292.109 64.3934 291.845 65.2078 291.457 65.9901" stroke="white" stroke-width="2" stroke-linecap="round"/>
<path d="M298.834 66.5506C298.71 66.7463 298.507 66.8551 298.386 67.0604C298.126 67.4991 298.227 67.9557 298.2 68.4377C298.153 69.2731 298.218 69.0909 298.418 68.4616C298.539 68.077 298.92 67.6478 299.271 67.4652C299.664 67.2609 299.284 68.0006 299.18 68.0423C298.933 68.1413 299.364 67.3298 299.626 67.3715C299.885 67.4127 299.526 68.1902 299.514 68.2607" stroke="white" stroke-width="2" stroke-linecap="round"/>
<path d="M295.694 59.0345C293.412 61.0145 290.955 63.3211 291.414 66.5181C291.685 68.4022 294.5 68.848 296.216 68.8335C298.404 68.8151 300.644 68.1699 302.122 66.7407" stroke="black" stroke-width="2" stroke-linecap="round"/>
<path d="M271.599 69.8031L272.104 69.3994" stroke="white" stroke-width="2" stroke-linecap="round"/>
<path d="M266.647 67.5798C267.787 68.1135 268.964 68.5557 270.117 69.0621C270.715 69.3252 272.369 70.3681 271.863 69.9549C271.011 69.2596 270.064 68.6843 269.095 68.1694C268.647 67.9317 267.964 67.6007 267.495 67.3721C267.305 67.28 266.696 66.8808 266.411 66.9622C266.202 67.0219 266.048 67.5105 266.299 67.6135C267.88 68.2632 269.468 68.9385 271.06 69.5787C271.653 69.8171 270.607 69.8187 270.543 69.8201C269.409 69.8458 268.802 69.7553 267.73 69.2474C266.91 68.8586 266.251 68.3524 265.709 67.636C265.234 67.0081 265.509 66.9628 265.535 66.367" stroke="white" stroke-width="2" stroke-linecap="round"/>
<path d="M272.652 70.4812C271.579 68.1074 269.83 66.4413 267.187 65.9384C265.393 65.5971 264.188 66.4672 263.692 68.1538C262.908 70.8158 263.74 73.6309 264.332 76.2333" stroke="black" stroke-width="2" stroke-linecap="round"/>
<path d="M220.664 38.8211C220.968 39.1072 221.254 39.3247 221.59 39.5497" stroke="black" stroke-width="2" stroke-linecap="round"/>
<path d="M222.339 41.6822C222.977 41.6228 223.096 41.088 223.293 40.5806" stroke="black" stroke-width="2" stroke-linecap="round"/>
<path d="M222.242 39.2256C222.003 39.3156 221.809 39.4257 221.59 39.5501" stroke="black" stroke-width="2" stroke-linecap="round"/>
<path d="M354.586 98.6724C354.099 99.3491 353.718 99.8366 353.521 100.649C353.378 101.24 353.105 102.268 353.929 101.357C354.616 100.598 354.444 99.7997 354.561 98.8729" stroke="black" stroke-width="2" stroke-linecap="round"/>
<ellipse cx="305.719" cy="47.6524" rx="6.87254" ry="5.86187" transform="rotate(16.378 305.719 47.6524)" fill="#FBA094"/>
<ellipse cx="264.727" cy="42.3145" rx="6.87253" ry="5.86187" fill="#FBA094"/>
<path d="M348.275 114.768C343.36 118.183 339.016 122.149 334.665 126.2C334.019 129.749 332.079 133.062 330.936 136.464C330.923 137.615 333.716 138.961 334.541 138.979C338.318 138.181 342.257 136.908 345.771 135.329C350.56 133.178 356.277 129.663 358.662 124.762C359.778 122.47 360.14 119.944 360.201 117.418C360.239 115.829 360.543 112.491 358.842 111.444C355.82 109.584 350.319 113.347 348.275 114.768Z" fill="white" stroke="black" stroke-width="2" stroke-linecap="round"/>
<path d="M0 31.674C45.3984 17.0951 80.0138 13.5741 129.492 15.4716C179.005 22.9992 199.628 38.2381 227.602 65.6912C251.146 85.162 289.446 116.717 317.977 127.646C340.379 136.227 367.078 143.579 390 143.579V552H0V31.674Z" fill="#C6E36F"/>
<path d="M6.62271e-05 32.7704C254.824 -47.5599 168.714 108.136 389.995 151.691" stroke="black" stroke-width="2"/>
</svg>
