<svg width="390" height="765" viewBox="0 0 390 765" fill="none" xmlns="http://www.w3.org/2000/svg">
<path d="M259.03 48.1596C247.398 69.1983 243.326 81.7788 238.769 102.566C238.379 104.346 239.007 106.21 240.388 107.399C269.426 132.376 284.21 140.989 326.036 162.965C328.203 164.104 330.909 163.522 331.944 161.303C339.626 144.827 338.002 103.999 324.152 56.058C324.062 55.7462 324.002 55.4233 323.97 55.1003C323.331 48.6133 321.36 42.3343 318.169 36.1183C316.905 33.6554 313.781 32.8899 311.487 34.4403C308.099 36.7303 305.876 38.6682 304.381 40.8718C302.879 43.085 300.348 44.6936 297.735 44.1256C292.183 42.9191 288.203 42.4058 283.837 42.7105C281.911 42.8449 280.023 42.0261 278.904 40.4529C275.867 36.1836 273.2 33.3912 268.526 31.2293C266.164 30.1368 263.445 31.4382 262.537 33.8773C260.792 38.5679 260.002 41.8537 259.668 46.0121C259.608 46.7618 259.394 47.5014 259.03 48.1596Z" fill="white" stroke="black" stroke-width="2"/>
<path d="M270.002 41.5412C268.359 38.9701 266.418 41.5611 265.928 43.3013C265.958 45.1166 266.969 45.1101 268.712 44.5879C270.01 44.1988 270.833 42.8409 270.002 41.5412Z" stroke="black" stroke-width="2" stroke-linecap="round"/>
<path d="M315.18 44.7961C313.729 41.4766 310.423 43.2095 309.414 45.4302C310.184 47.4149 311.436 47.7506 313.595 47.4035C315.012 47.1757 315.808 46.2324 315.18 44.7961Z" stroke="black" stroke-width="2" stroke-linecap="round"/>
<path d="M317.261 65.6891C327.973 61.8816 339.241 61.818 350.411 60.398" stroke="black" stroke-width="2" stroke-linecap="round"/>
<path d="M319.533 69.1498C326.045 69.5117 332.367 70.9889 338.785 72.0809" stroke="black" stroke-width="2" stroke-linecap="round"/>
<path d="M262.478 58.0978C256.304 55.8254 249.948 54.0977 243.668 52.1618" stroke="black" stroke-width="2" stroke-linecap="round"/>
<path d="M257.387 62.9267C250.72 62.4358 244.116 62.546 237.437 62.5052" stroke="black" stroke-width="2" stroke-linecap="round"/>
<path d="M271.585 57.9464C272.718 58.1922 273.433 58.7014 274.319 59.4836C274.652 59.778 276.541 61.2624 276.52 61.9177C276.493 62.7514 274.888 61.7073 274.079 61.5553C272.924 61.3381 271.813 61.316 270.654 61.2092" stroke="black" stroke-width="2" stroke-linecap="round"/>
<path d="M296.535 63.0326C298.539 60.721 300.655 60.5213 303.37 59.423" stroke="black" stroke-width="2" stroke-linecap="round"/>
<path d="M296.051 63.5414L300.227 62.9731" stroke="black" stroke-width="2" stroke-linecap="round"/>
<path d="M285.045 67.9679C283.564 70.2609 280.286 70.1257 277.952 70.8323" stroke="black" stroke-width="2" stroke-linecap="round"/>
<path d="M284.573 69.2251C285.942 70.6585 287.513 71.1363 289.291 71.6456" stroke="black" stroke-width="2" stroke-linecap="round"/>
<path d="M356.443 121.197L235.99 67.9956L218.861 66.1116L229.649 78.3544L351.488 134.724C355.887 130.533 357.012 127.591 356.443 121.197Z" fill="white" stroke="black" stroke-width="2"/>
<path d="M232.914 73.4369L351.138 126.645" stroke="black" stroke-width="2"/>
<path d="M351.243 134.697C349.628 131.532 351.318 126.226 353.529 123.669C354.144 122.959 355.001 122.539 355.627 121.861" stroke="black" stroke-width="2" stroke-linecap="round"/>
<path d="M222.828 70.5689C223.394 69.5374 223.986 68.5893 224.638 67.627" stroke="black" stroke-width="2" stroke-linecap="round"/>
<path d="M223.101 68.0861C222.505 68.0586 222.449 68.0784 222.389 68.622C222.317 69.2788 220.955 68.3337 220.962 67.8928C220.97 67.4568 222.711 67.7871 222.985 67.7663C223.246 67.7464 223.404 67.5549 223.659 67.5193" stroke="black" stroke-width="2" stroke-linecap="round"/>
<path d="M223.291 70.8704C224.054 69.8183 224.329 68.5942 224.788 67.3915" stroke="black" stroke-width="2" stroke-linecap="round"/>
<path d="M230.29 78.9272L229.999 75.8218C229.917 74.9395 230.531 74.1435 231.405 73.9989V73.9989C232.297 73.8514 232.915 73.0268 232.805 72.1291L232.687 71.164C232.578 70.2626 233.089 69.4002 233.932 69.064L236.479 68.0492" stroke="black" stroke-width="2"/>
<path d="M292.859 92.4684C293.399 92.705 293.74 92.8076 294.197 93.188C294.579 93.5052 294.569 93.861 294.859 94.1751C295.048 94.3798 295.838 94.6973 295.585 94.583C294.859 94.2545 294.137 93.9365 293.369 93.718C293.129 93.65 292.454 93.5028 292.687 93.4127C293.388 93.1409 294.205 93.3188 294.902 93.4749C295.821 93.6803 296.361 93.7623 296.587 94.7281C296.643 94.9647 296.544 95.2259 296.617 95.4573C296.725 95.7985 297.302 95.1778 297.358 95.0991C297.503 94.897 297.169 95.0996 297.231 94.8827C297.281 94.7038 297.672 93.8593 297.4 93.7216C297.287 93.665 297.152 93.7681 297.032 93.8069C296.118 94.1039 296.146 94.2591 295.031 94.2429C293.961 94.2273 293.044 93.8852 292.228 93.2086C291.84 92.8876 291.798 92.8851 292.257 92.8209C293.97 92.5814 295.667 92.2463 297.373 91.9598" stroke="white" stroke-width="2" stroke-linecap="round"/>
<path d="M292.33 91.6563C291.742 92.3125 291.479 93.126 291.091 93.9072" stroke="white" stroke-width="2" stroke-linecap="round"/>
<path d="M298.459 94.4671C298.335 94.6625 298.133 94.7712 298.011 94.9762C297.751 95.4144 297.853 95.8704 297.825 96.3517C297.778 97.1861 297.844 97.0041 298.043 96.3756C298.165 95.9915 298.544 95.5629 298.895 95.3805C299.288 95.1765 298.908 95.9153 298.804 95.9568C298.558 96.0557 298.988 95.2452 299.25 95.2869C299.508 95.328 299.15 96.1046 299.138 96.175" stroke="white" stroke-width="2" stroke-linecap="round"/>
<path d="M295.323 86.9604C293.043 88.9379 290.59 91.2416 291.048 94.4345C291.318 96.3164 294.131 96.7616 295.844 96.7471C298.029 96.7287 300.266 96.0843 301.742 94.6569" stroke="black" stroke-width="2" stroke-linecap="round"/>
<path d="M271.258 97.716L271.763 97.3123" stroke="white" stroke-width="2" stroke-linecap="round"/>
<path d="M266.312 95.495C267.451 96.028 268.627 96.4696 269.777 96.9754C270.375 97.2381 272.027 98.2798 271.522 97.8671C270.67 97.1727 269.725 96.5981 268.757 96.0838C268.31 95.8464 267.628 95.5158 267.159 95.2875C266.97 95.1955 266.361 94.7969 266.076 94.8781C265.868 94.9378 265.714 95.4257 265.964 95.5286C267.544 96.1775 269.13 96.852 270.72 97.4913C271.312 97.7295 270.267 97.731 270.204 97.7325C269.071 97.7581 268.465 97.6677 267.394 97.1605C266.575 96.7722 265.916 96.2666 265.375 95.551C264.901 94.9239 265.176 94.8787 265.202 94.2837" stroke="white" stroke-width="2" stroke-linecap="round"/>
<path d="M272.31 98.3927C271.238 96.0219 269.491 94.3579 266.851 93.8556C265.06 93.5147 263.857 94.3838 263.361 96.0683C262.578 98.7269 263.409 101.538 264 104.138" stroke="black" stroke-width="2" stroke-linecap="round"/>
<path d="M220.387 66.7724C220.69 67.0581 220.976 67.2753 221.312 67.5" stroke="black" stroke-width="2" stroke-linecap="round"/>
<path d="M222.059 69.6298C222.697 69.5706 222.816 69.0364 223.013 68.5296" stroke="black" stroke-width="2" stroke-linecap="round"/>
<path d="M221.963 67.1765C221.725 67.2665 221.53 67.3765 221.312 67.5009" stroke="black" stroke-width="2" stroke-linecap="round"/>
<path d="M354.141 126.549C353.655 127.224 353.274 127.711 353.077 128.522C352.934 129.113 352.661 130.14 353.485 129.23C354.171 128.471 353.999 127.674 354.116 126.749" stroke="black" stroke-width="2" stroke-linecap="round"/>
<ellipse cx="305.335" cy="75.5926" rx="6.86391" ry="5.85451" transform="rotate(16.378 305.335 75.5926)" fill="#FBA094"/>
<ellipse cx="264.394" cy="70.2614" rx="6.8639" ry="5.85451" fill="#FBA094"/>
<path d="M347.838 142.624C342.929 146.035 338.59 149.996 334.244 154.041C333.6 157.586 331.662 160.895 330.521 164.292C330.507 165.443 333.297 166.786 334.121 166.805C337.893 166.008 341.827 164.736 345.337 163.16C350.12 161.01 355.83 157.5 358.212 152.606C359.326 150.316 359.688 147.793 359.748 145.271C359.786 143.684 360.091 140.35 358.391 139.304C355.373 137.447 349.88 141.205 347.838 142.624Z" fill="white" stroke="black" stroke-width="2" stroke-linecap="round"/>
<path d="M0 60.2731C45.5874 45.5872 80.3468 42.0403 130.031 43.9517C179.75 51.5346 200.459 66.8854 228.549 94.5402C252.215 114.173 290.649 145.905 319.367 156.896C341.849 165.5 368.628 172.865 391.623 172.865V790H0V60.2731Z" fill="#C6E36F"/>
<path d="M4.29842e-05 60.6249C249.66 -16.476 167.97 130.987 392.588 180.101" stroke="black" stroke-width="2"/>
</svg>
