<svg width="1280" height="718" viewBox="0 0 1280 718" fill="none" xmlns="http://www.w3.org/2000/svg">
<path d="M-13 170.898C136 122.898 249.609 111.305 412 117.553C574.502 142.337 642.19 192.51 734 282.898V282.898C811.35 347.067 936.971 450.783 1030.83 486.704C1104.32 514.825 1191.84 538.898 1267 538.898V717.898H-13V170.898Z" fill="#C6E36F"/>
<path d="M1.01444e-05 174.149C816 -77.8509 549 404.125 1283.15 564.649" stroke="black" stroke-width="3"/>
<path d="M856.538 191.427C826.301 245.863 816.39 277.363 804.608 331.921C804.223 333.703 804.867 335.594 806.246 336.785C881.65 401.959 917.747 422.717 1027.19 480.15C1029.36 481.288 1032.1 480.73 1033.37 478.64C1055.69 442.025 1052.96 336.573 1016.8 211.776C1016.71 211.464 1016.65 211.141 1016.62 210.818C1014.9 192.226 1008.78 174.329 998.659 156.573C997.288 154.168 994.185 153.42 991.843 154.896C976.346 164.656 968.739 171.339 964.693 181.065C963.666 183.534 961.071 185.085 958.466 184.478C938.811 179.89 927.047 178.123 912.508 179.856C910.591 180.084 908.689 179.248 907.601 177.653C897.569 162.95 890.171 154.679 872.948 148.401C870.503 147.51 867.815 148.777 866.852 151.195C860.509 167.113 858.04 176.341 857.172 189.274C857.122 190.024 856.903 190.77 856.538 191.427Z" fill="white" stroke="black" stroke-width="3"/>
<path d="M882.889 176.518C878.821 170.15 874.012 176.568 872.798 180.878C872.872 185.374 875.377 185.358 879.694 184.064C882.909 183.1 884.946 179.737 882.889 176.518Z" stroke="black" stroke-width="3" stroke-linecap="round"/>
<path d="M994.782 184.579C991.189 176.357 983 180.649 980.5 186.149C982.409 191.065 985.508 191.896 990.857 191.036C994.367 190.472 996.336 188.136 994.782 184.579Z" stroke="black" stroke-width="3" stroke-linecap="round"/>
<path d="M999.935 236.327C1026.47 226.897 1054.37 226.739 1082.04 223.222" stroke="black" stroke-width="3" stroke-linecap="round"/>
<path d="M1005.56 244.896C1021.69 245.793 1037.35 249.451 1053.25 252.156" stroke="black" stroke-width="3" stroke-linecap="round"/>
<path d="M864.254 217.521C848.964 211.893 833.221 207.614 817.668 202.819" stroke="black" stroke-width="3" stroke-linecap="round"/>
<path d="M851.645 229.484C835.134 228.268 818.775 228.541 802.235 228.44" stroke="black" stroke-width="3" stroke-linecap="round"/>
<path d="M886.809 217.15C889.616 217.759 891.387 219.021 893.58 220.958C894.405 221.687 899.082 225.363 899.031 226.986C898.966 229.051 894.989 226.465 892.986 226.089C890.124 225.551 887.375 225.496 884.503 225.231" stroke="black" stroke-width="3" stroke-linecap="round"/>
<path d="M948.605 229.746C953.567 224.021 958.808 223.526 965.532 220.806" stroke="black" stroke-width="3" stroke-linecap="round"/>
<path d="M947.406 231.003L957.749 229.596" stroke="black" stroke-width="3" stroke-linecap="round"/>
<path d="M920.146 241.969C916.477 247.649 908.36 247.314 902.579 249.064" stroke="black" stroke-width="3" stroke-linecap="round"/>
<path d="M918.977 245.082C922.367 248.632 926.259 249.815 930.662 251.077" stroke="black" stroke-width="3" stroke-linecap="round"/>
<path d="M1096.98 373.806L798.651 242.04L756.228 237.374L782.948 267.696L1084.71 407.307C1095.6 396.927 1098.39 389.64 1096.98 373.806Z" fill="white" stroke="black" stroke-width="3"/>
<path d="M791.035 255.516L1083.84 387.297" stroke="black" stroke-width="3"/>
<path d="M1084.1 407.241C1080.1 399.401 1084.29 386.26 1089.76 379.927C1091.29 378.168 1093.41 377.129 1094.96 375.451" stroke="black" stroke-width="3" stroke-linecap="round"/>
<path d="M766.054 248.412C767.454 245.857 768.922 243.509 770.536 241.126" stroke="black" stroke-width="3" stroke-linecap="round"/>
<path d="M766.73 242.263C765.255 242.195 765.114 242.244 764.966 243.59C764.787 245.217 761.414 242.876 761.433 241.784C761.452 240.704 765.763 241.522 766.443 241.471C767.09 241.422 767.48 240.947 768.111 240.859" stroke="black" stroke-width="3" stroke-linecap="round"/>
<path d="M767.199 249.16C769.088 246.555 769.771 243.523 770.907 240.544" stroke="black" stroke-width="3" stroke-linecap="round"/>
<path d="M784.534 269.115L783.625 259.4C783.527 258.355 784.254 257.412 785.29 257.241L789.357 256.568C790.414 256.393 791.146 255.416 791.016 254.353L790.196 247.629C790.086 246.727 790.598 245.865 791.441 245.529L799.863 242.173" stroke="black" stroke-width="3"/>
<path d="M939.501 302.652C940.837 303.238 941.683 303.492 942.815 304.434C943.76 305.22 943.736 306.101 944.455 306.879C944.923 307.386 946.877 308.172 946.252 307.889C944.453 307.076 942.666 306.288 940.763 305.747C940.17 305.578 938.498 305.214 939.074 304.991C940.811 304.317 942.833 304.758 944.56 305.145C946.835 305.653 948.174 305.856 948.734 308.249C948.871 308.834 948.627 309.481 948.808 310.055C949.075 310.9 950.504 309.362 950.643 309.167C951.001 308.667 950.175 309.169 950.328 308.631C950.454 308.188 951.421 306.097 950.746 305.756C950.468 305.615 950.133 305.871 949.837 305.967C947.572 306.703 947.642 307.087 944.879 307.047C942.23 307.008 939.96 306.161 937.937 304.485C936.977 303.69 936.871 303.684 938.008 303.525C942.252 302.932 946.455 302.102 950.681 301.392" stroke="white" stroke-width="3" stroke-linecap="round"/>
<path d="M938.189 300.641C936.735 302.266 936.082 304.281 935.122 306.216" stroke="white" stroke-width="3" stroke-linecap="round"/>
<path d="M953.371 307.6C953.063 308.084 952.563 308.354 952.262 308.861C951.618 309.947 951.869 311.076 951.802 312.268C951.685 314.335 951.848 313.884 952.34 312.327C952.642 311.376 953.582 310.315 954.452 309.863C955.425 309.357 954.484 311.187 954.226 311.29C953.615 311.535 954.681 309.528 955.329 309.631C955.969 309.733 955.082 311.656 955.053 311.831" stroke="white" stroke-width="3" stroke-linecap="round"/>
<path d="M945.602 289.009C939.957 293.907 933.881 299.612 935.016 307.52C935.685 312.181 942.65 313.284 946.894 313.248C952.306 313.202 957.847 311.606 961.502 308.071" stroke="black" stroke-width="3" stroke-linecap="round"/>
<path d="M886 315.649L887.25 314.649" stroke="white" stroke-width="3" stroke-linecap="round"/>
<path d="M873.75 310.149C876.572 311.469 879.483 312.563 882.333 313.816C883.814 314.466 887.906 317.046 886.653 316.024C884.545 314.304 882.203 312.881 879.806 311.607C878.699 311.02 877.009 310.201 875.847 309.635C875.38 309.408 873.871 308.42 873.167 308.621C872.65 308.769 872.269 309.978 872.889 310.232C876.802 311.84 880.729 313.51 884.667 315.094C886.133 315.683 883.546 315.687 883.389 315.691C880.583 315.754 879.082 315.53 876.431 314.274C874.401 313.312 872.771 312.06 871.431 310.288C870.256 308.735 870.936 308.623 871 307.149" stroke="white" stroke-width="3" stroke-linecap="round"/>
<path d="M888.606 317.325C885.952 311.454 881.624 307.332 875.086 306.088C870.649 305.244 867.67 307.396 866.442 311.568C864.503 318.153 866.561 325.116 868.026 331.554" stroke="black" stroke-width="3" stroke-linecap="round"/>
<path d="M760.007 239.012C760.759 239.719 761.466 240.257 762.298 240.814" stroke="black" stroke-width="3" stroke-linecap="round"/>
<path d="M764.15 246.088C765.729 245.942 766.023 244.619 766.511 243.363" stroke="black" stroke-width="3" stroke-linecap="round"/>
<path d="M763.912 240.01C763.321 240.233 762.839 240.506 762.298 240.814" stroke="black" stroke-width="3" stroke-linecap="round"/>
<path d="M1091.28 387.059C1090.07 388.733 1089.13 389.939 1088.64 391.948C1088.29 393.411 1087.61 395.953 1089.65 393.699C1091.35 391.822 1090.93 389.848 1091.22 387.555" stroke="black" stroke-width="3" stroke-linecap="round"/>
<ellipse cx="970.399" cy="260.854" rx="17" ry="14.5" transform="rotate(16.378 970.399 260.854)" fill="#FBA094"/>
<ellipse cx="869" cy="247.649" rx="17" ry="14.5" fill="#FBA094"/>
<path d="M1075.67 426.871C1063.51 435.32 1052.76 445.13 1042 455.149C1040.4 463.929 1035.61 472.123 1032.78 480.538C1032.74 483.387 1039.65 486.715 1041.69 486.76C1051.04 484.786 1060.78 481.638 1069.47 477.732C1081.32 472.409 1095.46 463.716 1101.36 451.594C1104.12 445.923 1105.02 439.675 1105.17 433.427C1105.26 429.497 1106.01 421.239 1101.81 418.649C1094.33 414.048 1080.72 423.357 1075.67 426.871Z" fill="white" stroke="black" stroke-width="3" stroke-linecap="round"/>
</svg>
