<svg width="266" height="361" viewBox="0 0 266 361" fill="none" xmlns="http://www.w3.org/2000/svg">
<rect x="16" width="250" height="345" rx="10" fill="#FBA094"/>
<rect x="1.5" y="17.5" width="247" height="342" rx="8.5" fill="white" stroke="black" stroke-width="3"/>
<path d="M27.448 296C27.288 296 27.152 295.944 27.04 295.832C26.928 295.72 26.872 295.576 26.872 295.4V279.8C26.872 279.624 26.928 279.48 27.04 279.368C27.152 279.256 27.296 279.2 27.472 279.2H29.632C29.808 279.2 29.944 279.256 30.04 279.368C30.152 279.48 30.208 279.624 30.208 279.8V290.816L38.104 279.584C38.168 279.504 38.256 279.424 38.368 279.344C38.48 279.248 38.624 279.2 38.8 279.2H40.792C40.952 279.2 41.088 279.256 41.2 279.368C41.312 279.48 41.368 279.624 41.368 279.8V295.424C41.368 295.584 41.312 295.72 41.2 295.832C41.088 295.944 40.952 296 40.792 296H38.632C38.456 296 38.312 295.944 38.2 295.832C38.088 295.72 38.032 295.584 38.032 295.424V284.624L30.16 295.616C30.112 295.68 30.032 295.76 29.92 295.856C29.808 295.952 29.656 296 29.464 296H27.448ZM45.3944 296C45.2344 296 45.0984 295.944 44.9864 295.832C44.8744 295.72 44.8184 295.584 44.8184 295.424V284.096C44.8184 283.936 44.8744 283.8 44.9864 283.688C45.0984 283.576 45.2344 283.52 45.3944 283.52H47.3864C47.5624 283.52 47.6984 283.576 47.7944 283.688C47.9064 283.8 47.9624 283.936 47.9624 284.096V288.392H53.3864V284.096C53.3864 283.936 53.4424 283.8 53.5544 283.688C53.6664 283.576 53.8024 283.52 53.9624 283.52H55.9544C56.1144 283.52 56.2504 283.576 56.3624 283.688C56.4744 283.8 56.5304 283.936 56.5304 284.096V295.424C56.5304 295.584 56.4744 295.72 56.3624 295.832C56.2504 295.944 56.1144 296 55.9544 296H53.9624C53.8024 296 53.6664 295.944 53.5544 295.832C53.4424 295.72 53.3864 295.584 53.3864 295.424V290.912H47.9624V295.424C47.9624 295.584 47.9064 295.72 47.7944 295.832C47.6984 295.944 47.5624 296 47.3864 296H45.3944ZM66.3475 300.56C66.1715 300.56 66.0275 300.504 65.9155 300.392C65.8195 300.28 65.7715 300.144 65.7715 299.984V296C64.3315 296 63.1395 295.784 62.1955 295.352C61.2675 294.904 60.5635 294.28 60.0835 293.48C59.6195 292.68 59.3555 291.744 59.2915 290.672C59.2595 290.064 59.2595 289.456 59.2915 288.848C59.3555 287.776 59.6275 286.84 60.1075 286.04C60.6035 285.24 61.3235 284.624 62.2675 284.192C63.2115 283.744 64.3795 283.52 65.7715 283.52V279.536C65.7715 279.376 65.8195 279.24 65.9155 279.128C66.0275 279.016 66.1715 278.96 66.3475 278.96H68.3155C68.4915 278.96 68.6275 279.016 68.7235 279.128C68.8355 279.24 68.8915 279.376 68.8915 279.536V283.52C70.2995 283.52 71.4675 283.744 72.3955 284.192C73.3395 284.624 74.0515 285.24 74.5315 286.04C75.0275 286.84 75.2995 287.776 75.3475 288.848C75.3955 289.456 75.3955 290.064 75.3475 290.672C75.2995 291.744 75.0355 292.68 74.5555 293.48C74.0915 294.28 73.3875 294.904 72.4435 295.352C71.5155 295.784 70.3315 296 68.8915 296V299.984C68.8915 300.144 68.8355 300.28 68.7235 300.392C68.6275 300.504 68.4915 300.56 68.3155 300.56H66.3475ZM65.7715 293.624V285.896C64.6675 285.896 63.8435 286.16 63.2995 286.688C62.7715 287.216 62.4835 288.008 62.4355 289.064C62.4195 289.288 62.4115 289.528 62.4115 289.784C62.4115 290.024 62.4195 290.248 62.4355 290.456C62.4995 291.528 62.7955 292.328 63.3235 292.856C63.8515 293.368 64.6675 293.624 65.7715 293.624ZM68.8915 293.624C70.0115 293.624 70.8355 293.36 71.3635 292.832C71.8915 292.304 72.1795 291.512 72.2275 290.456C72.2435 290.248 72.2515 290.024 72.2515 289.784C72.2515 289.528 72.2435 289.288 72.2275 289.064C72.1955 287.992 71.8995 287.2 71.3395 286.688C70.7955 286.16 69.9795 285.896 68.8915 285.896V293.624ZM83.5728 296.24C82.2928 296.24 81.2128 296.016 80.3328 295.568C79.4688 295.12 78.8048 294.488 78.3408 293.672C77.8928 292.856 77.6368 291.904 77.5728 290.816C77.5568 290.528 77.5488 290.176 77.5488 289.76C77.5488 289.344 77.5568 288.992 77.5728 288.704C77.6368 287.6 77.9008 286.648 78.3648 285.848C78.8448 285.032 79.5168 284.4 80.3808 283.952C81.2608 283.504 82.3248 283.28 83.5728 283.28C84.8208 283.28 85.8768 283.504 86.7408 283.952C87.6208 284.4 88.2928 285.032 88.7568 285.848C89.2368 286.648 89.5088 287.6 89.5728 288.704C89.5888 288.992 89.5968 289.344 89.5968 289.76C89.5968 290.176 89.5888 290.528 89.5728 290.816C89.5088 291.904 89.2448 292.856 88.7808 293.672C88.3328 294.488 87.6688 295.12 86.7888 295.568C85.9248 296.016 84.8528 296.24 83.5728 296.24ZM83.5728 293.864C84.4208 293.864 85.0768 293.6 85.5408 293.072C86.0048 292.528 86.2608 291.736 86.3088 290.696C86.3248 290.456 86.3328 290.144 86.3328 289.76C86.3328 289.376 86.3248 289.064 86.3088 288.824C86.2608 287.8 86.0048 287.016 85.5408 286.472C85.0768 285.928 84.4208 285.656 83.5728 285.656C82.7248 285.656 82.0688 285.928 81.6048 286.472C81.1408 287.016 80.8848 287.8 80.8368 288.824C80.8208 289.064 80.8128 289.376 80.8128 289.76C80.8128 290.144 80.8208 290.456 80.8368 290.696C80.8848 291.736 81.1408 292.528 81.6048 293.072C82.0688 293.6 82.7248 293.864 83.5728 293.864ZM92.8559 300.56C92.6959 300.56 92.5599 300.504 92.4479 300.392C92.3359 300.28 92.2799 300.144 92.2799 299.984V284.096C92.2799 283.936 92.3359 283.8 92.4479 283.688C92.5599 283.576 92.6959 283.52 92.8559 283.52H94.7519C94.9279 283.52 95.0639 283.576 95.1599 283.688C95.2719 283.8 95.3279 283.936 95.3279 284.096V285.056C95.7119 284.544 96.2159 284.12 96.8399 283.784C97.4639 283.448 98.2399 283.28 99.1679 283.28C100.016 283.28 100.752 283.416 101.376 283.688C102 283.96 102.52 284.352 102.936 284.864C103.352 285.36 103.672 285.952 103.896 286.64C104.12 287.328 104.248 288.088 104.28 288.92C104.296 289.192 104.304 289.472 104.304 289.76C104.304 290.048 104.296 290.336 104.28 290.624C104.264 291.424 104.144 292.168 103.92 292.856C103.696 293.528 103.368 294.12 102.936 294.632C102.52 295.128 102 295.52 101.376 295.808C100.752 296.096 100.016 296.24 99.1679 296.24C98.3039 296.24 97.5679 296.088 96.9599 295.784C96.3519 295.464 95.8559 295.048 95.4719 294.536V299.984C95.4719 300.144 95.4159 300.28 95.3039 300.392C95.2079 300.504 95.0719 300.56 94.8959 300.56H92.8559ZM98.2799 293.672C98.9679 293.672 99.5039 293.528 99.8879 293.24C100.272 292.936 100.544 292.544 100.704 292.064C100.88 291.584 100.984 291.056 101.016 290.48C101.048 290 101.048 289.52 101.016 289.04C100.984 288.464 100.88 287.936 100.704 287.456C100.544 286.976 100.272 286.592 99.8879 286.304C99.5039 286 98.9679 285.848 98.2799 285.848C97.6239 285.848 97.0879 286 96.6719 286.304C96.2719 286.608 95.9759 287 95.7839 287.48C95.6079 287.944 95.5039 288.424 95.4719 288.92C95.4559 289.208 95.4479 289.512 95.4479 289.832C95.4479 290.152 95.4559 290.464 95.4719 290.768C95.4879 291.248 95.5999 291.712 95.8079 292.16C96.0159 292.592 96.3199 292.952 96.7199 293.24C97.1199 293.528 97.6399 293.672 98.2799 293.672ZM107.526 296C107.366 296 107.238 295.952 107.142 295.856C107.046 295.76 106.998 295.64 106.998 295.496V283.976C106.998 283.848 107.046 283.744 107.142 283.664C107.254 283.568 107.366 283.52 107.478 283.52H109.494C109.766 283.52 109.974 283.656 110.118 283.928L113.814 290.648L117.51 283.928C117.654 283.656 117.862 283.52 118.134 283.52H120.126C120.27 283.52 120.39 283.568 120.486 283.664C120.582 283.744 120.63 283.848 120.63 283.976V295.496C120.63 295.64 120.582 295.76 120.486 295.856C120.39 295.952 120.262 296 120.102 296H118.038C117.878 296 117.75 295.952 117.654 295.856C117.574 295.76 117.534 295.64 117.534 295.496V286.784L118.518 286.952L114.966 293.504C114.886 293.648 114.79 293.784 114.678 293.912C114.566 294.024 114.406 294.08 114.198 294.08H113.406C113.214 294.08 113.062 294.024 112.95 293.912C112.838 293.8 112.742 293.664 112.662 293.504L109.182 287.216L110.094 287.072V295.496C110.094 295.64 110.046 295.76 109.95 295.856C109.854 295.952 109.734 296 109.59 296H107.526ZM127.497 296.24C126.665 296.24 125.913 296.08 125.241 295.76C124.569 295.424 124.033 294.984 123.633 294.44C123.249 293.88 123.057 293.256 123.057 292.568C123.057 291.448 123.505 290.56 124.401 289.904C125.313 289.232 126.513 288.784 128.001 288.56L131.289 288.08V287.576C131.289 286.904 131.121 286.384 130.785 286.016C130.449 285.648 129.873 285.464 129.057 285.464C128.481 285.464 128.009 285.584 127.641 285.824C127.289 286.048 127.025 286.352 126.849 286.736C126.721 286.944 126.537 287.048 126.297 287.048H124.401C124.225 287.048 124.089 287 123.993 286.904C123.913 286.808 123.873 286.68 123.873 286.52C123.889 286.264 123.993 285.952 124.185 285.584C124.377 285.216 124.681 284.864 125.097 284.528C125.513 284.176 126.049 283.88 126.705 283.64C127.361 283.4 128.153 283.28 129.081 283.28C130.089 283.28 130.937 283.408 131.625 283.664C132.329 283.904 132.889 284.232 133.305 284.648C133.721 285.064 134.025 285.552 134.217 286.112C134.409 286.672 134.505 287.264 134.505 287.888V295.424C134.505 295.584 134.449 295.72 134.337 295.832C134.225 295.944 134.089 296 133.929 296H131.985C131.809 296 131.665 295.944 131.553 295.832C131.457 295.72 131.409 295.584 131.409 295.424V294.488C131.201 294.792 130.921 295.08 130.569 295.352C130.217 295.608 129.785 295.824 129.273 296C128.777 296.16 128.185 296.24 127.497 296.24ZM128.313 293.96C128.873 293.96 129.377 293.84 129.825 293.6C130.289 293.36 130.649 292.992 130.905 292.496C131.177 291.984 131.313 291.344 131.313 290.576V290.072L128.913 290.456C127.969 290.6 127.265 290.832 126.801 291.152C126.337 291.472 126.105 291.864 126.105 292.328C126.105 292.68 126.209 292.984 126.417 293.24C126.641 293.48 126.921 293.664 127.257 293.792C127.593 293.904 127.945 293.96 128.313 293.96ZM141.4 296C141.224 296 141.08 295.944 140.968 295.832C140.872 295.72 140.824 295.584 140.824 295.424V286.064H136.912C136.736 286.064 136.592 286.008 136.48 285.896C136.384 285.784 136.336 285.648 136.336 285.488V284.096C136.336 283.936 136.384 283.8 136.48 283.688C136.592 283.576 136.736 283.52 136.912 283.52H147.808C147.984 283.52 148.128 283.576 148.24 283.688C148.352 283.8 148.408 283.936 148.408 284.096V285.488C148.408 285.648 148.352 285.784 148.24 285.896C148.128 286.008 147.984 286.064 147.808 286.064H143.92V295.424C143.92 295.584 143.864 295.72 143.752 295.832C143.64 295.944 143.504 296 143.344 296H141.4ZM150.863 296C150.719 296 150.591 295.944 150.479 295.832C150.367 295.72 150.311 295.592 150.311 295.448V284.096C150.311 283.936 150.367 283.8 150.479 283.688C150.591 283.576 150.727 283.52 150.887 283.52H152.879C153.055 283.52 153.191 283.576 153.287 283.688C153.399 283.8 153.455 283.936 153.455 284.096V293.576L152.615 292.976L159.215 283.904C159.295 283.792 159.383 283.704 159.479 283.64C159.575 283.56 159.703 283.52 159.863 283.52H161.687C161.831 283.52 161.959 283.576 162.071 283.688C162.183 283.784 162.239 283.904 162.239 284.048V295.424C162.239 295.584 162.183 295.72 162.071 295.832C161.959 295.944 161.823 296 161.663 296H159.671C159.495 296 159.351 295.944 159.239 295.832C159.143 295.72 159.095 295.584 159.095 295.424V286.376L159.983 286.496L153.335 295.616C153.271 295.712 153.183 295.8 153.071 295.88C152.975 295.96 152.847 296 152.687 296H150.863ZM165.84 296C165.68 296 165.544 295.944 165.432 295.832C165.32 295.72 165.264 295.584 165.264 295.424V284.096C165.264 283.936 165.32 283.8 165.432 283.688C165.544 283.576 165.68 283.52 165.84 283.52H167.808C167.968 283.52 168.104 283.576 168.216 283.688C168.328 283.8 168.384 283.936 168.384 284.096V288.392H170.112L173.04 283.904C173.104 283.792 173.184 283.704 173.28 283.64C173.392 283.56 173.536 283.52 173.712 283.52H175.848C176.008 283.52 176.136 283.56 176.232 283.64C176.328 283.72 176.376 283.824 176.376 283.952C176.376 284 176.36 284.056 176.328 284.12C176.312 284.168 176.288 284.216 176.256 284.264L172.8 289.52L176.76 295.256C176.84 295.352 176.88 295.456 176.88 295.568C176.88 295.696 176.832 295.8 176.736 295.88C176.64 295.96 176.52 296 176.376 296H173.952C173.792 296 173.656 295.968 173.544 295.904C173.448 295.84 173.36 295.752 173.28 295.64L170.112 290.936H168.384V295.424C168.384 295.584 168.328 295.72 168.216 295.832C168.104 295.944 167.968 296 167.808 296H165.84ZM182.599 296.24C181.767 296.24 181.015 296.08 180.343 295.76C179.671 295.424 179.135 294.984 178.735 294.44C178.351 293.88 178.159 293.256 178.159 292.568C178.159 291.448 178.607 290.56 179.503 289.904C180.415 289.232 181.615 288.784 183.103 288.56L186.391 288.08V287.576C186.391 286.904 186.223 286.384 185.887 286.016C185.551 285.648 184.975 285.464 184.159 285.464C183.583 285.464 183.111 285.584 182.743 285.824C182.391 286.048 182.127 286.352 181.951 286.736C181.823 286.944 181.639 287.048 181.399 287.048H179.503C179.327 287.048 179.191 287 179.095 286.904C179.015 286.808 178.975 286.68 178.975 286.52C178.991 286.264 179.095 285.952 179.287 285.584C179.479 285.216 179.783 284.864 180.199 284.528C180.615 284.176 181.151 283.88 181.807 283.64C182.463 283.4 183.255 283.28 184.183 283.28C185.191 283.28 186.039 283.408 186.727 283.664C187.431 283.904 187.991 284.232 188.407 284.648C188.823 285.064 189.127 285.552 189.319 286.112C189.511 286.672 189.607 287.264 189.607 287.888V295.424C189.607 295.584 189.551 295.72 189.439 295.832C189.327 295.944 189.191 296 189.031 296H187.087C186.911 296 186.767 295.944 186.655 295.832C186.559 295.72 186.511 295.584 186.511 295.424V294.488C186.303 294.792 186.023 295.08 185.671 295.352C185.319 295.608 184.887 295.824 184.375 296C183.879 296.16 183.287 296.24 182.599 296.24ZM183.415 293.96C183.975 293.96 184.479 293.84 184.927 293.6C185.391 293.36 185.751 292.992 186.007 292.496C186.279 291.984 186.415 291.344 186.415 290.576V290.072L184.015 290.456C183.071 290.6 182.367 290.832 181.903 291.152C181.439 291.472 181.207 291.864 181.207 292.328C181.207 292.68 181.311 292.984 181.519 293.24C181.743 293.48 182.023 293.664 182.359 293.792C182.695 293.904 183.047 293.96 183.415 293.96Z" fill="black"/>
<path d="M39.7547 45.7748L27.8487 55.3286C26.3739 56.512 26.3484 58.7481 27.7958 59.9648L39.7547 70.018" stroke="black" stroke-width="5" stroke-linecap="round"/>
<path d="M59 70.2433L70.9061 60.6895C72.3808 59.5061 72.4063 57.27 70.9589 56.0533L59 46" stroke="black" stroke-width="5" stroke-linecap="round"/>
<line x1="2.5" y1="-2.5" x2="41.2443" y2="-2.5" transform="matrix(-0.183681 0.982986 -0.91193 -0.410346 51.0349 35)" stroke="black" stroke-width="5" stroke-linecap="round"/>
<path d="M203 321.519V333.04C203 335.801 205.239 338.04 208 338.04H221C223.761 338.04 226 335.801 226 333.04V321.519C226 318.757 223.761 316.519 221 316.519L208 316.519C205.239 316.519 203 318.757 203 321.519Z" fill="black"/>
<path d="M212.321 326.617L212.137 327.351L212.043 328.072C211.842 329.604 213.034 330.962 214.579 330.962C216.123 330.962 217.315 329.604 217.115 328.072L217.02 327.351L216.908 326.754C216.699 325.644 215.729 324.839 214.6 324.839C213.522 324.839 212.583 325.572 212.321 326.617Z" fill="white"/>
<path d="M206.151 314.586V315.966C206.151 316.791 206.82 317.461 207.645 317.461H207.962C208.963 317.461 209.774 316.65 209.774 315.649V314.731C209.774 311.903 212.066 309.611 214.894 309.611C217.721 309.611 220.014 311.903 220.014 314.731V315.807C220.014 316.72 220.754 317.461 221.668 317.461H221.827C222.653 317.461 223.322 316.791 223.322 315.966V314.586C223.322 309.844 219.478 306 214.736 306C209.995 306 206.151 309.844 206.151 314.586Z" fill="black"/>
</svg>
