<svg width="338" height="200" viewBox="0 0 338 200" fill="none" xmlns="http://www.w3.org/2000/svg">
<path d="M2 183L336 183.143" stroke="black" stroke-width="3" stroke-linecap="round"/>
<path d="M78 183C79.2153 179.986 75.4152 173.292 85.0355 121.042C85.1796 120.259 85.0233 119.421 84.8303 118.649C83.3274 112.636 83.8437 89.2253 85.2663 88.0859C86.7592 86.8901 108.491 85.4258 120.572 96.9047C121.365 97.658 122.478 98.0061 123.544 97.763C145.198 92.8265 162.162 95.024 182.663 97.8862C183.888 98.0571 185.076 97.4449 185.791 96.4364C193.176 86.0297 210.049 83.6735 216.462 83.148C217.926 83.0281 219.192 84.0552 219.439 85.5033C220.416 91.2335 222.693 105.544 222.812 115.088C222.814 115.27 222.833 115.452 222.868 115.631C230.515 155.497 228.777 172.867 228.5 183" stroke="black" stroke-width="3" stroke-linecap="round"/>
<path d="M99.9289 101C97.0218 101 96.3398 105.387 96.1278 108.859C96.0234 110.568 97.4381 112.013 99.1332 111.77C102.913 111.227 107.525 109.558 106.951 105.085C106.585 102.232 102.176 101 99.9289 101Z" stroke="black" stroke-width="3" stroke-linecap="round" stroke-linejoin="round"/>
<path d="M210.833 96.2759C208.471 95.0584 204.805 98.1166 202.256 100.644C201.01 101.88 201.16 103.96 202.602 104.962C205.962 107.294 210.298 109.308 211.278 104.058C211.524 102.739 212.289 97.0262 210.833 96.2759Z" stroke="black" stroke-width="3" stroke-linecap="round" stroke-linejoin="round"/>
<path d="M97 149C70.7365 138.224 46.2681 130.473 25 128" stroke="black" stroke-width="3" stroke-linecap="round"/>
<path d="M90.5 159.265C75.6073 158.125 60.4003 159.177 45.5 159.265" stroke="black" stroke-width="3" stroke-linecap="round"/>
<path d="M210 144.98C243.796 133.753 273.657 129.138 301.5 128" stroke="black" stroke-width="3" stroke-linecap="round"/>
<path d="M217 154L262 163.02" stroke="black" stroke-width="3" stroke-linecap="round"/>
<path d="M100 182.7C102.503 177.21 110.938 175.213 116.278 176.274C119.819 176.977 121.984 179.848 124 182.7" stroke="black" stroke-width="3" stroke-linecap="round"/>
<path d="M116 140C121.806 140.791 128.59 141.024 133.917 143.98C138.877 146.732 131.383 147.219 130.5 147.959" stroke="black" stroke-width="3" stroke-linecap="round"/>
<path d="M187.801 138C184.59 138.742 183.706 138.818 180.524 140.122C178.443 140.975 173.404 142.672 172.107 144.986C171.14 146.712 177.025 147.839 177.801 148.082" stroke="black" stroke-width="3" stroke-linecap="round"/>
<path d="M145 172.378C146.722 170.375 150.808 164.758 153.694 165.008C155.543 165.168 158.505 169.009 160 170.255" stroke="black" stroke-width="3" stroke-linecap="round"/>
<path d="M149.325 72.7067C146.069 70.9838 143.335 66.8143 146.212 64.0583C150.436 64.4701 152.059 62.5433 151.98 67.1954C151.959 68.4372 152.478 74.375 149.325 72.7067Z" fill="#C6E36F"/>
<path d="M187.778 36.2283C186.272 43.9478 186.337 45.543 185.5 52.1791C188.727 50.9218 189.146 49.7437 190.316 46.4607L190.361 46.3339C193.709 36.9402 197.557 27.3051 199.556 17.5757C200.382 13.5509 201.667 7.24785 198.861 3.46942C197.233 1.27741 196.339 3.00376 195.5 4.9502C191.304 14.6823 189.776 25.9859 187.778 36.2283Z" fill="#FFCE70"/>
<path d="M182.359 66C177.016 68.6545 181.929 76.2521 185.484 71.4354C188.739 67.0254 186.312 66 182.359 66Z" fill="#FFCE70"/>
<path d="M142.5 2.22243C132.862 -4.17877 115.39 4.2495 114 14.77C114.185 16.4963 116.738 23.1095 119.833 20.4334C121.187 19.2627 120.11 16.2173 120.556 14.7181C121.393 11.8976 124.732 9.79817 127.167 8.27542C132.126 5.17363 135.791 5.08704 138.389 10.3017C142.18 17.9137 139.674 25.9317 139.083 33.8902C138.811 37.5519 136.193 49.7891 143.028 49.7891C143.321 49.7891 144.766 36.3083 145.111 35.0073C147.811 24.8269 154.087 9.91818 142.5 2.22243Z" fill="#C6E36F"/>
<path d="M143.389 72.6359C141.413 71.5802 139.754 69.0252 141.5 67.3363C144.063 67.5886 145.048 66.408 145 69.2587C144.987 70.0197 145.302 73.6582 143.389 72.6359Z" stroke="black" stroke-width="3" stroke-linecap="round"/>
<path d="M183.778 39.2276C182.272 46.9471 182.337 48.5423 181.5 55.1784C184.727 53.9211 185.146 52.7429 186.316 49.46L186.361 49.3332C189.709 39.9394 193.557 30.3044 195.556 20.575C196.382 16.5502 197.667 10.2471 194.861 6.46869C193.233 4.27668 192.339 6.00303 191.5 7.94946C187.304 17.6816 185.776 28.9852 183.778 39.2276Z" stroke="black" stroke-width="3" stroke-linecap="round"/>
<path d="M177.5 69.2068C173.985 71.1099 177.217 76.5568 179.555 73.1036C181.696 69.9419 180.1 69.2068 177.5 69.2068Z" stroke="black" stroke-width="3" stroke-linecap="round"/>
<path d="M138.5 5.22169C128.862 -1.1795 111.39 7.24876 110 17.7693C110.185 19.4956 112.738 26.1088 115.833 23.4326C117.187 22.2619 116.11 19.2166 116.556 17.7174C117.393 14.8969 120.732 12.7974 123.167 11.2747C128.126 8.1729 131.791 8.0863 134.389 13.301C138.18 20.913 135.674 28.9309 135.083 36.8895C134.811 40.5512 132.193 52.7883 139.028 52.7883C139.321 52.7883 140.766 39.3076 141.111 38.0066C143.811 27.8261 150.087 12.9174 138.5 5.22169Z" stroke="black" stroke-width="3" stroke-linecap="round"/>
<ellipse cx="14.5447" cy="10.5831" rx="14.5447" ry="10.5831" transform="matrix(0.972248 0.233954 -0.208952 0.977926 95.4227 148)" fill="#FBA094"/>
<ellipse cx="14.5727" cy="10.5648" rx="14.5727" ry="10.5648" transform="matrix(0.954581 -0.297952 0.267084 0.963673 182 155.684)" fill="#FBA094"/>
<path d="M289.5 196.939C297.373 195.384 305.976 196.408 314 196.408" stroke="black" stroke-width="3" stroke-linecap="round"/>
<path d="M262 198H270.5" stroke="black" stroke-width="3" stroke-linecap="round"/>
<path d="M180.25 182.25C183.594 177.779 192.157 173.583 197.472 177.083C199.563 178.46 200.953 180.424 202.25 182.5" stroke="black" stroke-width="3" stroke-linecap="round"/>
</svg>
