<svg width="523" height="88" viewBox="0 0 523 88" fill="none" xmlns="http://www.w3.org/2000/svg">
<path d="M389.466 4.27426C327.818 5.38948 282.85 5.39326 220.771 10.0423C173.431 13.5877 102.499 20.8544 55.5991 32.0595C47.8563 33.9093 5.16331 44.5558 3.04423 59.9151C1.80426 68.9025 27.0078 75.7457 31.9633 76.6566C55.2372 80.9346 105.393 82.1254 125.672 82.2839C167.359 82.6099 226.621 80.9289 268.043 78.6965C333.839 75.1505 402.382 70.1037 466.028 56.0462C478.376 53.3189 500.485 47.3056 511.816 40.8523C515.536 38.7338 523.366 32.2909 518.397 27.6279C512.779 22.3556 492.426 18.9442 486.605 18.0614C470.008 15.5445 429.691 12.2007 414.678 11.0271C352.894 6.1975 291.136 3.30818 229.021 3.0081C217.902 2.95438 169.837 3.17607 157.743 3.43015C127.834 4.05847 97.0623 4.75262 67.9731 10.6754C47.3947 14.8654 27.8776 22.9544 18.7087 38.2496C9.06305 54.3401 23.547 65.0973 42.8543 71.205C63.4804 77.7299 81.4926 79.3228 103.89 80.9826C129.641 82.891 162.531 83.4127 188.145 83.937C246.815 85.1379 305.982 86.3399 364.44 81.4047C385.397 79.6354 405.871 77.718 425.43 71.416C436.363 67.8931 447.543 63.2908 450.548 53.6546C453.842 43.0929 445.92 36.953 435.116 31.0747C416.999 21.2177 395.591 16.6822 374.265 12.856C307.218 0.826983 236.059 2.81009 167.568 4.27426" stroke="#FBA094" stroke-width="5" stroke-linecap="round"/>
</svg>
