<svg width="265" height="361" viewBox="0 0 265 361" fill="none" xmlns="http://www.w3.org/2000/svg">
<rect x="15" width="250" height="345" rx="10" fill="#87B5FA"/>
<rect x="1.5" y="17.5" width="247" height="342" rx="8.5" fill="white" stroke="black" stroke-width="3"/>
<path d="M27.472 296C27.296 296 27.152 295.944 27.04 295.832C26.928 295.72 26.872 295.584 26.872 295.424V279.8C26.872 279.624 26.928 279.48 27.04 279.368C27.152 279.256 27.296 279.2 27.472 279.2H29.368C29.592 279.2 29.76 279.264 29.872 279.392C29.984 279.504 30.056 279.592 30.088 279.656L34.72 288.296L39.4 279.656C39.432 279.592 39.504 279.504 39.616 279.392C39.728 279.264 39.896 279.2 40.12 279.2H41.992C42.168 279.2 42.312 279.256 42.424 279.368C42.536 279.48 42.592 279.624 42.592 279.8V295.424C42.592 295.584 42.536 295.72 42.424 295.832C42.312 295.944 42.168 296 41.992 296H39.976C39.8 296 39.656 295.944 39.544 295.832C39.448 295.72 39.4 295.584 39.4 295.424V285.032L36.04 291.44C35.96 291.584 35.856 291.712 35.728 291.824C35.6 291.92 35.432 291.968 35.224 291.968H34.24C34.016 291.968 33.84 291.92 33.712 291.824C33.6 291.712 33.504 291.584 33.424 291.44L30.064 285.032V295.424C30.064 295.584 30.008 295.72 29.896 295.832C29.784 295.944 29.648 296 29.488 296H27.472ZM49.6611 296.24C48.8291 296.24 48.0771 296.08 47.4051 295.76C46.7331 295.424 46.1971 294.984 45.7971 294.44C45.4131 293.88 45.2211 293.256 45.2211 292.568C45.2211 291.448 45.6691 290.56 46.5651 289.904C47.4771 289.232 48.6771 288.784 50.1651 288.56L53.4531 288.08V287.576C53.4531 286.904 53.2851 286.384 52.9491 286.016C52.6131 285.648 52.0371 285.464 51.2211 285.464C50.6451 285.464 50.1731 285.584 49.8051 285.824C49.4531 286.048 49.1891 286.352 49.0131 286.736C48.8851 286.944 48.7011 287.048 48.4611 287.048H46.5651C46.3891 287.048 46.2531 287 46.1571 286.904C46.0771 286.808 46.0371 286.68 46.0371 286.52C46.0531 286.264 46.1571 285.952 46.3491 285.584C46.5411 285.216 46.8451 284.864 47.2611 284.528C47.6771 284.176 48.2131 283.88 48.8691 283.64C49.5251 283.4 50.3171 283.28 51.2451 283.28C52.2531 283.28 53.1011 283.408 53.7891 283.664C54.4931 283.904 55.0531 284.232 55.4691 284.648C55.8851 285.064 56.1891 285.552 56.3811 286.112C56.5731 286.672 56.6691 287.264 56.6691 287.888V295.424C56.6691 295.584 56.6131 295.72 56.5011 295.832C56.3891 295.944 56.2531 296 56.0931 296H54.1491C53.9731 296 53.8291 295.944 53.7171 295.832C53.6211 295.72 53.5731 295.584 53.5731 295.424V294.488C53.3651 294.792 53.0851 295.08 52.7331 295.352C52.3811 295.608 51.9491 295.824 51.4371 296C50.9411 296.16 50.3491 296.24 49.6611 296.24ZM50.4771 293.96C51.0371 293.96 51.5411 293.84 51.9891 293.6C52.4531 293.36 52.8131 292.992 53.0691 292.496C53.3411 291.984 53.4771 291.344 53.4771 290.576V290.072L51.0771 290.456C50.1331 290.6 49.4291 290.832 48.9651 291.152C48.5011 291.472 48.2691 291.864 48.2691 292.328C48.2691 292.68 48.3731 292.984 48.5811 293.24C48.8051 293.48 49.0851 293.664 49.4211 293.792C49.7571 293.904 50.1091 293.96 50.4771 293.96ZM63.5641 296C63.3881 296 63.2441 295.944 63.1321 295.832C63.0361 295.72 62.9881 295.584 62.9881 295.424V286.064H59.0761C58.9001 286.064 58.7561 286.008 58.6441 285.896C58.5481 285.784 58.5001 285.648 58.5001 285.488V284.096C58.5001 283.936 58.5481 283.8 58.6441 283.688C58.7561 283.576 58.9001 283.52 59.0761 283.52H69.9721C70.1481 283.52 70.2921 283.576 70.4041 283.688C70.5161 283.8 70.5721 283.936 70.5721 284.096V285.488C70.5721 285.648 70.5161 285.784 70.4041 285.896C70.2921 286.008 70.1481 286.064 69.9721 286.064H66.0841V295.424C66.0841 295.584 66.0281 295.72 65.9161 295.832C65.8041 295.944 65.6681 296 65.5081 296H63.5641ZM77.8506 296.24C76.0746 296.24 74.6666 295.728 73.6266 294.704C72.5866 293.68 72.0266 292.224 71.9466 290.336C71.9306 290.176 71.9226 289.976 71.9226 289.736C71.9226 289.48 71.9306 289.28 71.9466 289.136C72.0106 287.936 72.2826 286.896 72.7626 286.016C73.2586 285.136 73.9386 284.464 74.8026 284C75.6666 283.52 76.6826 283.28 77.8506 283.28C79.1466 283.28 80.2346 283.552 81.1146 284.096C81.9946 284.624 82.6586 285.368 83.1066 286.328C83.5546 287.272 83.7786 288.368 83.7786 289.616V290.12C83.7786 290.28 83.7226 290.416 83.6106 290.528C83.4986 290.64 83.3546 290.696 83.1786 290.696H75.2106C75.2106 290.696 75.2106 290.72 75.2106 290.768C75.2106 290.816 75.2106 290.856 75.2106 290.888C75.2266 291.448 75.3306 291.968 75.5226 292.448C75.7306 292.912 76.0266 293.288 76.4106 293.576C76.8106 293.864 77.2826 294.008 77.8266 294.008C78.2746 294.008 78.6506 293.944 78.9546 293.816C79.2586 293.672 79.5066 293.512 79.6986 293.336C79.8906 293.16 80.0266 293.016 80.1066 292.904C80.2506 292.712 80.3626 292.6 80.4426 292.568C80.5386 292.52 80.6746 292.496 80.8506 292.496H82.9146C83.0746 292.496 83.2026 292.544 83.2986 292.64C83.4106 292.736 83.4586 292.856 83.4426 293C83.4266 293.256 83.2906 293.568 83.0346 293.936C82.7946 294.304 82.4426 294.664 81.9786 295.016C81.5146 295.368 80.9306 295.664 80.2266 295.904C79.5386 296.128 78.7466 296.24 77.8506 296.24ZM75.2106 288.68H80.5146V288.608C80.5146 287.984 80.4106 287.44 80.2026 286.976C79.9946 286.512 79.6906 286.144 79.2906 285.872C78.8906 285.6 78.4106 285.464 77.8506 285.464C77.2906 285.464 76.8106 285.6 76.4106 285.872C76.0106 286.144 75.7066 286.512 75.4986 286.976C75.3066 287.44 75.2106 287.984 75.2106 288.608V288.68ZM86.8542 296C86.6942 296 86.5662 295.952 86.4702 295.856C86.3742 295.76 86.3262 295.64 86.3262 295.496V283.976C86.3262 283.848 86.3742 283.744 86.4702 283.664C86.5822 283.568 86.6942 283.52 86.8062 283.52H88.8222C89.0942 283.52 89.3022 283.656 89.4462 283.928L93.1422 290.648L96.8382 283.928C96.9822 283.656 97.1902 283.52 97.4622 283.52H99.4542C99.5982 283.52 99.7182 283.568 99.8142 283.664C99.9102 283.744 99.9582 283.848 99.9582 283.976V295.496C99.9582 295.64 99.9102 295.76 99.8142 295.856C99.7182 295.952 99.5902 296 99.4302 296H97.3662C97.2062 296 97.0782 295.952 96.9822 295.856C96.9022 295.76 96.8622 295.64 96.8622 295.496V286.784L97.8462 286.952L94.2942 293.504C94.2142 293.648 94.1182 293.784 94.0062 293.912C93.8942 294.024 93.7342 294.08 93.5262 294.08H92.7342C92.5422 294.08 92.3902 294.024 92.2782 293.912C92.1662 293.8 92.0702 293.664 91.9902 293.504L88.5102 287.216L89.4222 287.072V295.496C89.4222 295.64 89.3742 295.76 89.2782 295.856C89.1822 295.952 89.0622 296 88.9182 296H86.8542ZM106.825 296.24C105.993 296.24 105.241 296.08 104.569 295.76C103.897 295.424 103.361 294.984 102.961 294.44C102.577 293.88 102.385 293.256 102.385 292.568C102.385 291.448 102.833 290.56 103.729 289.904C104.641 289.232 105.841 288.784 107.329 288.56L110.617 288.08V287.576C110.617 286.904 110.449 286.384 110.113 286.016C109.777 285.648 109.201 285.464 108.385 285.464C107.809 285.464 107.337 285.584 106.969 285.824C106.617 286.048 106.353 286.352 106.177 286.736C106.049 286.944 105.865 287.048 105.625 287.048H103.729C103.553 287.048 103.417 287 103.321 286.904C103.241 286.808 103.201 286.68 103.201 286.52C103.217 286.264 103.321 285.952 103.513 285.584C103.705 285.216 104.009 284.864 104.425 284.528C104.841 284.176 105.377 283.88 106.033 283.64C106.689 283.4 107.481 283.28 108.409 283.28C109.417 283.28 110.265 283.408 110.953 283.664C111.657 283.904 112.217 284.232 112.633 284.648C113.049 285.064 113.353 285.552 113.545 286.112C113.737 286.672 113.833 287.264 113.833 287.888V295.424C113.833 295.584 113.777 295.72 113.665 295.832C113.553 295.944 113.417 296 113.257 296H111.313C111.137 296 110.993 295.944 110.881 295.832C110.785 295.72 110.737 295.584 110.737 295.424V294.488C110.529 294.792 110.249 295.08 109.897 295.352C109.545 295.608 109.113 295.824 108.601 296C108.105 296.16 107.513 296.24 106.825 296.24ZM107.641 293.96C108.201 293.96 108.705 293.84 109.153 293.6C109.617 293.36 109.977 292.992 110.233 292.496C110.505 291.984 110.641 291.344 110.641 290.576V290.072L108.241 290.456C107.297 290.6 106.593 290.832 106.129 291.152C105.665 291.472 105.433 291.864 105.433 292.328C105.433 292.68 105.537 292.984 105.745 293.24C105.969 293.48 106.249 293.664 106.585 293.792C106.921 293.904 107.273 293.96 107.641 293.96ZM120.728 296C120.552 296 120.408 295.944 120.296 295.832C120.2 295.72 120.152 295.584 120.152 295.424V286.064H116.24C116.064 286.064 115.92 286.008 115.808 285.896C115.712 285.784 115.664 285.648 115.664 285.488V284.096C115.664 283.936 115.712 283.8 115.808 283.688C115.92 283.576 116.064 283.52 116.24 283.52H127.136C127.312 283.52 127.456 283.576 127.568 283.688C127.68 283.8 127.736 283.936 127.736 284.096V285.488C127.736 285.648 127.68 285.784 127.568 285.896C127.456 286.008 127.312 286.064 127.136 286.064H123.248V295.424C123.248 295.584 123.192 295.72 123.08 295.832C122.968 295.944 122.832 296 122.672 296H120.728ZM130.191 296C130.047 296 129.919 295.944 129.807 295.832C129.695 295.72 129.639 295.592 129.639 295.448V284.096C129.639 283.936 129.695 283.8 129.807 283.688C129.919 283.576 130.055 283.52 130.215 283.52H132.207C132.383 283.52 132.519 283.576 132.615 283.688C132.727 283.8 132.783 283.936 132.783 284.096V293.576L131.943 292.976L138.543 283.904C138.623 283.792 138.711 283.704 138.807 283.64C138.903 283.56 139.031 283.52 139.191 283.52H141.015C141.159 283.52 141.287 283.576 141.399 283.688C141.511 283.784 141.567 283.904 141.567 284.048V295.424C141.567 295.584 141.511 295.72 141.399 295.832C141.287 295.944 141.151 296 140.991 296H138.999C138.823 296 138.679 295.944 138.567 295.832C138.471 295.72 138.423 295.584 138.423 295.424V286.376L139.311 286.496L132.663 295.616C132.599 295.712 132.511 295.8 132.399 295.88C132.303 295.96 132.175 296 132.015 296H130.191ZM145.168 296C145.008 296 144.872 295.944 144.76 295.832C144.648 295.72 144.592 295.584 144.592 295.424V284.096C144.592 283.936 144.648 283.8 144.76 283.688C144.872 283.576 145.008 283.52 145.168 283.52H147.136C147.296 283.52 147.432 283.576 147.544 283.688C147.656 283.8 147.712 283.936 147.712 284.096V288.392H149.44L152.368 283.904C152.432 283.792 152.512 283.704 152.608 283.64C152.72 283.56 152.864 283.52 153.04 283.52H155.176C155.336 283.52 155.464 283.56 155.56 283.64C155.656 283.72 155.704 283.824 155.704 283.952C155.704 284 155.688 284.056 155.656 284.12C155.64 284.168 155.616 284.216 155.584 284.264L152.128 289.52L156.088 295.256C156.168 295.352 156.208 295.456 156.208 295.568C156.208 295.696 156.16 295.8 156.064 295.88C155.968 295.96 155.848 296 155.704 296H153.28C153.12 296 152.984 295.968 152.872 295.904C152.776 295.84 152.688 295.752 152.608 295.64L149.44 290.936H147.712V295.424C147.712 295.584 147.656 295.72 147.544 295.832C147.432 295.944 147.296 296 147.136 296H145.168ZM161.927 296.24C161.095 296.24 160.343 296.08 159.671 295.76C158.999 295.424 158.463 294.984 158.063 294.44C157.679 293.88 157.487 293.256 157.487 292.568C157.487 291.448 157.935 290.56 158.831 289.904C159.743 289.232 160.943 288.784 162.431 288.56L165.719 288.08V287.576C165.719 286.904 165.551 286.384 165.215 286.016C164.879 285.648 164.303 285.464 163.487 285.464C162.911 285.464 162.439 285.584 162.071 285.824C161.719 286.048 161.455 286.352 161.279 286.736C161.151 286.944 160.967 287.048 160.727 287.048H158.831C158.655 287.048 158.519 287 158.423 286.904C158.343 286.808 158.303 286.68 158.303 286.52C158.319 286.264 158.423 285.952 158.615 285.584C158.807 285.216 159.111 284.864 159.527 284.528C159.943 284.176 160.479 283.88 161.135 283.64C161.791 283.4 162.583 283.28 163.511 283.28C164.519 283.28 165.367 283.408 166.055 283.664C166.759 283.904 167.319 284.232 167.735 284.648C168.151 285.064 168.455 285.552 168.647 286.112C168.839 286.672 168.935 287.264 168.935 287.888V295.424C168.935 295.584 168.879 295.72 168.767 295.832C168.655 295.944 168.519 296 168.359 296H166.415C166.239 296 166.095 295.944 165.983 295.832C165.887 295.72 165.839 295.584 165.839 295.424V294.488C165.631 294.792 165.351 295.08 164.999 295.352C164.647 295.608 164.215 295.824 163.703 296C163.207 296.16 162.615 296.24 161.927 296.24ZM162.743 293.96C163.303 293.96 163.807 293.84 164.255 293.6C164.719 293.36 165.079 292.992 165.335 292.496C165.607 291.984 165.743 291.344 165.743 290.576V290.072L163.343 290.456C162.399 290.6 161.695 290.832 161.231 291.152C160.767 291.472 160.535 291.864 160.535 292.328C160.535 292.68 160.639 292.984 160.847 293.24C161.071 293.48 161.351 293.664 161.687 293.792C162.023 293.904 162.375 293.96 162.743 293.96Z" fill="black"/>
<path d="M226.707 328.707C227.098 328.317 227.098 327.683 226.707 327.293L220.343 320.929C219.953 320.538 219.319 320.538 218.929 320.929C218.538 321.319 218.538 321.953 218.929 322.343L224.586 328L218.929 333.657C218.538 334.047 218.538 334.681 218.929 335.071C219.319 335.462 219.953 335.462 220.343 335.071L226.707 328.707ZM196 329H226V327H196V329Z" fill="black"/>
<circle cx="42.5" cy="40" r="5" fill="black"/>
<circle cx="42.5" cy="73" r="5" fill="black"/>
<path d="M25 56.6875H60.5" stroke="black" stroke-width="5" stroke-linecap="round"/>
</svg>
