<svg width="266" height="361" viewBox="0 0 266 361" fill="none" xmlns="http://www.w3.org/2000/svg">
<rect x="16" width="250" height="345" rx="10" fill="#C6E36F"/>
<rect x="1.5" y="17.5" width="247" height="342" rx="8.5" fill="white" stroke="black" stroke-width="3"/>
<path d="M25.448 296C25.288 296 25.152 295.944 25.04 295.832C24.928 295.72 24.872 295.584 24.872 295.424V279.8C24.872 279.624 24.928 279.48 25.04 279.368C25.152 279.256 25.288 279.2 25.448 279.2H31.88C33.128 279.2 34.216 279.4 35.144 279.8C36.072 280.184 36.792 280.776 37.304 281.576C37.816 282.36 38.072 283.344 38.072 284.528C38.072 285.728 37.816 286.72 37.304 287.504C36.792 288.272 36.072 288.848 35.144 289.232C34.216 289.616 33.128 289.808 31.88 289.808H28.304V295.424C28.304 295.584 28.248 295.72 28.136 295.832C28.04 295.944 27.904 296 27.728 296H25.448ZM28.256 287.144H31.76C32.688 287.144 33.4 286.928 33.896 286.496C34.392 286.048 34.64 285.392 34.64 284.528C34.64 283.728 34.408 283.088 33.944 282.608C33.48 282.112 32.752 281.864 31.76 281.864H28.256V287.144ZM41.2923 300.56C41.1323 300.56 40.9963 300.504 40.8843 300.392C40.7723 300.296 40.7163 300.16 40.7163 299.984V298.616C40.7163 298.44 40.7723 298.296 40.8843 298.184C40.9963 298.088 41.1323 298.04 41.2923 298.04H42.0363C42.3563 298.04 42.6203 297.976 42.8283 297.848C43.0363 297.72 43.2283 297.504 43.4043 297.2C43.5803 296.912 43.7723 296.512 43.9803 296L48.9723 283.976C49.0363 283.848 49.1163 283.744 49.2123 283.664C49.3083 283.568 49.4523 283.52 49.6443 283.52H51.4683C51.5963 283.52 51.7083 283.568 51.8043 283.664C51.9163 283.76 51.9723 283.872 51.9723 284C51.9723 284.064 51.9643 284.12 51.9483 284.168C51.9483 284.216 51.9243 284.288 51.8763 284.384L47.3163 295.28C47.0443 295.968 46.7483 296.624 46.4283 297.248C46.1243 297.888 45.7803 298.456 45.3963 298.952C45.0283 299.464 44.5963 299.856 44.1003 300.128C43.6043 300.416 43.0203 300.56 42.3483 300.56H41.2923ZM44.3883 295.688L39.5163 284.384C39.4523 284.224 39.4203 284.112 39.4203 284.048C39.4363 283.904 39.4923 283.784 39.5883 283.688C39.6843 283.576 39.8043 283.52 39.9483 283.52H41.8683C42.0603 283.52 42.1963 283.568 42.2763 283.664C42.3723 283.76 42.4443 283.864 42.4923 283.976L46.2123 293.144L44.3883 295.688ZM59.4918 296.24C58.3398 296.24 57.3238 296.024 56.4438 295.592C55.5798 295.16 54.8998 294.536 54.4038 293.72C53.9238 292.888 53.6598 291.888 53.6118 290.72C53.5958 290.48 53.5878 290.168 53.5878 289.784C53.5878 289.384 53.5958 289.056 53.6118 288.8C53.6598 287.632 53.9238 286.64 54.4038 285.824C54.8998 284.992 55.5798 284.36 56.4438 283.928C57.3238 283.496 58.3398 283.28 59.4918 283.28C60.5158 283.28 61.3878 283.424 62.1078 283.712C62.8278 284 63.4198 284.36 63.8838 284.792C64.3478 285.224 64.6918 285.68 64.9158 286.16C65.1558 286.624 65.2838 287.048 65.2998 287.432C65.3158 287.608 65.2598 287.752 65.1318 287.864C65.0198 287.96 64.8838 288.008 64.7238 288.008H62.6118C62.4518 288.008 62.3238 287.968 62.2278 287.888C62.1478 287.808 62.0678 287.688 61.9878 287.528C61.7478 286.888 61.4278 286.44 61.0278 286.184C60.6438 285.912 60.1478 285.776 59.5398 285.776C58.7398 285.776 58.0998 286.032 57.6198 286.544C57.1558 287.04 56.9078 287.832 56.8758 288.92C56.8438 289.528 56.8438 290.088 56.8758 290.6C56.9078 291.704 57.1558 292.504 57.6198 293C58.0998 293.496 58.7398 293.744 59.5398 293.744C60.1638 293.744 60.6678 293.616 61.0518 293.36C61.4358 293.088 61.7478 292.632 61.9878 291.992C62.0678 291.832 62.1478 291.712 62.2278 291.632C62.3238 291.552 62.4518 291.512 62.6118 291.512H64.7238C64.8838 291.512 65.0198 291.568 65.1318 291.68C65.2598 291.776 65.3158 291.912 65.2998 292.088C65.2838 292.376 65.2038 292.704 65.0598 293.072C64.9318 293.424 64.7158 293.792 64.4118 294.176C64.1238 294.544 63.7558 294.888 63.3078 295.208C62.8598 295.512 62.3158 295.76 61.6758 295.952C61.0518 296.144 60.3238 296.24 59.4918 296.24ZM73.2028 296.24C72.0508 296.24 71.0348 296.024 70.1548 295.592C69.2908 295.16 68.6108 294.536 68.1148 293.72C67.6348 292.888 67.3708 291.888 67.3228 290.72C67.3068 290.48 67.2988 290.168 67.2988 289.784C67.2988 289.384 67.3068 289.056 67.3228 288.8C67.3708 287.632 67.6348 286.64 68.1148 285.824C68.6108 284.992 69.2908 284.36 70.1548 283.928C71.0348 283.496 72.0508 283.28 73.2028 283.28C74.2268 283.28 75.0988 283.424 75.8188 283.712C76.5388 284 77.1308 284.36 77.5948 284.792C78.0588 285.224 78.4028 285.68 78.6268 286.16C78.8668 286.624 78.9948 287.048 79.0108 287.432C79.0268 287.608 78.9708 287.752 78.8428 287.864C78.7308 287.96 78.5948 288.008 78.4348 288.008H76.3228C76.1628 288.008 76.0348 287.968 75.9388 287.888C75.8588 287.808 75.7788 287.688 75.6988 287.528C75.4588 286.888 75.1388 286.44 74.7388 286.184C74.3548 285.912 73.8588 285.776 73.2508 285.776C72.4508 285.776 71.8108 286.032 71.3308 286.544C70.8668 287.04 70.6188 287.832 70.5868 288.92C70.5548 289.528 70.5548 290.088 70.5868 290.6C70.6188 291.704 70.8668 292.504 71.3308 293C71.8108 293.496 72.4508 293.744 73.2508 293.744C73.8748 293.744 74.3788 293.616 74.7628 293.36C75.1468 293.088 75.4588 292.632 75.6988 291.992C75.7788 291.832 75.8588 291.712 75.9388 291.632C76.0348 291.552 76.1628 291.512 76.3228 291.512H78.4348C78.5948 291.512 78.7308 291.568 78.8428 291.68C78.9708 291.776 79.0268 291.912 79.0108 292.088C78.9948 292.376 78.9148 292.704 78.7708 293.072C78.6428 293.424 78.4268 293.792 78.1228 294.176C77.8348 294.544 77.4668 294.888 77.0188 295.208C76.5708 295.512 76.0268 295.76 75.3868 295.952C74.7628 296.144 74.0348 296.24 73.2028 296.24ZM82.0897 296C81.9297 296 81.7937 295.944 81.6817 295.832C81.5697 295.72 81.5137 295.584 81.5137 295.424V284.096C81.5137 283.936 81.5697 283.8 81.6817 283.688C81.7937 283.576 81.9297 283.52 82.0897 283.52H84.0577C84.2177 283.52 84.3537 283.576 84.4657 283.688C84.5777 283.8 84.6337 283.936 84.6337 284.096V288.392H86.3617L89.2897 283.904C89.3537 283.792 89.4337 283.704 89.5297 283.64C89.6417 283.56 89.7857 283.52 89.9617 283.52H92.0977C92.2577 283.52 92.3857 283.56 92.4817 283.64C92.5777 283.72 92.6257 283.824 92.6257 283.952C92.6257 284 92.6097 284.056 92.5777 284.12C92.5617 284.168 92.5377 284.216 92.5057 284.264L89.0497 289.52L93.0097 295.256C93.0897 295.352 93.1297 295.456 93.1297 295.568C93.1297 295.696 93.0817 295.8 92.9857 295.88C92.8897 295.96 92.7697 296 92.6257 296H90.2017C90.0417 296 89.9057 295.968 89.7937 295.904C89.6977 295.84 89.6097 295.752 89.5297 295.64L86.3617 290.936H84.6337V295.424C84.6337 295.584 84.5777 295.72 84.4657 295.832C84.3537 295.944 84.2177 296 84.0577 296H82.0897ZM95.7766 296C95.6326 296 95.5046 295.944 95.3926 295.832C95.2806 295.72 95.2246 295.592 95.2246 295.448V284.096C95.2246 283.936 95.2806 283.8 95.3926 283.688C95.5046 283.576 95.6406 283.52 95.8006 283.52H97.7926C97.9686 283.52 98.1046 283.576 98.2006 283.688C98.3126 283.8 98.3686 283.936 98.3686 284.096V293.576L97.5286 292.976L104.129 283.904C104.209 283.792 104.297 283.704 104.393 283.64C104.489 283.56 104.617 283.52 104.777 283.52H106.601C106.745 283.52 106.873 283.576 106.985 283.688C107.097 283.784 107.153 283.904 107.153 284.048V295.424C107.153 295.584 107.097 295.72 106.985 295.832C106.873 295.944 106.737 296 106.577 296H104.585C104.409 296 104.265 295.944 104.153 295.832C104.057 295.72 104.009 295.584 104.009 295.424V286.376L104.897 286.496L98.2486 295.616C98.1846 295.712 98.0966 295.8 97.9846 295.88C97.8886 295.96 97.7606 296 97.6006 296H95.7766ZM110.73 296C110.586 296 110.458 295.944 110.346 295.832C110.234 295.72 110.178 295.592 110.178 295.448V284.096C110.178 283.936 110.234 283.8 110.346 283.688C110.458 283.576 110.594 283.52 110.754 283.52H112.746C112.922 283.52 113.058 283.576 113.154 283.688C113.266 283.8 113.322 283.936 113.322 284.096V293.576L112.482 292.976L119.082 283.904C119.162 283.792 119.25 283.704 119.346 283.64C119.442 283.56 119.57 283.52 119.73 283.52H121.554C121.698 283.52 121.826 283.576 121.938 283.688C122.05 283.784 122.106 283.904 122.106 284.048V295.424C122.106 295.584 122.05 295.72 121.938 295.832C121.826 295.944 121.69 296 121.53 296H119.538C119.362 296 119.218 295.944 119.106 295.832C119.01 295.72 118.962 295.584 118.962 295.424V286.376L119.85 286.496L113.202 295.616C113.138 295.712 113.05 295.8 112.938 295.88C112.842 295.96 112.714 296 112.554 296H110.73ZM116.274 281.888C115.314 281.888 114.546 281.736 113.97 281.432C113.394 281.128 112.978 280.736 112.722 280.256C112.482 279.76 112.362 279.232 112.362 278.672C112.362 278.544 112.402 278.44 112.482 278.36C112.562 278.264 112.674 278.216 112.818 278.216H114.186C114.33 278.216 114.442 278.264 114.522 278.36C114.602 278.44 114.642 278.544 114.642 278.672C114.642 279.024 114.754 279.344 114.978 279.632C115.202 279.904 115.634 280.04 116.274 280.04C116.946 280.04 117.386 279.904 117.594 279.632C117.802 279.344 117.906 279.024 117.906 278.672C117.906 278.544 117.946 278.44 118.026 278.36C118.106 278.264 118.218 278.216 118.362 278.216H119.754C119.898 278.216 120.01 278.264 120.09 278.36C120.17 278.44 120.21 278.544 120.21 278.672C120.21 279.232 120.082 279.76 119.826 280.256C119.57 280.736 119.154 281.128 118.578 281.432C118.018 281.736 117.25 281.888 116.274 281.888ZM138.535 296C138.359 296 138.215 295.944 138.103 295.832C138.007 295.72 137.959 295.584 137.959 295.424V291.752H135.583V291.632C133.967 291.632 132.751 291.264 131.935 290.528C131.135 289.776 130.735 288.792 130.735 287.576C130.735 286.232 131.159 285.224 132.007 284.552C132.855 283.864 134.079 283.52 135.679 283.52H140.575C140.735 283.52 140.871 283.576 140.983 283.688C141.095 283.8 141.151 283.936 141.151 284.096V295.424C141.151 295.584 141.095 295.72 140.983 295.832C140.871 295.944 140.735 296 140.575 296H138.535ZM130.855 296C130.711 296 130.591 295.952 130.495 295.856C130.399 295.76 130.351 295.648 130.351 295.52C130.351 295.472 130.359 295.416 130.375 295.352C130.391 295.272 130.431 295.2 130.495 295.136L133.183 290.912L136.111 291.296L133.447 295.64C133.399 295.736 133.319 295.824 133.207 295.904C133.095 295.968 132.975 296 132.847 296H130.855ZM135.607 289.472H138.007V285.8H135.751C135.015 285.8 134.471 285.936 134.119 286.208C133.767 286.464 133.591 286.92 133.591 287.576C133.591 288.136 133.751 288.592 134.071 288.944C134.407 289.296 134.919 289.472 135.607 289.472ZM149.197 296.24C148.173 296.24 147.309 296.12 146.605 295.88C145.917 295.64 145.365 295.336 144.949 294.968C144.549 294.6 144.253 294.216 144.061 293.816C143.885 293.4 143.781 293.024 143.749 292.688C143.749 292.544 143.797 292.432 143.893 292.352C143.989 292.272 144.093 292.232 144.205 292.232H146.173C146.333 292.232 146.453 292.264 146.533 292.328C146.629 292.392 146.709 292.496 146.773 292.64C146.933 293.12 147.229 293.456 147.661 293.648C148.109 293.84 148.661 293.936 149.317 293.936C149.765 293.936 150.165 293.88 150.517 293.768C150.869 293.64 151.141 293.456 151.333 293.216C151.525 292.96 151.621 292.648 151.621 292.28C151.621 291.752 151.469 291.352 151.165 291.08C150.861 290.792 150.365 290.648 149.677 290.648H148.357C148.197 290.648 148.069 290.6 147.973 290.504C147.877 290.408 147.829 290.28 147.829 290.12V289.112C147.829 288.968 147.877 288.848 147.973 288.752C148.069 288.64 148.197 288.584 148.357 288.584H149.581C150.157 288.584 150.589 288.48 150.877 288.272C151.165 288.048 151.309 287.704 151.309 287.24C151.309 286.968 151.237 286.712 151.093 286.472C150.965 286.216 150.749 286.008 150.445 285.848C150.141 285.688 149.717 285.608 149.173 285.608C148.421 285.608 147.885 285.728 147.565 285.968C147.245 286.208 147.013 286.568 146.869 287.048C146.805 287.192 146.725 287.296 146.629 287.36C146.549 287.424 146.421 287.456 146.245 287.456H144.349C144.221 287.456 144.109 287.416 144.013 287.336C143.933 287.256 143.893 287.144 143.893 287C143.925 286.568 144.037 286.136 144.229 285.704C144.437 285.256 144.749 284.848 145.165 284.48C145.597 284.112 146.141 283.824 146.797 283.616C147.453 283.392 148.253 283.28 149.197 283.28C150.477 283.28 151.493 283.456 152.245 283.808C152.997 284.16 153.533 284.608 153.853 285.152C154.189 285.68 154.357 286.232 154.357 286.808C154.357 287.4 154.245 287.912 154.021 288.344C153.813 288.776 153.421 289.128 152.845 289.4C153.565 289.672 154.061 290.088 154.333 290.648C154.605 291.208 154.749 291.824 154.765 292.496C154.765 293.296 154.533 293.976 154.069 294.536C153.605 295.08 152.957 295.504 152.125 295.808C151.293 296.096 150.317 296.24 149.197 296.24ZM157.816 296C157.656 296 157.52 295.944 157.408 295.832C157.296 295.72 157.24 295.584 157.24 295.424V284.096C157.24 283.936 157.296 283.8 157.408 283.688C157.52 283.576 157.656 283.52 157.816 283.52H159.832C159.992 283.52 160.128 283.576 160.24 283.688C160.352 283.8 160.408 283.936 160.408 284.096V287.48H162.736C164.368 287.48 165.592 287.864 166.408 288.632C167.224 289.4 167.632 290.456 167.632 291.8C167.632 293.192 167.192 294.24 166.312 294.944C165.448 295.648 164.192 296 162.544 296H157.816ZM160.36 293.72H162.472C163.256 293.72 163.832 293.576 164.2 293.288C164.584 293 164.776 292.504 164.776 291.8C164.776 291.112 164.592 290.6 164.224 290.264C163.872 289.928 163.288 289.76 162.472 289.76H160.36V293.72ZM169.792 296C169.632 296 169.496 295.944 169.384 295.832C169.272 295.72 169.216 295.584 169.216 295.424V284.096C169.216 283.936 169.272 283.8 169.384 283.688C169.496 283.576 169.632 283.52 169.792 283.52H171.784C171.96 283.52 172.096 283.576 172.192 283.688C172.304 283.8 172.36 283.936 172.36 284.096V295.424C172.36 295.584 172.304 295.72 172.192 295.832C172.096 295.944 171.96 296 171.784 296H169.792ZM176.168 296C176.008 296 175.872 295.944 175.76 295.832C175.648 295.72 175.592 295.584 175.592 295.424V284.096C175.592 283.936 175.648 283.8 175.76 283.688C175.872 283.576 176.008 283.52 176.168 283.52H178.136C178.296 283.52 178.432 283.576 178.544 283.688C178.656 283.8 178.712 283.936 178.712 284.096V288.392H180.44L183.368 283.904C183.432 283.792 183.512 283.704 183.608 283.64C183.72 283.56 183.864 283.52 184.04 283.52H186.176C186.336 283.52 186.464 283.56 186.56 283.64C186.656 283.72 186.704 283.824 186.704 283.952C186.704 284 186.688 284.056 186.656 284.12C186.64 284.168 186.616 284.216 186.584 284.264L183.128 289.52L187.088 295.256C187.168 295.352 187.208 295.456 187.208 295.568C187.208 295.696 187.16 295.8 187.064 295.88C186.968 295.96 186.848 296 186.704 296H184.28C184.12 296 183.984 295.968 183.872 295.904C183.776 295.84 183.688 295.752 183.608 295.64L180.44 290.936H178.712V295.424C178.712 295.584 178.656 295.72 178.544 295.832C178.432 295.944 178.296 296 178.136 296H176.168Z" fill="black"/>
<path d="M203 321.519V333.04C203 335.801 205.239 338.04 208 338.04H221C223.761 338.04 226 335.801 226 333.04V321.519C226 318.757 223.761 316.519 221 316.519L208 316.519C205.239 316.519 203 318.757 203 321.519Z" fill="black"/>
<path d="M212.321 326.617L212.137 327.351L212.043 328.072C211.842 329.604 213.034 330.962 214.579 330.962C216.123 330.962 217.315 329.604 217.115 328.072L217.02 327.351L216.908 326.754C216.699 325.644 215.729 324.839 214.6 324.839C213.522 324.839 212.583 325.572 212.321 326.617Z" fill="white"/>
<path d="M206.151 314.586V315.966C206.151 316.791 206.82 317.461 207.645 317.461H207.962C208.963 317.461 209.774 316.65 209.774 315.649V314.731C209.774 311.903 212.066 309.611 214.894 309.611C217.721 309.611 220.014 311.903 220.014 314.731V315.807C220.014 316.72 220.754 317.461 221.668 317.461H221.827C222.653 317.461 223.322 316.791 223.322 315.966V314.586C223.322 309.844 219.478 306 214.736 306C209.995 306 206.151 309.844 206.151 314.586Z" fill="black"/>
<path d="M46.5744 48.8213C36.3884 60.3915 29.8809 66.869 23 78.4788L25.6295 78.0329C26.5954 75.5058 27.299 74.1086 29.2755 71.7034C34.6473 73.1416 36.3519 72.831 38.3624 71.3969C37.4292 71.0583 36.9456 70.8405 36.6019 70.0839C39.1312 70.8266 41.3852 69.2561 46.1647 64.6482C44.2499 64.6366 43.3043 64.5264 41.7324 64.2369C53.9585 61.0269 55.2661 52.3085 52.4213 37.1408C52.3006 36.4975 51.4385 36.3383 51.0798 36.8857C47.3556 42.5703 41.0357 49.3658 36.3717 53.7989C33.3864 56.6365 27.5348 61.3453 27.6734 65.4617C27.7294 67.1247 26.9259 64.7603 27.0361 62.8734C26.1572 65.9787 26.0432 67.4615 27.1543 69.2073C34.5625 59.0607 38.8807 55.4194 46.5744 48.8213Z" fill="black" stroke="black"/>
</svg>
