<svg width="574" height="97" viewBox="0 0 574 97" fill="none" xmlns="http://www.w3.org/2000/svg">
<path d="M428.09 4.41412C360.597 5.65174 311.365 5.65594 243.402 10.8153C191.573 14.7497 113.916 22.814 62.5694 35.249C54.0926 37.3018 7.35184 49.1168 5.03185 66.1619C3.67432 76.1357 31.2673 83.73 36.6927 84.7408C62.1731 89.4884 117.085 90.8099 139.286 90.9859C184.925 91.3475 249.805 89.482 295.155 87.0046C367.189 83.0695 442.23 77.4688 511.91 61.8684C525.429 58.8417 549.634 52.1684 562.04 45.0068C566.112 42.6558 574.684 35.5058 569.245 30.331C563.094 24.48 540.812 20.6942 534.438 19.7144C516.268 16.9213 472.128 13.2105 455.692 11.9082C388.051 6.54844 320.438 3.342 252.433 3.00899C240.26 2.94938 187.638 3.1954 174.397 3.47736C141.653 4.17464 107.964 4.94498 76.1166 11.5178C53.5871 16.1677 12.0026 27.9625 5.03163 39.75C-5.52854 57.6066 27.4785 71.9128 48.6163 78.6909C71.1979 85.932 90.9178 87.6997 115.439 89.5417C143.631 91.6595 179.639 92.2385 207.682 92.8203C271.915 94.153 336.691 95.487 400.691 90.0101C423.635 88.0466 446.05 85.9187 467.463 78.9251C479.434 75.0155 491.673 69.9081 494.963 59.2143C498.569 47.4934 489.896 40.6796 478.067 34.1561C458.233 23.2173 434.796 18.1839 411.448 13.9378C338.044 0.588481 260.138 2.78924 185.154 4.41412" stroke="#FBA094" stroke-width="5" stroke-linecap="round"/>
</svg>
