<svg width="32" height="34" viewBox="0 0 32 34" fill="none" xmlns="http://www.w3.org/2000/svg">
<path d="M2.15071 11.5724L5.12633 29.8763C5.15744 30.0677 5.29951 30.2248 5.48618 30.2773C14.7865 32.8887 19.9493 32.5734 28.7072 29.0423C28.8883 28.9693 29.0126 28.7958 29.0212 28.6007L29.9408 7.67795C29.9611 7.21452 29.3942 6.97557 29.0767 7.31376L22.1942 14.6447C21.9445 14.9107 21.5033 14.8284 21.3663 14.4903L16.4512 2.35868C16.2721 1.91659 15.6346 1.95248 15.5062 2.41188L12.0869 14.6494C12.0041 14.9457 11.6758 15.0977 11.3963 14.9691L2.85324 11.038C2.48955 10.8706 2.08647 11.1773 2.15071 11.5724Z" fill="#FFCE70" stroke="black" stroke-width="3" stroke-linecap="round"/>
</svg>
