<svg width="60" height="61" viewBox="0 0 60 61" fill="none" xmlns="http://www.w3.org/2000/svg">
<circle cx="30" cy="30" r="28.5" fill="#87B5FA" stroke="black" stroke-width="3"/>
<path d="M14.6849 18.6737C10.987 35.3609 9.69957 43.3513 10.3703 51.0134C10.3921 51.2623 10.5103 51.4953 10.698 51.6602C22.8821 62.3653 40.0447 59.9136 49.3449 51.6675C49.5374 51.4969 49.6515 51.2554 49.6673 50.9986C50.2359 41.7687 49.0652 34.4153 44.4854 18.5017C44.3183 17.921 43.6744 17.6147 43.125 17.8665C39.967 19.3135 38.1575 20.5029 36.3635 23.0404C36.1339 23.3651 35.7397 23.5372 35.3475 23.4719C31.2598 22.7916 28.7202 22.6538 24.5955 23.4782C24.28 23.5412 23.9514 23.4524 23.7118 23.2377C21.388 21.156 19.5771 19.8607 16.1185 18.0062C15.54 17.696 14.827 18.0328 14.6849 18.6737Z" fill="white" stroke="black" stroke-width="3"/>
</svg>
