<svg width="246" height="273" viewBox="0 0 246 273" fill="none" xmlns="http://www.w3.org/2000/svg">
<path d="M88.748 26.7513C74.1263 34.9257 67.1673 39.4855 59.6182 46.1218C58.8008 46.8403 57.659 47.0751 56.6271 46.7292C43.5583 42.3484 36.7368 41.052 29.3981 42.3076C28.1535 42.5205 27.2242 43.5559 27.136 44.8155C26.3503 56.034 29.3571 73.8618 36.8112 111.401C36.8733 111.713 36.885 112.054 36.8464 112.371C20.4456 246.988 63.7773 268.611 208.56 236.423C210.054 236.091 211.503 235.41 212.677 234.427C220.153 228.167 223.263 223.818 226.54 216.137C226.606 215.982 226.66 215.816 226.699 215.652C247.032 129.309 226.883 70.2696 100.448 2.75107C98.7724 1.85653 96.6512 2.70788 96.1205 4.53125L90.1742 24.9625C89.9536 25.7205 89.4371 26.3661 88.748 26.7513Z" stroke="black" stroke-width="3"/>
<path d="M37.6567 54.4711C35.7822 56.2594 36.6433 58.8305 37.6766 60.9513C38.207 62.0398 39.3824 62.6741 40.5848 62.5321C44.5561 62.0632 50.0791 60.7939 46.79 56.2492C44.9847 53.7548 40.2315 52.0148 37.6567 54.4711Z" stroke="black" stroke-width="3" stroke-linecap="round"/>
<path d="M104.781 16.6859C102.457 17.5735 101.7 20.0376 101.653 22.2705C101.647 22.5678 101.682 22.8776 101.866 23.1112C103.384 25.0411 110.694 24.1453 110.974 21.9886C111.279 19.6312 107.05 15.819 104.781 16.6859Z" stroke="black" stroke-width="3" stroke-linecap="round"/>
<path d="M133.744 37.0076C150.585 30.9479 167.035 25.3923 184.977 24.4336" stroke="black" stroke-width="3" stroke-linecap="round"/>
<ellipse cx="124.5" cy="176.5" rx="37.5" ry="43.5" transform="rotate(-7.23836 124.5 176.5)" fill="#ECECEC"/>
<path d="M97.3751 146.625C98.1923 147.093 98.5674 147.405 99.5279 147.556C99.8787 147.611 100.786 147.381 100.514 147.153C99.2375 146.083 96.8766 146.787 96.2223 148.222C95.5294 149.742 98.2609 148.92 98.7084 148.792C100.619 148.243 101.674 147.163 101.889 145.174C101.939 144.711 102.208 142.363 101.195 142.479C100.265 142.585 99.5624 144.173 99.0626 144.82C98.5195 145.522 98.5781 145.115 98.8404 145.361C99.0725 145.579 99.4139 146.451 99.4862 146.583C99.6733 146.926 99.8466 147.284 100.097 147.583C101.977 149.829 100.062 147.127 102.25 149.125" stroke="white" stroke-width="3" stroke-linecap="round"/>
<path d="M137.375 136C138.791 137.803 141.173 138.796 143.194 139.764C143.827 140.067 144.229 140.276 144.847 140.403C145.5 140.537 143.514 140.354 142.847 140.354C141.696 140.354 140.222 140.457 139.194 139.806C138.627 139.445 138.617 138.961 138.5 138.375" stroke="white" stroke-width="3" stroke-linecap="round"/>
<path d="M142.752 43.2943C154.823 38.8492 166.153 38.5508 178.784 37.0073" stroke="black" stroke-width="3" stroke-linecap="round"/>
<path d="M41.9736 83.3027C31.6413 87.0007 21.5811 91.4117 11.6337 96.0673C8.15813 97.6939 4.95633 99.1913 2 101.592" stroke="black" stroke-width="3" stroke-linecap="round"/>
<path d="M44.2258 92.4473C37.348 97.6652 30.6089 102.976 23.9575 108.451" stroke="black" stroke-width="3" stroke-linecap="round"/>
<path d="M82.6273 244.627C80.8572 244.894 79.0924 244.016 77.3462 243.607C76.3992 243.385 75.509 244.954 74.5522 244.786C74.5392 244.784 74.5365 233.404 74.5522 233.004C74.5617 232.763 73.7729 244.302 73.5905 245.073C73.4573 245.637 73.8335 243.927 73.9719 243.368C74.761 240.182 73.6665 244.156 73.4081 245.073C72.7177 247.524 73.0409 244.7 73.3749 243.655C74.0008 241.696 75.1456 243.096 76.0114 243.607C78.2672 244.938 80.4757 245.91 82.8429 246.141C86.3687 246.485 89.9863 245.575 93.5047 245.137C94.4433 245.02 95.6329 244.518 96.5888 244.723C96.9701 244.804 95.9904 245.654 95.6603 246.03C95.0251 246.752 94.8022 247.026 94.2011 247.815C94.0915 247.959 93.9814 248.102 93.8778 248.261C93.5575 248.754 94.5546 247.365 94.9141 246.986C95.129 246.759 96.6938 244.976 96.2572 247.177C96.1138 247.9 95.3492 249.726 95.6105 249.138C95.9964 248.269 97.2313 249.034 97.6335 248.261C97.7744 247.99 98.3826 243.895 97.6335 246.285C96.6405 249.452 95.5222 250.288 93.6871 249.919C91.2852 249.435 88.8837 248.699 86.4991 247.974C85.4537 247.656 83.001 247.834 83.4896 246.03C83.7837 244.943 84.6237 244.491 84.9653 243.368C85.211 242.56 77.3721 239.163 77.3462 238.315" stroke="white" stroke-width="3" stroke-linecap="round"/>
<path d="M90.4849 247.717C92.7076 246.549 93.3634 246.148 95.8334 245.145" stroke="white" stroke-width="3" stroke-linecap="round"/>
<path d="M94.9888 245.574C96.0044 246.133 96.3022 246.241 97.1 245.431" stroke="white" stroke-width="3" stroke-linecap="round"/>
<path d="M89.3586 234C81.4548 234.775 74.8542 237.309 71.5926 245.431C69.4229 250.833 73.5792 253.106 78.0984 253.941C86.7315 255.534 95.8272 253.011 101.745 246.002" stroke="black" stroke-width="3" stroke-linecap="round"/>
<path d="M180.363 240.288C179.654 241.185 177.77 242.666 178.815 243.63C179.22 244.004 181.55 243.682 181.919 243.63C183.442 243.417 185.069 243.164 186.525 242.638C187.079 242.438 186.237 242.277 186.102 242.17C185.559 241.738 185.322 241.574 184.585 241.416C183.678 241.221 183.532 241.333 184.89 241.114C188.052 240.604 191.139 239.838 194.219 238.963C195.69 238.545 196.993 238.431 198.504 238.367C198.675 238.36 199.678 238.226 199.661 238.685C199.634 239.446 198.077 239.742 197.675 239.836C194.581 240.562 191.365 240.861 188.229 241.368C186.149 241.704 183.787 242.141 181.77 241.289" stroke="white" stroke-width="3" stroke-linecap="round"/>
<path d="M190.075 228C195.547 229.608 203.669 236.381 201.711 243.114C200.025 248.911 190.232 248.654 185.759 248.322C180.991 247.967 176 247.679 176 242.289" stroke="black" stroke-width="3" stroke-linecap="round"/>
<path d="M97.7114 133.027C101.794 135.27 103.3 137.901 104.186 142.68C105.302 148.699 104.02 151.317 98.2118 151.317C93.3831 151.317 88.6978 151.456 84.7622 148.459" stroke="black" stroke-width="3" stroke-linecap="round"/>
<path d="M139.374 121.025C136.09 125.647 134.42 129.033 135.401 134.933C135.898 137.917 137.127 142.209 140.687 142.744C144.879 143.373 148.062 141.043 150.634 138.171" stroke="black" stroke-width="3" stroke-linecap="round"/>
<path d="M228.892 206.757C231.54 208.895 234.651 210.549 236.837 213.171C242.983 220.545 244.5 227.428 244.5 237.081C244.5 248.755 241.086 260.438 230.456 266.388C224.69 269.616 205.375 275.963 204.558 264.102C203.84 253.692 214.397 248.47 219.071 240.732C221.474 236.754 220.775 233.107 219.321 229.047" stroke="black" stroke-width="3" stroke-linecap="round"/>
<path d="M93.7705 84.7317C94.5064 81.3888 95.0282 78.1521 95.178 74.7296C95.2537 73.0011 95.5552 73.2666 97.086 73.9993C99.9256 75.3585 102.797 76.7393 105.594 78.1589" stroke="black" stroke-width="3" stroke-linecap="round"/>
<path d="M103.342 55.0107C105.504 54.8501 107.643 54.9087 109.785 55.2965C109.821 55.303 112.805 55.899 111.255 56.4396C109.128 57.1812 104.892 57.6415 103.06 56.1538" stroke="black" stroke-width="5" stroke-linecap="round"/>
<path d="M75.1265 72.1286C73.4471 73.5206 71.9327 75.056 70.6397 76.8319C70.618 76.8617 68.8536 79.3771 70.3458 78.6879C72.393 77.7424 75.7815 75.1213 76.1049 72.7625" stroke="black" stroke-width="5" stroke-linecap="round"/>
<ellipse cx="16.1092" cy="10.9836" rx="16.1092" ry="10.9836" transform="matrix(0.843527 -0.537087 0.525608 0.850727 38.5957 100.607)" fill="#FBA094"/>
<ellipse cx="16.0439" cy="11.0274" rx="16.0439" ry="11.0274" transform="matrix(0.992226 -0.124448 0.120812 0.992675 125.299 49.5737)" fill="#FBA094"/>
</svg>
